{"glyphs":{"0":{"ha":558,"x_min":42,"x_max":544,"o":"m 544 628 q 491 303 544 461 q 329 43 438 146 q 222 -12 271 -12 q 167 14 190 -12 q 42 367 42 153 q 94 679 42 510 q 233 944 146 849 q 263 969 253 969 q 272 965 264 969 q 343 1004 296 1004 q 399 989 368 1004 q 544 628 544 917 m 432 719 q 363 876 432 828 q 343 883 353 883 q 294 838 313 883 q 247 603 247 713 q 256 506 247 544 q 265 456 265 467 q 254 444 265 444 q 227 464 239 444 q 210 494 215 483 q 197 518 204 504 l 189 535 q 168 317 168 414 q 199 142 168 142 q 225 163 208 142 q 424 636 375 371 q 432 719 432 692 z "},"1":{"ha":285,"x_min":64,"x_max":268,"o":"m 268 811 q 228 492 268 746 q 188 146 188 239 q 200 82 188 124 q 213 23 213 40 q 192 6 213 6 q 107 39 114 6 q 90 97 104 49 q 64 243 64 188 q 186 943 64 553 q 210 986 200 986 q 226 974 214 986 q 268 811 268 931 z "},"2":{"ha":528,"x_min":51,"x_max":529,"o":"m 328 239 l 410 246 q 447 182 447 246 q 422 126 447 151 q 163 15 318 15 q 119 36 133 15 q 82 184 82 97 q 95 295 82 271 q 121 332 108 319 q 299 533 228 435 q 414 747 371 631 q 419 774 419 760 q 417 799 419 789 q 406 815 414 808 q 393 825 399 821 q 376 832 388 829 q 358 836 364 835 q 282 840 314 840 q 242 807 250 840 q 147 665 222 722 q 110 650 126 650 q 67 701 82 650 q 51 789 51 751 q 153 929 51 867 q 167 951 150 951 q 181 946 172 951 q 304 976 250 976 q 407 936 358 976 q 437 912 417 928 q 476 878 457 896 q 513 817 496 861 q 529 718 529 772 q 488 572 529 664 q 288 265 411 404 q 278 249 278 250 q 328 239 278 239 z "},"3":{"ha":500,"x_min":51,"x_max":472,"o":"m 121 481 l 119 585 q 124 599 119 596 q 137 606 129 603 q 146 611 144 610 q 325 811 271 678 q 329 833 329 819 q 293 854 329 854 q 267 853 276 854 q 190 780 264 811 q 106 749 115 749 q 61 838 61 749 l 65 904 q 93 946 67 933 q 192 978 139 964 q 188 1000 188 989 q 195 1011 188 1011 q 208 1008 203 1011 q 221 995 214 1004 q 231 983 228 986 q 272 986 244 986 q 378 933 325 986 q 399 904 386 925 q 421 874 413 883 q 453 781 453 838 q 421 664 453 725 q 356 563 389 603 q 324 517 324 524 q 360 474 324 510 q 435 378 397 438 q 472 261 472 318 q 444 149 472 204 q 208 -17 381 21 q 170 -21 188 -21 q 137 -17 153 -21 q 110 -1 121 -12 q 90 18 99 10 q 75 46 81 26 q 65 75 69 65 q 58 110 61 85 q 56 142 56 135 q 51 208 51 181 l 51 217 q 92 261 51 251 q 163 273 117 267 q 220 282 208 279 q 238 285 232 285 q 243 274 243 285 q 217 226 243 264 q 190 185 190 189 q 195 182 190 182 q 213 186 200 182 q 331 315 331 228 q 298 391 331 357 q 224 425 265 425 q 179 413 208 425 q 138 401 150 401 q 123 419 125 401 q 121 481 121 438 z "},"4":{"ha":614,"x_min":51,"x_max":610,"o":"m 534 543 q 545 543 534 543 q 583 517 557 543 q 610 463 610 492 q 583 419 610 435 q 489 382 553 404 l 468 186 q 463 21 463 131 q 456 -12 463 4 q 438 -28 449 -28 q 420 -24 426 -28 q 408 -12 414 -19 q 397 3 401 -4 q 387 22 392 11 q 378 40 382 33 q 372 58 375 47 q 367 71 368 68 q 343 193 343 128 q 351 336 343 194 q 226 307 264 307 q 83 417 110 307 q 51 626 51 544 q 428 1011 51 813 q 466 1019 447 1019 q 494 1000 485 1019 q 517 921 507 981 q 528 836 528 861 q 504 542 528 760 q 534 543 511 543 m 369 754 q 258 651 340 754 q 176 517 176 549 q 206 500 176 500 q 239 503 218 500 q 367 519 322 514 q 375 611 369 551 q 386 731 386 708 q 369 754 386 754 z "},"5":{"ha":521,"x_min":61,"x_max":478,"o":"m 165 997 l 222 994 q 335 1002 292 994 q 381 1010 379 1010 q 438 982 411 1010 q 465 929 465 954 q 447 890 465 904 q 253 815 363 818 q 213 743 236 796 q 413 599 347 707 q 478 354 478 492 q 411 122 478 217 q 213 -18 313 -18 q 106 83 132 -18 q 85 195 85 161 q 124 251 85 229 q 261 365 185 289 q 276 374 269 374 q 289 348 289 374 q 267 273 289 322 q 246 216 246 224 q 249 208 246 208 q 271 221 254 208 q 372 443 372 306 q 335 543 372 507 q 232 579 299 579 q 111 514 165 579 q 61 696 61 632 q 139 960 61 760 q 152 992 147 986 q 165 997 157 997 z "},"6":{"ha":569,"x_min":50,"x_max":542,"o":"m 139 285 l 138 263 q 175 192 138 201 q 169 256 169 219 q 220 448 169 356 q 354 601 271 540 q 413 622 385 622 q 505 572 468 622 q 542 464 542 521 l 542 449 q 363 42 522 203 q 259 -12 311 -12 q 176 10 207 -12 q 143 43 167 17 q 50 381 50 150 q 100 658 50 533 q 251 911 150 783 q 322 975 279 946 q 398 1004 364 1004 q 447 978 432 1004 q 461 908 461 951 q 435 819 461 865 q 363 774 410 774 q 344 776 358 774 q 139 285 174 586 m 421 419 q 394 442 421 442 q 369 431 381 442 q 277 317 324 386 q 217 196 231 249 q 322 279 263 215 q 414 399 381 343 q 421 419 421 410 z "},"7":{"ha":478,"x_min":44,"x_max":526,"o":"m 211 768 l 153 774 q 119 759 131 774 q 97 744 108 744 q 57 797 69 744 q 44 893 44 850 q 67 989 44 989 q 81 976 75 989 q 93 959 86 964 q 106 951 100 954 q 124 947 113 949 q 142 946 136 946 q 185 946 160 946 q 368 953 211 946 q 411 965 389 954 q 440 976 433 976 q 494 939 463 976 q 526 878 526 901 q 510 840 526 856 q 484 803 493 824 q 422 665 475 782 q 290 361 290 374 q 308 327 290 349 q 326 285 326 306 q 296 167 326 265 q 253 36 265 69 q 214 3 240 3 q 178 28 188 3 q 151 188 151 101 q 168 358 151 275 q 201 495 185 442 q 253 648 218 549 q 301 783 289 747 q 211 768 256 768 z "},"8":{"ha":511,"x_min":28,"x_max":489,"o":"m 421 889 q 489 728 489 814 q 364 492 489 643 q 471 214 471 381 q 416 49 471 106 q 254 -7 361 -7 q 54 119 108 -7 q 28 232 28 185 q 44 322 28 279 q 97 410 61 365 q 221 546 143 468 q 143 724 143 644 q 244 936 143 822 q 354 999 301 999 q 403 978 382 999 q 418 942 415 965 q 424 894 421 919 l 421 889 m 407 794 q 374 836 407 815 q 250 724 272 751 q 236 688 236 710 q 276 601 236 665 q 403 776 367 694 q 407 794 407 785 m 358 236 q 393 299 393 258 q 313 435 393 340 q 220 342 283 403 q 136 257 157 281 q 115 222 115 233 q 214 197 115 197 q 358 236 300 197 z "},"9":{"ha":517,"x_min":54,"x_max":497,"o":"m 200 311 q 189 217 189 222 q 204 194 189 194 q 288 285 250 194 q 326 431 326 376 q 322 442 326 442 q 307 430 317 442 q 286 403 297 418 q 255 377 275 389 q 217 365 235 365 q 176 374 199 365 q 84 465 114 397 q 54 603 54 532 q 76 728 54 674 q 261 975 138 875 q 317 997 290 997 q 363 982 343 997 q 497 625 497 890 q 285 31 497 296 q 215 -6 256 -6 q 154 33 175 -6 q 122 123 138 63 q 107 218 107 183 q 144 264 107 253 q 169 277 157 268 q 183 289 181 286 q 200 311 185 292 m 368 776 q 350 876 368 876 q 332 867 342 876 q 165 571 258 797 q 160 552 160 554 q 163 550 160 550 q 194 560 167 550 q 260 608 222 569 q 317 676 299 647 q 368 757 336 704 l 368 776 z "}," ":{"ha":281,"x_min":0,"x_max":0,"o":""},"!":{"ha":343,"x_min":83,"x_max":378,"o":"m 188 811 q 139 865 139 842 q 174 886 139 881 q 268 913 208 892 q 340 933 328 933 q 365 922 351 933 q 378 889 378 910 q 348 798 378 868 q 274 631 318 728 q 207 473 229 533 q 176 360 185 413 q 166 291 167 307 q 157 275 165 275 q 120 328 138 275 q 103 464 103 382 q 126 647 103 546 q 188 811 149 747 m 231 85 q 231 60 231 85 q 213 8 231 36 q 160 -19 194 -19 q 105 13 126 -19 q 83 92 83 46 q 100 167 83 138 q 147 196 117 196 q 204 165 178 196 q 231 85 231 133 z "},"\"":{"ha":346,"x_min":69,"x_max":358,"o":"m 83 657 q 69 932 69 692 q 103 964 69 964 q 172 939 160 964 q 185 836 185 914 q 172 688 185 758 q 139 617 160 617 q 110 631 132 617 q 83 657 89 644 m 243 839 l 236 940 q 276 961 236 961 q 319 953 301 961 q 343 933 338 944 q 352 915 349 921 q 357 892 356 908 q 358 868 358 875 l 358 814 q 347 679 358 740 q 319 618 336 618 q 247 663 261 618 q 243 732 243 674 l 243 839 z "},"#":{"ha":644,"x_min":26,"x_max":642,"o":"m 479 435 q 564 449 549 449 q 592 419 579 449 q 606 374 606 389 q 597 353 606 360 q 572 346 589 347 q 540 345 554 344 q 500 349 525 346 q 463 351 475 351 q 447 265 460 336 q 426 85 433 193 q 415 76 425 81 q 397 72 406 72 q 361 100 388 72 q 331 138 335 128 q 330 167 328 149 q 335 206 332 185 q 343 256 339 226 q 360 347 347 285 l 256 343 q 247 301 253 329 q 231 214 242 272 q 213 47 219 156 q 201 33 208 33 q 161 66 190 33 q 126 113 132 99 q 124 181 119 139 q 150 333 129 224 q 86 328 115 328 q 46 336 57 328 q 26 364 26 350 q 31 394 26 378 q 46 428 38 428 l 168 422 q 206 594 193 542 q 117 590 129 589 q 83 629 83 590 q 98 665 83 649 q 119 682 113 682 q 225 679 161 682 q 251 786 246 767 q 246 811 251 790 q 242 842 240 832 q 274 862 244 854 q 324 869 304 869 q 353 841 349 869 q 342 725 357 813 q 328 679 340 721 l 435 682 q 461 828 468 828 q 536 883 461 883 q 565 855 561 883 q 554 739 569 826 q 539 688 543 700 q 614 693 592 693 q 642 632 642 693 q 517 603 642 597 q 479 435 499 535 m 307 599 q 269 424 300 569 l 375 426 q 415 601 378 439 l 307 599 z "},"$":{"ha":488,"x_min":32,"x_max":499,"o":"m 189 -132 q 160 49 154 -50 l 146 49 q 57 76 82 49 q 32 176 32 103 q 82 335 32 288 q 192 394 149 394 l 194 394 q 207 492 203 458 q 101 554 104 551 q 50 653 50 589 q 121 807 50 718 q 271 943 192 896 q 284 1080 288 1056 q 281 1110 281 1104 q 297 1126 282 1126 q 360 1086 346 1126 q 364 988 375 1046 l 360 971 q 453 926 407 965 q 499 833 499 886 q 467 747 499 779 q 394 714 436 714 q 326 758 351 714 q 300 567 303 592 q 464 356 464 453 q 401 180 464 258 q 247 67 339 101 q 208 -164 232 -164 q 189 -132 199 -164 m 351 364 q 286 439 351 390 q 268 275 281 399 q 351 364 351 319 m 138 229 q 178 236 147 229 q 193 372 181 271 q 133 316 164 353 q 103 253 103 279 q 138 229 103 229 m 244 783 q 190 732 214 763 q 167 685 167 701 q 169 661 167 668 q 178 648 171 654 q 189 638 185 642 q 205 628 193 635 q 222 618 217 622 q 244 783 228 663 z "},"%":{"ha":826,"x_min":49,"x_max":799,"o":"m 381 740 q 283 493 381 603 q 206 457 247 457 q 139 474 164 457 q 49 686 49 536 q 117 953 49 792 q 126 967 122 964 q 141 971 131 971 q 167 983 151 971 q 217 994 182 994 q 289 972 253 994 q 342 914 325 950 q 381 740 381 828 m 183 607 q 243 676 221 607 q 265 825 265 744 q 233 906 265 906 q 206 889 219 906 q 150 660 150 792 q 158 624 150 642 q 183 607 165 607 m 344 4 l 347 -35 q 338 -44 347 -44 q 279 15 307 -44 q 251 85 251 74 q 261 153 251 97 q 313 338 271 210 q 389 547 356 467 q 572 982 461 729 q 583 996 576 996 q 615 956 597 996 q 633 908 633 917 q 475 494 633 832 q 385 252 425 389 q 344 4 344 115 m 799 285 q 799 242 799 285 q 749 99 799 199 q 622 -1 699 -1 q 509 73 546 -1 q 472 221 472 147 q 481 336 472 294 q 515 439 490 378 q 542 456 522 456 q 632 543 586 543 q 712 517 678 543 q 764 450 746 492 q 799 285 799 372 m 685 347 q 653 454 685 454 q 600 355 621 454 q 579 199 579 256 q 601 142 579 142 q 658 210 632 142 q 685 347 685 279 z "},"&":{"ha":715,"x_min":28,"x_max":729,"o":"m 458 379 l 407 365 q 403 367 403 365 q 408 381 403 369 q 489 470 432 428 q 575 513 546 513 q 604 489 589 513 q 622 450 619 465 q 569 322 622 417 q 457 154 515 228 q 561 71 532 71 q 637 110 576 71 q 713 150 697 150 q 729 129 729 150 q 718 86 729 108 q 556 -25 674 -25 q 403 92 485 -25 q 176 -29 296 -29 q 108 1 139 -29 q 61 75 78 32 q 28 221 28 161 q 76 397 28 324 q 225 553 125 471 q 201 686 201 626 q 275 883 201 803 q 468 1001 349 963 q 517 1008 496 1008 q 572 975 539 1008 q 611 911 606 942 q 523 658 611 793 q 325 433 435 524 q 348 363 329 410 q 382 293 367 315 q 411 328 393 306 q 458 379 453 376 m 153 131 q 153 119 153 131 q 160 101 153 108 q 178 93 167 93 q 200 98 190 93 q 221 113 210 103 q 241 132 232 122 q 263 158 250 142 q 283 185 276 175 q 321 236 304 214 q 257 386 286 285 q 242 365 256 383 q 224 340 228 347 q 208 315 219 333 q 190 284 196 296 q 176 252 185 272 q 163 215 167 232 q 156 176 160 199 q 153 131 153 153 m 518 817 l 526 851 q 515 860 525 860 q 494 854 506 860 q 361 752 419 821 q 303 628 303 683 l 304 603 q 519 815 454 708 q 518 817 518 815 z "},"'":{"ha":186,"x_min":69,"x_max":199,"o":"m 143 617 q 108 631 135 617 q 75 656 81 644 q 69 733 69 668 q 81 932 69 799 q 130 964 82 964 q 188 942 178 964 q 199 847 199 921 q 183 695 199 774 q 143 617 167 617 z "},"(":{"ha":478,"x_min":103,"x_max":519,"o":"m 364 -310 q 345 -329 365 -317 q 313 -343 325 -342 q 161 -155 219 -321 q 103 213 103 11 q 183 623 103 415 q 411 1004 263 831 q 453 1044 424 1019 q 501 1068 483 1068 q 519 1050 519 1068 q 512 992 519 1032 q 490 938 504 951 q 256 185 256 693 q 364 -310 256 -78 z "},")":{"ha":478,"x_min":-36,"x_max":381,"o":"m 167 914 q 140 895 154 907 q 117 878 125 883 q 100 875 108 872 q 132 983 92 908 q 210 1069 172 1058 q 262 1051 238 1068 q 294 996 286 1033 q 381 499 381 838 q 299 95 381 306 q 81 -279 218 -115 q 34 -318 68 -293 q -16 -343 0 -343 q -36 -328 -32 -343 q -29 -249 -50 -269 q 165 100 103 -110 q 228 533 228 310 q 228 583 228 538 q 228 640 229 628 q 224 695 228 653 q 214 764 221 738 q 167 914 192 854 z "},"*":{"ha":407,"x_min":63,"x_max":428,"o":"m 281 675 l 282 638 q 261 558 282 585 q 214 531 240 531 q 193 540 203 531 q 183 574 183 550 q 185 617 183 599 q 189 653 186 636 l 192 681 q 151 654 169 665 l 122 636 q 93 626 106 626 q 79 647 85 626 q 74 680 74 667 q 77 702 74 693 q 147 758 81 711 q 63 844 63 826 q 76 871 63 863 q 116 879 90 879 q 200 846 142 879 l 200 915 q 242 992 200 992 q 269 973 263 992 q 278 913 276 954 l 276 842 q 308 869 289 851 q 370 908 353 908 q 399 888 388 908 q 410 854 410 868 q 329 776 410 835 q 369 749 354 760 q 410 728 399 728 l 421 732 q 428 705 428 732 q 409 660 428 678 q 359 643 390 643 q 281 675 328 643 z "},"+":{"ha":556,"x_min":42,"x_max":528,"o":"m 324 340 l 336 192 q 294 160 336 160 q 244 206 274 160 q 215 282 215 253 q 220 310 215 285 q 225 357 225 335 l 225 383 q 89 381 122 381 q 42 447 42 381 q 76 488 42 488 q 224 483 132 488 q 245 608 228 544 q 288 672 263 672 q 338 653 306 672 q 369 615 369 633 q 365 578 369 597 q 351 531 360 560 q 338 479 343 503 q 481 475 458 475 q 516 449 504 475 q 528 411 528 422 q 476 375 528 375 l 325 382 q 324 340 324 368 z "},",":{"ha":264,"x_min":49,"x_max":197,"o":"m 85 221 l 79 258 q 86 267 79 267 q 165 210 133 267 q 197 122 197 154 q 191 60 197 89 q 148 -60 185 31 q 91 -151 111 -151 q 60 -105 71 -151 q 49 -12 49 -58 q 58 80 49 35 q 72 153 67 125 q 85 221 85 203 z "},"-":{"ha":486,"x_min":54,"x_max":432,"o":"m 200 226 q 100 247 146 226 q 54 321 54 268 q 75 346 54 346 q 130 342 108 346 q 189 340 151 339 q 274 351 226 340 q 351 361 322 361 q 406 343 381 361 q 432 293 432 325 q 200 226 432 231 z "},".":{"ha":250,"x_min":49,"x_max":197,"o":"m 197 93 q 197 69 197 93 q 176 13 197 44 q 122 -19 156 -19 q 68 10 88 -19 q 49 84 49 39 q 68 163 49 129 q 119 196 88 196 q 174 169 151 196 q 197 93 197 142 z "},"/":{"ha":686,"x_min":0,"x_max":686,"o":"m 97 -154 q 82 -169 97 -169 q 24 -105 47 -169 q 0 -21 0 -40 q 11 25 0 -1 q 138 300 54 143 q 286 561 222 457 q 470 853 350 665 q 611 1075 590 1040 q 642 1110 632 1110 q 676 1053 660 1110 q 686 1014 686 1026 q 606 835 686 964 q 452 594 526 706 q 303 363 378 483 q 172 110 229 243 q 99 -136 115 -22 l 97 -154 z "},":":{"ha":321,"x_min":56,"x_max":251,"o":"m 204 93 q 204 69 204 93 q 183 13 204 44 q 128 -19 163 -19 q 75 10 94 -19 q 56 84 56 39 q 75 163 56 129 q 126 196 94 196 q 181 169 158 196 q 204 93 204 142 m 251 417 q 251 394 251 417 q 231 342 251 371 q 176 314 211 314 q 119 347 140 314 q 97 420 97 381 q 119 494 97 460 q 174 529 142 529 q 229 497 207 529 q 251 417 251 464 z "},";":{"ha":322,"x_min":56,"x_max":253,"o":"m 253 426 q 253 402 253 426 q 232 346 253 378 q 177 314 211 314 q 124 343 143 314 q 104 417 104 372 q 124 496 104 463 q 175 529 143 529 q 230 502 207 529 q 253 426 253 475 m 78 183 l 72 215 q 89 235 72 235 q 162 194 126 235 q 197 88 197 154 q 158 -58 197 36 q 98 -151 118 -151 q 67 -106 78 -151 q 56 -29 56 -61 q 60 55 56 3 q 71 140 64 107 q 78 183 78 174 z "},"<":{"ha":556,"x_min":56,"x_max":489,"o":"m 408 507 q 343 481 407 507 q 231 438 279 456 q 351 381 271 426 q 481 326 431 335 q 489 228 539 318 q 436 176 461 179 q 375 193 411 172 q 286 251 339 214 q 211 302 233 289 q 150 331 189 315 q 56 382 58 367 q 90 460 56 397 q 116 487 101 481 q 186 517 131 493 q 396 615 333 582 q 424 653 404 651 q 460 635 439 656 q 483 589 482 614 q 408 507 492 535 z "},"=":{"ha":556,"x_min":51,"x_max":522,"o":"m 328 579 l 411 581 q 507 488 507 581 q 486 465 507 465 l 233 469 q 96 460 113 469 q 89 457 90 457 q 61 488 71 457 q 51 537 51 518 q 61 572 51 556 q 88 588 71 588 q 328 579 201 579 m 264 281 l 117 278 q 79 303 90 278 q 68 354 68 329 q 104 396 68 396 q 231 392 192 396 q 298 388 271 389 q 369 386 325 388 q 438 384 414 385 q 481 383 463 383 q 510 353 499 383 q 522 308 522 322 q 471 272 522 272 l 264 281 z "},">":{"ha":556,"x_min":71,"x_max":526,"o":"m 146 357 q 226 385 150 358 q 351 429 303 413 q 230 485 301 442 q 124 543 158 529 q 88 576 90 557 q 103 622 86 594 q 145 652 119 649 q 207 635 171 656 q 296 576 243 614 q 371 526 349 539 q 432 497 393 513 q 526 446 524 461 q 492 368 526 431 q 468 342 481 347 q 333 287 456 336 q 158 210 211 238 q 131 172 150 174 q 107 189 121 171 q 71 275 74 232 q 146 357 63 329 z "},"?":{"ha":426,"x_min":33,"x_max":432,"o":"m 210 389 q 267 413 232 404 q 315 421 303 421 q 338 415 328 421 q 347 400 347 410 q 281 327 347 375 q 164 279 214 279 q 104 382 104 279 q 143 509 104 447 q 242 637 182 571 q 325 743 303 703 q 338 782 338 776 q 297 834 338 815 q 224 853 256 853 q 172 831 193 853 q 138 784 150 810 q 104 737 126 758 q 54 715 82 715 q 40 745 47 715 q 33 790 33 775 q 113 924 33 872 q 257 975 193 975 q 344 931 300 975 q 432 721 432 843 q 399 597 432 656 q 325 503 365 538 q 249 438 285 469 q 210 389 213 406 m 261 70 q 261 45 261 70 q 242 -6 261 21 q 190 -33 224 -33 q 134 1 156 -33 q 113 80 113 35 q 129 153 113 125 q 177 182 146 182 q 235 151 208 182 q 261 70 261 119 z "},"@":{"ha":810,"x_min":51,"x_max":782,"o":"m 564 572 l 563 556 q 551 466 560 524 q 540 371 543 408 l 540 368 q 553 339 540 339 q 664 732 664 444 q 525 851 664 851 q 324 781 411 851 q 194 606 236 711 q 153 383 153 501 q 210 124 153 214 q 290 74 240 74 q 388 96 315 74 q 471 128 460 118 l 488 142 q 501 38 524 158 q 422 -9 475 10 q 316 -28 369 -28 q 189 17 263 -28 q 95 147 139 46 q 51 354 51 249 q 85 563 51 460 q 181 752 119 667 q 339 890 242 838 q 552 943 436 943 q 725 871 668 943 q 782 617 782 799 q 700 311 782 435 q 583 222 653 239 q 509 275 540 222 q 469 379 478 328 q 459 359 469 378 q 444 331 449 340 q 427 302 439 321 q 407 272 415 283 q 388 249 399 261 q 338 224 365 224 q 285 263 311 224 q 269 297 276 274 q 249 338 261 319 q 236 390 236 357 q 249 447 236 422 q 432 682 336 619 q 461 692 443 692 q 494 680 479 692 q 513 664 510 668 q 519 653 517 660 q 522 643 521 646 q 526 618 526 624 q 564 572 564 606 m 486 622 q 317 344 351 501 q 486 622 424 438 z "},"A":{"ha":835,"x_min":-42,"x_max":835,"o":"m 450 415 q 518 876 518 722 l 518 913 q 530 948 518 936 q 555 962 542 960 q 608 964 568 964 q 691 935 647 964 q 735 856 735 906 q 722 735 735 846 q 706 450 710 624 q 781 491 753 469 q 819 513 810 513 q 835 484 835 513 q 792 412 835 456 q 706 340 749 368 q 708 243 706 310 q 720 246 713 246 q 735 242 728 246 q 749 232 743 238 q 764 216 756 226 q 776 200 772 206 q 788 184 781 194 q 796 172 794 174 q 821 113 821 135 q 813 64 821 92 q 769 -79 781 -18 q 736 -108 764 -108 q 694 -92 706 -108 q 676 -67 682 -76 q 665 -39 669 -57 q 657 -10 660 -21 q 651 22 654 0 q 646 81 647 51 l 644 103 q 631 306 639 169 q 519 290 594 293 q 474 106 497 190 q 399 -28 451 22 q 272 -78 347 -78 q 219 -71 250 -78 q -25 156 40 -22 q -42 236 -42 201 q 28 350 -42 319 q 321 418 178 418 l 450 415 m 625 429 q 614 801 619 551 q 580 610 603 738 q 546 418 557 482 q 625 429 599 424 m 418 289 l 329 289 q 58 265 160 289 q 1 224 1 254 q 39 163 1 200 q 136 105 76 125 q 236 85 196 85 q 303 99 276 85 q 347 128 331 113 q 378 178 363 143 q 418 289 397 221 z "},"B":{"ha":664,"x_min":-12,"x_max":643,"o":"m 57 797 q 42 790 57 797 q 18 783 26 783 q 4 787 10 783 q -4 799 -1 790 q -9 815 -7 807 q -12 834 -11 822 q -12 853 -12 846 l -12 890 q 1 925 -12 925 q 10 922 4 925 q 279 975 139 975 q 547 853 474 975 q 589 718 589 782 q 530 591 589 654 q 361 451 471 528 q 635 225 593 381 q 643 169 643 199 q 347 -54 643 6 q 257 -67 292 -67 q 196 -51 222 -67 q 169 -9 169 -35 q 186 50 169 17 q 182 165 182 96 q 199 354 182 233 q 176 365 185 356 q 167 390 167 375 q 172 431 167 404 q 178 467 176 457 q 219 543 185 519 q 242 822 238 776 q 133 817 178 822 q 57 797 88 811 m 464 757 q 416 799 464 776 q 260 822 368 822 q 303 742 303 799 l 303 731 q 296 644 296 678 q 297 597 296 610 q 464 757 464 724 m 514 144 q 543 185 543 161 q 522 236 543 210 q 322 351 465 308 q 297 357 306 357 q 279 353 288 357 q 254 140 256 219 q 298 194 265 169 q 351 219 331 219 q 372 213 372 219 q 341 192 372 203 q 291 162 310 182 q 272 102 272 142 q 310 63 272 63 q 514 144 379 63 z "},"C":{"ha":533,"x_min":42,"x_max":499,"o":"m 499 311 q 360 -15 499 131 q 279 -46 331 -46 q 142 -4 196 -46 q 42 301 42 72 q 103 621 42 453 q 258 928 164 789 q 279 944 272 944 q 295 940 286 944 q 315 931 304 936 q 329 924 325 925 l 329 965 q 321 994 321 982 q 332 1007 321 1007 q 356 1003 343 1007 q 478 803 478 961 q 432 618 478 713 q 410 593 419 593 q 389 615 403 593 q 332 853 344 707 q 301 838 311 853 q 268 757 292 822 q 181 272 181 521 q 211 38 181 135 q 367 248 301 122 q 465 506 433 374 q 499 311 499 396 z "},"D":{"ha":681,"x_min":14,"x_max":667,"o":"m 19 786 l 14 840 q 29 868 14 858 q 253 956 108 921 q 351 968 313 968 q 636 726 549 968 q 667 544 667 640 q 590 253 667 400 q 433 15 514 106 q 339 -32 389 -32 q 261 7 289 -32 q 233 106 233 46 q 256 242 233 167 q 325 336 278 317 q 318 269 318 304 q 342 182 318 233 q 400 131 367 131 q 454 169 433 131 q 540 524 540 325 q 417 829 540 760 q 347 849 381 849 q 275 829 314 849 q 286 678 286 769 q 255 388 286 588 q 224 85 224 189 l 224 40 q 207 -7 224 4 q 172 -18 190 -18 q 100 172 121 -18 q 86 275 92 249 q 99 276 90 276 q 157 240 124 276 l 157 276 q 186 676 156 386 q 188 717 188 688 q 182 779 188 747 q 143 750 172 774 q 47 694 75 694 q 18 743 18 694 l 19 786 z "},"E":{"ha":628,"x_min":-14,"x_max":628,"o":"m 201 615 q 394 568 201 568 l 418 568 q 465 589 456 589 q 524 551 489 589 q 560 463 560 513 q 542 446 560 446 q 490 454 536 446 q 438 439 476 450 q 386 424 400 428 q 340 408 372 419 q 294 390 308 397 q 253 368 279 382 q 211 339 228 354 q 139 258 158 288 q 103 155 103 208 q 128 74 103 101 q 210 47 153 47 q 348 76 268 47 q 428 158 428 104 q 419 194 428 176 q 392 211 411 211 q 278 155 374 211 q 178 99 183 99 q 172 110 172 99 q 182 139 172 122 q 288 247 222 207 q 424 288 353 288 q 544 246 494 288 q 593 151 593 204 q 565 61 593 97 q 243 -50 481 -50 q 25 64 96 -50 q -14 179 -14 124 q 21 315 -14 235 q 113 435 56 394 q 261 507 171 475 q 126 678 126 550 q 190 808 126 754 q 333 906 244 856 q 443 972 421 957 q 490 986 465 986 q 547 949 515 986 q 571 951 564 951 q 617 924 603 951 q 628 889 628 897 q 415 754 628 839 q 404 751 407 751 q 396 763 396 751 q 410 817 396 775 l 364 794 q 265 733 283 753 q 217 658 232 693 q 201 615 201 624 z "},"F":{"ha":696,"x_min":28,"x_max":765,"o":"m 558 581 q 754 660 743 660 q 765 642 765 660 q 729 571 765 625 q 539 418 663 467 q 415 69 507 242 q 278 -50 354 -50 q 185 -8 235 -50 q 138 53 150 22 q 108 135 119 96 q 96 220 96 174 q 124 316 96 267 q 199 403 151 365 q 392 515 282 471 l 449 538 q 451 645 451 564 q 435 808 451 726 q 371 869 425 869 q 326 858 346 869 q 301 813 307 847 q 163 506 264 629 q 91 454 121 454 q 40 493 61 454 q 34 526 36 504 q 30 560 32 547 q 28 583 28 572 q 117 747 28 653 q 178 837 150 783 q 206 947 206 890 l 204 982 q 214 1000 204 1000 q 292 935 226 1000 q 395 964 336 964 q 496 915 454 964 q 549 787 538 865 q 558 581 561 708 m 424 383 l 358 367 q 273 354 329 360 q 190 343 217 349 q 139 290 139 333 q 196 191 139 247 q 290 135 253 135 q 340 163 326 135 q 424 383 393 257 z "},"G":{"ha":615,"x_min":42,"x_max":632,"o":"m 344 383 l 321 382 q 256 403 281 382 q 231 439 231 425 q 249 462 231 453 q 367 517 267 471 q 508 582 468 563 q 566 601 547 601 q 608 581 585 601 q 632 542 632 561 q 625 512 632 524 q 603 490 618 500 q 578 473 589 479 q 548 458 568 467 q 524 446 528 449 q 493 415 493 432 l 497 403 q 533 268 533 335 q 463 61 533 168 q 294 -31 399 -31 q 167 -3 225 -31 q 85 81 108 24 q 42 311 42 189 q 54 454 42 400 q 73 538 67 508 q 97 615 79 567 q 122 683 115 663 q 153 759 129 704 q 183 826 178 814 q 249 967 222 914 q 302 999 263 999 q 386 984 342 999 q 451 947 431 969 q 490 866 490 906 q 440 747 490 826 q 425 681 425 725 q 404 661 422 661 q 385 668 393 661 q 374 683 376 675 q 369 704 372 690 q 364 722 365 718 q 350 850 350 761 q 339 868 350 868 q 281 749 328 868 q 171 278 171 476 q 188 104 171 171 q 224 75 194 75 q 286 118 253 75 q 379 346 379 239 q 344 383 379 383 z "},"H":{"ha":656,"x_min":-14,"x_max":676,"o":"m 86 413 l 133 400 q 240 424 158 400 q 289 625 256 494 q 342 849 342 826 q 328 871 342 871 q 278 863 311 871 q 246 840 246 854 q 267 807 246 831 q 289 774 289 783 q 288 763 289 765 q 94 561 179 625 q 67 550 81 550 q 24 592 36 550 q 10 625 21 601 q -14 705 -14 678 q 8 757 -14 732 q 250 958 106 854 q 296 972 267 972 q 361 960 325 972 q 426 888 397 949 q 454 792 454 826 q 443 702 454 758 q 390 463 432 646 l 458 478 q 550 936 485 706 q 553 952 553 944 q 546 972 553 960 q 539 991 539 985 q 547 997 539 997 q 564 990 554 997 q 621 918 621 953 q 617 885 621 901 q 558 499 579 713 q 582 500 567 500 q 637 485 597 500 q 676 449 676 471 q 667 432 676 440 q 621 392 657 424 q 572 357 585 361 q 546 349 560 353 q 538 223 538 257 q 549 128 538 189 q 560 49 560 68 q 551 6 560 31 q 525 -19 543 -19 q 496 -4 514 -19 q 433 124 433 54 q 444 317 433 194 q 350 288 401 306 q 314 94 314 131 l 328 0 q 314 -44 328 -22 q 283 -67 300 -67 q 254 -54 265 -67 q 230 -15 243 -42 q 217 13 217 11 q 190 101 190 61 q 206 249 190 142 q 143 276 161 254 q 101 342 125 299 q 76 399 76 386 q 86 413 76 413 z "},"I":{"ha":407,"x_min":28,"x_max":379,"o":"m 288 881 q 268 928 288 928 q 228 899 249 928 q 208 858 208 869 q 215 817 208 847 q 222 753 222 786 q 199 617 222 721 q 160 480 175 514 q 126 446 146 446 q 99 459 111 446 q 72 499 88 472 q 42 544 56 525 q 28 586 28 563 q 71 706 28 610 q 143 860 114 803 q 124 892 124 883 q 147 908 124 908 q 165 903 154 908 q 178 926 168 907 q 192 951 188 944 q 206 973 196 958 q 225 994 217 988 q 275 1011 251 1011 q 378 708 379 1011 q 378 696 378 700 q 303 -39 378 375 q 272 -69 296 -69 q 211 -36 246 -69 q 158 15 176 -3 q 93 86 110 64 q 72 131 72 110 q 88 183 72 151 q 122 214 104 214 q 158 185 140 214 q 186 156 175 156 q 201 177 197 156 q 208 238 204 199 q 253 528 219 319 q 288 838 288 736 l 288 881 z "},"J":{"ha":522,"x_min":-83,"x_max":731,"o":"m 478 986 l 640 988 q 703 970 675 988 q 731 925 731 953 q 622 844 731 869 q 517 833 567 832 q 418 835 467 835 q 363 665 363 753 q 383 526 363 618 q 422 303 422 365 q 417 209 422 242 q 404 149 411 176 q 383 90 397 122 q 296 8 357 25 q 174 -8 235 -8 q -42 50 60 -8 q -83 118 -83 74 q -79 164 -83 142 q -50 225 -72 217 q 171 269 60 269 q 282 251 282 269 q 244 222 282 239 q 194 197 207 204 q 139 156 163 182 q 165 161 149 157 q 222 168 201 168 q 346 378 346 176 q 326 550 346 436 q 307 724 307 664 q 322 838 307 785 q 115 850 221 842 q 35 907 39 856 q 32 964 32 946 q 57 993 32 993 l 478 986 z "},"K":{"ha":739,"x_min":0,"x_max":794,"o":"m 292 867 q 292 853 292 860 l 292 835 q 227 684 292 760 q 85 558 163 608 q 53 547 65 547 q 15 583 29 547 q 0 642 0 618 q 18 692 0 667 q 281 947 138 850 q 344 967 308 967 q 421 944 379 967 q 479 828 479 914 q 460 726 479 786 q 426 617 442 665 q 407 560 410 569 q 565 767 474 622 q 614 843 600 822 q 701 989 686 957 q 722 1024 701 1024 q 755 1006 736 1024 q 784 981 774 989 q 794 963 794 972 q 786 939 794 953 q 443 450 682 703 q 440 443 440 447 q 488 422 440 422 q 594 318 556 404 q 623 251 600 307 q 660 165 646 194 q 694 132 674 132 q 714 139 703 132 q 729 146 725 146 q 750 94 750 146 q 743 23 750 42 q 701 -22 736 4 q 642 -49 665 -49 q 579 -1 619 -49 q 499 167 539 47 q 446 313 458 286 q 409 349 431 349 q 373 324 388 349 q 336 301 358 300 q 315 145 315 204 q 319 61 315 86 q 324 22 324 36 q 304 -10 324 8 q 266 -28 285 -28 q 219 3 247 -28 q 200 35 201 21 q 194 104 197 61 q 192 179 192 147 q 216 393 192 286 q 285 635 240 500 q 350 860 350 832 q 325 888 350 888 q 292 867 294 888 z "},"L":{"ha":550,"x_min":-83,"x_max":535,"o":"m 319 933 l 314 968 q 318 974 314 974 q 343 960 322 974 q 392 928 364 946 q 429 872 421 910 q 438 762 438 835 q 394 635 438 689 q 371 615 379 615 q 351 647 354 615 q 333 679 347 679 q 322 658 324 679 q 318 535 318 625 q 238 149 307 297 q 310 142 276 142 q 504 214 442 142 q 526 231 517 231 q 535 206 535 231 q 521 75 535 135 q 406 -12 500 -12 q 181 56 311 -12 q 90 -11 132 -11 q -18 55 47 -11 q -83 161 -83 121 q -59 196 -83 183 q -7 208 -35 208 q 115 178 21 208 q 172 374 161 264 q 214 694 183 483 q 250 947 244 904 q 268 989 256 989 q 319 925 281 989 l 319 933 m 71 115 l 46 126 q 42 112 42 126 q 53 97 42 97 q 71 115 58 97 z "},"M":{"ha":993,"x_min":14,"x_max":993,"o":"m 986 447 q 993 432 993 447 q 992 401 993 417 q 860 15 969 138 q 742 -28 824 -25 q 642 149 642 8 q 647 212 642 174 q 740 750 653 250 q 583 147 618 503 q 576 85 579 106 q 539 40 571 40 q 447 106 496 40 q 431 161 431 128 q 433 235 431 194 q 440 324 435 275 q 449 401 446 372 q 462 490 451 431 q 475 567 472 550 q 491 656 478 585 q 506 735 504 726 q 469 672 485 714 q 443 605 453 631 q 424 543 433 579 q 407 481 414 507 q 391 417 400 454 q 378 360 382 379 q 346 225 368 324 q 317 101 324 126 q 308 59 311 75 q 302 37 304 43 q 294 19 300 31 q 259 0 283 0 q 217 17 235 0 q 194 48 200 35 q 180 85 189 61 q 171 124 171 110 q 179 172 171 138 q 199 258 188 207 q 215 324 211 310 q 228 386 218 339 q 243 453 239 433 q 256 515 247 472 q 268 581 264 557 q 279 644 272 606 q 290 711 286 682 q 307 839 304 803 l 307 849 q 296 874 307 874 q 260 835 285 874 q 225 775 235 796 q 211 718 215 754 q 111 404 192 525 q 81 390 101 390 q 37 413 60 390 q 14 458 14 435 q 110 786 14 600 q 171 996 147 857 q 217 922 208 940 q 238 904 226 904 q 263 921 243 904 q 320 938 282 938 q 382 918 358 938 q 412 874 406 899 q 421 799 418 849 q 450 825 429 806 q 528 864 494 864 q 590 827 563 864 q 614 751 617 790 q 675 847 631 771 q 760 897 707 897 q 847 818 847 897 q 814 618 847 782 q 765 348 781 454 q 750 147 750 242 l 750 121 q 840 219 796 160 q 904 313 883 278 q 969 428 925 349 q 986 447 982 447 z "},"N":{"ha":835,"x_min":14,"x_max":821,"o":"m 428 31 l 431 6 q 408 -45 431 -24 q 354 -67 385 -67 q 291 -26 324 -67 q 258 44 258 15 q 276 115 258 79 q 286 213 278 125 q 330 508 294 300 q 375 790 365 715 l 375 804 q 351 838 375 838 q 301 813 326 838 q 304 790 304 807 q 267 684 304 774 q 160 413 229 594 q 104 363 139 363 q 42 404 69 363 q 14 476 14 446 q 24 532 14 506 q 103 698 58 615 q 173 829 147 781 q 212 900 199 878 q 239 922 225 922 q 264 919 253 922 q 335 951 290 951 q 424 924 379 951 q 469 785 469 896 q 463 673 469 746 q 454 581 456 600 q 654 982 567 901 q 697 997 669 997 q 776 973 760 997 q 792 884 792 949 q 779 744 792 819 q 740 555 767 669 q 706 403 714 440 q 699 332 699 367 q 703 297 699 297 q 759 372 714 297 q 813 446 804 446 q 821 419 821 446 q 799 222 821 326 q 738 64 778 118 q 667 10 699 10 q 632 26 653 10 q 607 46 611 42 q 561 192 561 96 q 647 694 561 276 q 683 879 674 828 q 522 509 579 704 q 432 65 464 314 l 428 31 z "},"O":{"ha":593,"x_min":42,"x_max":593,"o":"m 593 553 q 510 363 593 440 q 378 40 456 160 q 271 -28 332 -28 q 196 -3 239 -28 q 61 161 81 68 q 42 356 42 254 q 175 897 42 619 q 210 929 192 929 q 275 904 213 929 q 417 985 310 985 q 499 964 472 985 q 558 725 558 917 q 549 576 558 661 l 582 643 q 593 553 593 596 m 446 825 q 435 871 446 849 q 407 893 425 893 q 376 878 389 893 q 346 835 363 863 q 267 525 267 707 q 292 430 267 479 q 360 381 318 381 q 378 383 367 381 q 446 825 446 588 m 353 317 q 274 356 310 328 q 221 424 238 385 q 190 567 190 504 q 199 671 190 629 q 139 392 139 547 q 174 124 139 238 q 213 82 186 82 q 246 107 231 82 q 353 317 306 190 z "},"P":{"ha":578,"x_min":-14,"x_max":592,"o":"m 111 199 l 107 335 q 174 821 107 599 q 128 778 146 801 q 37 718 82 718 q -8 778 -8 718 q 56 907 -8 872 q 185 965 111 939 q 314 990 260 990 q 514 894 436 990 q 592 675 592 799 q 565 517 592 599 q 406 351 524 392 q 288 329 342 329 q 206 356 233 329 l 206 296 q 218 79 206 188 l 219 58 q 176 -10 219 13 q 121 -26 146 -26 q 68 19 96 -26 q -10 229 22 93 q -14 259 -14 247 q -3 271 -14 271 q 51 222 7 271 q 103 174 94 174 q 111 199 111 174 m 518 722 q 463 842 518 803 q 321 881 407 881 q 238 860 269 881 q 244 810 244 829 q 242 765 244 792 q 232 676 239 739 q 222 582 225 614 q 339 626 260 626 q 360 620 360 626 q 346 614 360 614 q 251 557 251 614 q 303 490 251 490 q 329 493 313 490 q 518 722 518 533 z "},"Q":{"ha":581,"x_min":42,"x_max":553,"o":"m 533 82 q 553 34 553 82 q 525 -43 553 -14 q 451 -72 497 -72 q 321 -8 382 -72 q 253 -46 290 -46 q 172 -12 215 -46 q 156 -1 169 -10 q 136 13 142 8 q 121 25 131 17 q 94 60 103 40 q 42 322 42 167 q 142 818 42 540 q 160 842 151 842 q 181 829 168 842 q 201 872 185 838 q 227 922 218 906 q 255 965 236 938 q 290 1007 274 993 q 372 1043 333 1043 q 439 1028 411 1043 q 524 926 507 989 q 546 690 546 833 q 501 369 546 546 q 372 61 456 193 q 444 21 415 21 q 497 51 472 21 q 533 82 521 82 m 431 846 q 416 918 431 882 q 374 954 401 954 q 325 928 346 954 q 192 508 192 768 q 194 428 192 456 q 214 363 197 400 q 265 304 231 325 q 272 296 272 300 q 258 283 272 283 q 233 288 244 283 q 146 390 181 310 q 139 293 139 338 q 215 51 139 104 q 258 118 239 81 q 250 174 250 157 q 253 190 250 190 q 279 161 257 190 q 386 499 342 299 q 431 846 431 699 z "},"R":{"ha":639,"x_min":-14,"x_max":639,"o":"m 11 940 l 44 935 q 88 943 60 935 q 322 990 238 990 q 474 965 406 990 q 590 883 542 939 q 639 764 639 828 q 613 649 639 700 q 542 558 588 599 q 354 438 461 490 q 446 267 446 389 l 444 207 q 494 111 444 111 q 600 156 546 111 q 622 169 618 169 q 633 153 633 169 q 572 24 633 104 q 490 -19 536 -19 q 387 49 428 -19 q 346 183 346 117 l 349 257 q 319 375 349 350 q 279 400 304 388 l 235 379 q 217 163 217 244 l 218 42 q 189 -10 218 -10 q 156 3 178 -10 q 36 203 67 58 q 35 214 35 210 q 55 226 35 226 q 90 215 75 226 q 111 191 104 203 q 122 179 118 179 q 135 203 135 179 l 129 268 q 164 714 133 483 q 178 792 174 775 q 182 816 182 808 q 181 828 182 824 q 105 791 126 813 q 67 769 83 769 q 42 772 51 769 q 26 784 33 775 q 14 797 18 793 q -14 868 -14 838 q 11 940 -14 940 m 528 786 q 466 837 528 821 q 358 853 404 853 q 276 847 311 853 q 272 752 272 831 q 256 533 272 674 q 519 758 422 596 q 528 786 528 775 z "},"S":{"ha":582,"x_min":-35,"x_max":617,"o":"m 556 958 q 617 872 617 886 q 603 842 617 858 q 450 693 538 768 q 421 676 431 676 q 407 698 407 676 q 426 756 407 719 q 444 797 444 792 q 440 803 444 803 q 426 800 435 803 q 204 621 267 743 q 190 575 190 593 q 246 507 190 539 q 321 467 254 501 q 490 350 456 394 q 546 214 546 281 q 531 159 546 188 q 494 117 517 131 q 76 -29 260 -29 q -21 60 -21 -29 q -1 115 -21 89 q -35 166 -35 139 q 3 221 -35 193 q 289 288 92 288 q 339 273 310 288 q 386 242 368 258 q 421 276 421 261 q 403 307 421 292 q 305 358 376 326 q 214 401 233 390 q 124 497 156 435 q 93 630 93 560 q 128 758 93 700 q 228 858 164 815 q 471 978 325 924 q 501 983 490 983 q 556 958 533 983 m 292 189 q 260 192 278 192 q 190 175 242 192 q 138 138 138 158 q 147 129 138 129 q 292 189 185 129 z "},"T":{"ha":529,"x_min":-83,"x_max":765,"o":"m 244 183 l 240 293 q 324 786 240 554 q 251 793 264 793 q 160 772 196 793 q 89 721 125 750 q -21 676 36 676 q -57 687 -44 676 q -72 708 -69 697 q -76 742 -75 719 q -81 776 -78 764 q -83 801 -83 789 q -62 832 -83 814 q 294 938 57 938 q 386 933 340 938 l 397 958 q 415 932 404 949 l 442 932 q 728 985 572 932 q 743 988 739 988 q 765 964 765 988 q 740 915 765 940 q 411 782 617 779 q 364 453 376 647 q 349 232 351 258 q 346 186 346 206 q 358 110 346 167 q 371 44 371 53 q 329 4 371 4 q 196 146 265 4 q 182 194 182 171 q 193 217 182 217 q 220 194 204 217 q 240 172 236 172 q 244 183 244 172 z "},"U":{"ha":782,"x_min":0,"x_max":782,"o":"m 675 900 q 597 408 597 663 q 636 154 597 154 q 651 161 644 154 q 740 350 732 244 q 747 378 740 378 q 768 355 754 378 q 782 272 782 332 q 734 118 782 213 q 626 24 686 24 q 565 50 593 24 q 528 119 538 76 q 510 217 518 161 q 496 343 503 274 q 483 450 489 413 q 447 299 474 413 q 406 129 421 185 q 288 1 368 1 q 219 24 249 1 q 183 85 190 47 q 167 272 167 163 q 192 497 167 381 q 245 699 218 614 q 272 800 272 785 q 265 815 272 815 q 243 799 258 815 q 208 751 228 782 q 177 698 188 719 q 147 632 167 676 q 119 571 128 588 q 69 531 100 531 q 19 568 38 531 q 0 638 0 606 q 24 696 0 669 q 208 964 113 796 l 228 949 q 267 958 260 958 q 285 955 275 958 q 319 944 294 951 q 353 934 344 938 q 379 922 363 931 q 401 903 396 913 q 418 833 418 871 q 410 762 418 796 q 346 528 401 728 q 278 221 290 329 l 278 208 q 286 185 278 185 q 303 207 294 185 q 524 818 406 457 q 532 860 532 846 l 522 901 q 538 925 522 917 q 599 957 560 940 q 661 974 639 974 q 683 951 683 974 q 675 900 683 928 z "},"V":{"ha":665,"x_min":0,"x_max":651,"o":"m 332 261 q 356 132 332 132 q 381 154 365 132 q 432 254 403 192 q 557 803 557 519 q 551 926 557 872 q 546 985 546 979 q 585 1036 546 1036 q 622 992 610 1036 q 651 742 651 881 q 454 57 651 403 q 360 -14 413 -14 q 299 14 329 -14 q 211 258 211 94 q 331 819 211 519 q 336 842 336 833 q 319 863 336 863 q 296 852 311 863 q 272 828 281 842 q 253 797 263 815 q 238 771 243 779 q 113 636 158 663 q 70 625 92 625 q 24 650 49 625 q 0 694 0 675 q 8 736 0 714 q 243 961 60 849 q 324 982 276 982 q 408 942 371 982 q 446 844 446 903 q 439 788 446 811 q 420 725 432 765 q 405 672 408 685 q 391 623 401 660 q 377 571 381 586 q 365 522 374 556 q 353 469 357 489 q 345 419 350 450 q 339 367 340 389 q 332 261 332 297 z "},"W":{"ha":849,"x_min":0,"x_max":814,"o":"m 701 975 q 814 540 814 772 q 686 90 814 308 q 561 14 642 14 q 440 115 474 14 q 416 216 425 161 q 404 285 407 271 q 365 192 393 263 q 317 86 336 122 q 233 28 288 28 q 161 58 193 28 q 128 167 135 86 q 124 215 126 193 q 122 257 122 238 q 126 304 122 276 q 135 357 131 332 q 151 417 140 382 q 171 476 163 451 q 195 539 179 500 q 219 598 211 578 q 247 658 228 618 q 272 714 265 699 q 318 813 290 757 q 125 681 228 717 q 66 671 96 671 q 18 694 36 671 q 0 761 0 718 q 53 854 0 804 q 174 933 107 904 q 294 963 240 963 q 394 928 347 963 q 440 836 440 893 q 424 772 440 815 q 363 617 408 729 q 229 225 263 368 q 226 203 226 214 q 236 193 226 193 q 403 569 278 193 q 393 594 393 582 q 426 613 393 613 q 518 610 494 613 q 542 594 542 607 q 532 575 542 582 q 517 357 517 413 q 528 214 517 301 q 563 126 539 126 q 604 178 583 126 q 697 578 697 382 q 594 942 697 775 q 579 985 579 964 q 628 1018 579 1018 q 701 975 676 1018 m 229 896 q 90 835 136 881 q 75 807 75 819 q 92 794 75 794 q 229 896 138 794 z "},"X":{"ha":657,"x_min":0,"x_max":657,"o":"m 633 940 q 657 890 657 919 q 632 788 657 860 q 585 715 607 715 q 560 825 568 715 q 403 546 478 704 q 425 243 403 331 q 488 111 446 165 q 592 249 528 138 q 615 274 607 274 q 633 198 633 274 q 589 33 633 122 q 515 -14 565 -14 q 468 -5 503 -14 q 399 38 433 4 q 344 119 365 71 q 299 306 313 197 q 201 72 232 142 q 142 1 171 1 q 101 15 126 1 q 46 78 60 38 q 32 181 32 119 q 47 201 32 201 q 83 181 61 201 l 104 158 q 117 176 111 158 q 281 528 251 471 q 272 721 281 628 q 231 874 257 874 q 208 848 222 874 q 165 757 194 822 q 115 655 135 692 q 69 618 94 618 q 22 644 43 618 q 0 703 0 671 q 42 817 0 735 q 115 935 85 900 q 125 1003 119 960 q 143 960 135 997 q 210 983 175 983 q 281 969 246 983 q 394 822 389 929 q 397 746 397 772 q 538 971 479 886 q 570 997 557 997 q 594 987 583 997 q 617 960 606 976 q 633 940 628 944 z "},"Y":{"ha":718,"x_min":0,"x_max":815,"o":"m 725 1010 q 815 979 815 1010 q 803 944 815 967 q 588 278 632 646 q 572 111 572 158 q 589 88 572 88 q 599 101 594 88 q 607 115 603 115 q 634 84 617 115 q 651 38 651 53 q 586 -146 651 -3 q 535 -200 563 -200 q 518 -194 529 -200 q 460 -8 460 -160 q 501 403 460 144 q 463 349 490 389 q 416 287 435 310 q 368 236 397 264 q 249 179 311 179 q 144 224 186 179 q 106 291 132 238 q 81 406 81 344 q 109 536 81 468 q 167 656 138 604 q 217 742 196 708 q 338 918 256 799 q 346 940 346 932 q 313 960 346 960 q 253 947 281 960 q 221 929 225 935 q 214 910 217 924 l 215 892 q 191 835 215 860 q 139 791 167 811 q 76 771 111 771 q 28 777 42 771 q 8 797 15 783 q 0 858 0 817 q 32 922 0 900 q 71 948 36 925 q 116 978 106 971 q 158 1002 126 985 q 207 1025 189 1019 q 313 1046 265 1046 q 404 1010 361 1046 q 447 917 447 975 q 423 824 447 879 q 327 663 399 769 q 235 522 256 557 q 181 369 181 424 q 206 315 181 315 q 274 355 229 315 q 342 421 318 394 q 398 493 365 447 q 445 563 431 539 q 492 639 460 586 q 542 721 524 692 q 665 939 618 850 q 663 963 663 953 q 725 1010 663 1010 z "},"Z":{"ha":606,"x_min":14,"x_max":647,"o":"m 406 932 l 446 933 q 639 813 592 933 q 647 765 647 789 q 589 640 647 700 q 422 486 531 579 q 268 350 313 393 q 164 186 164 250 q 215 147 164 147 q 543 185 318 147 l 556 186 q 574 168 574 186 q 565 128 574 150 q 294 8 529 8 q 163 28 214 8 q 83 111 111 47 q 67 188 67 147 q 135 350 67 268 q 332 567 204 432 q 496 745 460 703 q 532 799 532 788 q 433 822 532 822 q 285 814 382 822 q 81 767 206 767 q 30 777 46 767 q 14 826 14 788 q 24 890 14 865 q 77 934 35 915 q 213 986 119 953 q 326 1019 307 1019 q 353 1009 346 1019 q 369 975 361 999 l 379 951 q 406 932 388 932 z "},"[":{"ha":486,"x_min":63,"x_max":539,"o":"m 460 1064 l 494 1067 q 528 1038 517 1067 q 539 993 539 1010 q 492 952 535 967 q 408 938 449 938 q 303 947 367 938 q 214 31 296 521 q 185 -151 192 -104 q 193 -168 183 -168 l 369 -161 q 416 -177 396 -161 q 432 -228 436 -193 q 192 -299 424 -299 q 92 -231 129 -299 q 63 -101 54 -164 q 193 843 71 -39 q 208 1040 201 904 q 226 1063 210 1053 q 260 1075 243 1072 l 460 1064 z "},"\\":{"ha":754,"x_min":0,"x_max":754,"o":"m 4 1072 q 0 1089 0 1081 q 15 1097 0 1097 q 78 1064 31 1097 q 151 999 126 1031 q 446 553 318 778 q 715 35 574 328 q 754 -78 754 -44 q 740 -140 754 -111 q 717 -169 725 -169 q 685 -144 697 -169 q 656 -76 681 -136 q 540 181 569 122 q 92 953 353 567 q 4 1072 29 1019 z "},"]":{"ha":486,"x_min":-50,"x_max":419,"o":"m 56 1093 l 285 1086 q 382 1012 339 1086 q 419 889 425 938 q 378 472 407 767 q 294 -269 318 -111 q 143 -310 285 -307 q -11 -289 79 -311 q -50 -222 -57 -278 q -18 -162 -43 -165 q 83 -172 11 -162 q 204 -181 154 -181 q 258 628 204 194 q 294 928 286 843 q 285 963 296 956 q 236 969 275 969 q 158 964 197 969 q 94 958 119 958 q 47 1006 63 958 q 56 1093 17 1093 z "},"^":{"ha":694,"x_min":135,"x_max":611,"o":"m 467 619 q 403 833 449 713 q 327 707 388 794 q 253 569 267 619 q 223 542 246 542 q 167 572 200 542 q 135 627 135 601 q 159 686 135 653 q 226 769 183 719 q 285 838 269 818 q 319 894 300 858 q 381 983 367 983 q 454 942 392 983 q 477 914 471 929 q 501 839 483 899 q 576 621 542 707 q 611 589 611 608 q 588 555 611 574 q 540 536 565 536 q 467 619 488 536 z "},"_":{"ha":724,"x_min":0,"x_max":724,"o":"m 207 -267 q 0 -185 0 -267 q 36 -156 0 -156 q 122 -159 89 -156 q 236 -162 156 -162 q 611 -160 293 -160 q 690 -176 657 -160 q 724 -219 724 -192 q 578 -261 724 -253 q 335 -267 447 -267 q 207 -267 335 -267 z "},"`":{"ha":556,"x_min":139,"x_max":406,"o":"m 301 726 q 286 747 297 731 q 258 785 275 764 q 207 840 242 807 q 156 890 172 874 q 139 915 139 906 q 168 946 139 929 q 215 963 197 963 q 239 961 233 963 q 251 955 244 960 q 261 946 257 950 q 272 931 265 942 q 285 910 279 919 q 303 881 292 900 q 321 852 315 861 q 353 804 326 843 q 406 706 406 724 q 389 688 406 688 q 358 691 372 688 q 335 698 344 694 q 317 711 326 701 l 301 726 z "},"a":{"ha":581,"x_min":14,"x_max":588,"o":"m 329 183 q 156 -21 215 -21 q 78 32 113 -21 q 57 76 68 46 q 30 131 46 106 q 14 198 14 156 q 31 274 14 240 q 271 582 144 499 q 310 594 288 594 q 365 569 332 594 q 389 536 385 550 q 396 499 396 506 q 444 438 444 482 q 428 299 444 407 q 408 139 411 192 q 428 110 408 110 q 508 188 450 110 q 574 265 565 265 q 588 219 588 265 l 585 151 q 550 45 585 113 q 461 -22 515 -22 q 408 0 428 -22 q 388 28 401 7 q 329 183 344 90 m 342 504 q 119 139 167 344 q 342 504 260 260 z "},"b":{"ha":461,"x_min":14,"x_max":436,"o":"m 175 157 l 215 150 q 282 196 263 150 q 314 291 294 224 q 333 379 333 358 q 303 418 333 418 q 293 417 299 418 q 186 342 215 399 q 144 172 144 264 q 155 76 144 128 q 165 11 165 25 q 133 -44 165 -44 q 50 94 99 -44 q 22 172 29 154 q 14 213 14 190 q 68 356 14 256 q 171 1013 96 718 q 192 1040 179 1040 q 215 1017 207 1040 q 222 978 222 993 q 209 853 222 964 q 181 508 196 743 q 310 575 254 575 q 370 548 344 575 q 410 481 396 521 q 436 331 436 401 q 310 -21 436 149 q 258 -54 285 -54 q 192 19 224 -54 q 160 136 160 93 q 175 157 160 157 z "},"c":{"ha":385,"x_min":21,"x_max":374,"o":"m 374 225 q 317 53 374 136 q 172 -31 260 -31 q 62 53 103 -31 q 21 231 21 138 q 72 436 21 325 q 204 614 122 547 q 250 631 222 631 q 315 599 278 631 q 335 524 335 581 q 301 346 335 467 q 279 315 293 315 q 239 464 253 315 q 236 493 238 488 q 130 323 168 418 q 92 139 92 228 q 122 93 92 93 q 289 188 175 93 q 319 215 310 206 q 349 241 329 224 q 371 261 368 258 q 374 225 374 249 z "},"d":{"ha":533,"x_min":21,"x_max":540,"o":"m 531 197 l 535 125 q 494 49 535 49 q 439 82 463 49 q 403 142 415 115 q 378 194 390 169 q 356 251 365 218 q 347 222 354 247 l 336 185 q 310 103 319 124 q 291 59 301 83 q 269 20 281 35 q 246 -8 258 6 q 185 -37 221 -37 q 117 3 150 -37 q 33 169 60 69 q 21 265 21 211 q 54 385 21 319 q 154 531 88 451 q 278 610 221 610 q 347 581 308 610 q 375 793 356 656 q 399 973 394 931 q 428 1015 403 1015 q 466 988 454 1015 q 478 935 478 961 q 474 886 478 908 q 435 240 435 489 q 456 203 435 203 q 501 235 476 203 q 533 268 525 268 q 540 257 540 268 l 531 197 m 311 463 q 295 479 311 479 q 257 465 279 479 q 138 340 185 425 q 92 171 92 256 q 124 119 92 119 q 151 135 136 119 q 306 438 229 217 q 311 463 311 451 z "},"e":{"ha":468,"x_min":14,"x_max":440,"o":"m 440 183 q 226 -28 440 -28 q 97 18 138 -28 q 25 158 56 64 q 14 235 14 194 q 51 345 14 276 q 132 465 88 414 q 167 542 138 542 q 188 524 182 542 q 258 575 217 550 q 333 600 300 600 q 402 561 367 600 q 438 481 438 522 q 381 369 438 440 q 213 236 274 236 q 143 310 168 236 q 130 287 142 307 q 113 257 118 267 q 100 231 108 247 q 86 174 86 199 q 143 117 86 117 q 303 156 238 117 q 435 276 369 196 q 440 183 440 215 m 214 351 q 280 406 236 351 q 324 480 324 460 q 309 500 324 500 q 259 464 294 500 q 203 401 224 428 q 200 376 200 385 q 214 351 200 351 z "},"f":{"ha":510,"x_min":14,"x_max":524,"o":"m 78 604 l 74 564 q 86 542 74 542 q 99 549 92 542 q 203 724 147 597 q 315 956 258 850 q 357 988 331 988 q 398 968 383 988 q 413 924 413 949 q 399 882 413 900 q 224 463 314 754 q 350 546 283 485 q 408 568 376 568 q 481 542 439 568 q 524 485 524 517 q 469 415 524 454 q 364 353 414 376 q 451 201 424 274 q 478 38 478 129 q 289 -490 478 -204 q 245 -526 269 -518 q 188 -535 221 -535 q 144 -526 156 -535 q 122 -501 132 -518 q 91 -454 111 -485 q 61 -406 71 -424 q 14 -178 14 -312 q 28 44 14 -64 q 69 329 47 181 q 49 381 49 354 q 71 424 49 408 q 33 522 38 499 q 28 567 28 544 q 54 642 28 642 q 71 628 64 642 q 78 604 78 615 m 181 -394 q 317 -156 264 -306 q 371 128 371 -6 q 267 317 371 263 q 179 300 222 306 q 117 -311 117 28 q 151 -414 117 -414 q 181 -394 164 -414 z "},"g":{"ha":482,"x_min":14,"x_max":454,"o":"m 186 -214 l 189 -199 q 197 -184 189 -187 q 211 -177 206 -181 q 225 -167 217 -174 q 258 -153 244 -153 q 280 -157 271 -153 q 292 -161 289 -161 q 307 -104 307 -161 q 333 214 314 31 q 228 78 293 150 q 124 7 163 7 q 60 42 85 7 q 14 192 14 107 q 146 464 14 317 q 215 535 192 514 q 286 602 238 557 q 374 647 335 647 q 433 619 413 647 q 454 556 454 592 q 438 460 454 521 q 449 440 449 453 q 446 413 449 426 q 376 -101 383 21 q 368 -294 368 -224 l 369 -368 q 360 -398 369 -386 q 335 -410 350 -410 q 284 -383 319 -410 q 217 -356 249 -356 l 185 -358 q 168 -343 168 -358 l 186 -214 m 351 446 q 358 478 358 463 q 347 493 358 493 q 338 490 343 493 q 193 383 256 450 q 100 235 131 317 q 94 206 94 218 q 115 178 94 178 q 140 186 126 178 q 261 300 204 229 q 351 446 318 371 z "},"h":{"ha":482,"x_min":28,"x_max":472,"o":"m 472 194 q 432 26 472 85 q 379 -12 401 -12 q 335 10 357 -12 q 257 226 257 100 q 267 313 257 268 q 283 411 283 389 q 281 433 283 433 q 171 51 272 433 q 144 13 158 13 q 56 142 107 13 q 28 289 28 203 q 40 453 28 386 q 54 535 51 519 q 65 587 57 551 q 75 633 72 622 q 97 732 92 703 q 63 753 63 732 q 71 774 63 763 q 179 988 147 894 q 201 1011 185 1011 q 235 968 224 1011 q 246 893 246 925 q 193 764 246 813 q 131 357 131 376 q 136 338 131 338 q 156 363 142 338 q 203 462 171 389 q 256 569 235 535 q 333 621 286 621 q 408 481 408 621 q 356 193 408 367 q 354 182 354 188 q 369 167 354 167 q 420 207 383 167 q 465 247 457 247 q 472 194 472 247 z "},"i":{"ha":333,"x_min":19,"x_max":333,"o":"m 285 956 q 246 828 285 910 q 172 711 207 747 q 156 703 167 703 q 121 758 121 703 q 169 914 121 814 q 182 957 179 935 q 185 983 185 979 q 187 988 186 986 q 188 994 188 990 q 190 999 189 997 q 192 1003 190 1001 q 194 1007 193 1006 q 217 1010 199 1010 q 260 994 235 1010 q 285 956 285 979 m 299 339 q 320 363 314 363 q 330 328 326 363 q 333 235 333 293 q 306 112 333 178 q 228 6 279 46 q 174 -17 199 -17 q 134 -6 150 -17 q 106 28 118 4 q 65 114 85 61 q 44 228 44 167 q 54 351 44 289 q 64 435 64 414 q 42 491 64 457 q 19 532 19 525 q 24 547 19 539 q 37 562 29 554 q 52 575 44 569 q 69 589 60 581 q 128 615 101 615 q 174 597 154 615 q 194 535 194 579 q 172 367 193 490 q 146 185 146 208 q 158 161 146 161 q 299 339 186 161 z "},"j":{"ha":256,"x_min":-333,"x_max":275,"o":"m 205 978 q 218 978 205 978 q 253 952 232 978 q 275 894 275 926 q 253 803 275 863 q 207 743 232 743 q 175 790 188 743 q 163 867 163 836 q 174 956 163 897 q 205 978 178 978 m 213 106 q 226 90 226 106 q 221 53 226 75 q 207 6 215 32 q 196 -31 199 -21 q 128 -103 183 -82 q -6 -531 74 -361 q -101 -601 -37 -601 q -183 -561 -147 -601 q -322 -290 -262 -478 q -333 -230 -333 -254 q -317 -187 -333 -206 q 56 49 -197 -57 q 139 621 115 297 q 158 650 142 650 q 201 623 183 650 q 218 572 218 596 q 217 536 218 547 q 163 90 193 276 q 213 106 208 106 m 4 -142 q -142 -225 -57 -165 q -226 -314 -226 -285 q -190 -354 -226 -333 q -129 -375 -153 -375 q -86 -344 -106 -375 q 4 -142 -36 -269 z "},"k":{"ha":475,"x_min":26,"x_max":461,"o":"m 419 122 q 444 74 447 122 q 447 50 444 58 q 450 35 450 42 q 420 1 450 13 q 354 -10 390 -10 q 278 33 318 -10 q 138 225 239 75 l 138 190 q 144 88 138 122 q 150 44 150 53 q 97 -1 150 -1 q 59 20 69 -1 q 38 88 49 42 q 26 153 26 133 q 33 209 26 172 q 41 267 39 246 q 47 340 43 289 q 133 1043 67 646 q 128 1083 128 1065 q 142 1100 128 1100 q 172 1081 156 1100 q 210 1011 196 1057 q 224 938 224 965 q 217 870 224 910 q 197 753 211 831 q 156 490 167 582 q 175 509 158 493 q 196 529 192 525 q 215 547 200 533 q 238 564 231 560 q 260 577 246 568 q 286 589 275 586 q 339 599 313 599 q 431 554 400 599 q 461 444 461 510 q 449 377 461 400 q 429 342 436 354 q 406 317 422 331 l 381 296 q 311 256 363 281 q 252 226 260 231 q 244 216 244 221 q 251 204 244 211 q 404 124 321 135 l 419 122 m 356 482 q 204 365 275 446 q 356 482 286 390 z "},"l":{"ha":335,"x_min":39,"x_max":335,"o":"m 128 979 l 121 1021 q 139 1038 121 1038 q 157 1035 146 1038 q 240 939 240 1018 q 236 897 240 919 q 220 801 232 874 q 203 697 208 729 l 189 601 q 156 197 156 382 q 175 157 156 157 q 190 165 182 157 q 303 315 288 288 q 327 342 319 342 q 335 323 335 342 q 327 252 335 304 q 318 185 319 200 q 312 153 317 171 q 303 124 307 135 q 289 95 300 114 q 274 71 278 76 q 227 10 244 32 q 187 -11 210 -11 q 143 10 164 -11 q 113 47 122 31 q 88 99 104 64 q 39 297 39 193 q 59 515 39 386 q 83 676 79 644 q 51 704 51 676 q 55 726 51 715 q 81 803 58 736 q 128 979 128 938 z "},"m":{"ha":717,"x_min":31,"x_max":717,"o":"m 471 182 l 482 469 q 479 486 482 486 q 467 464 474 486 q 350 65 442 400 q 321 17 336 17 q 296 28 314 17 q 225 154 225 79 q 244 317 225 214 q 267 455 267 444 q 263 465 267 465 q 253 451 260 465 q 167 47 182 282 q 139 6 164 6 q 79 44 106 6 q 31 200 31 114 q 44 338 31 254 q 60 439 57 421 q 103 585 83 585 q 126 545 118 585 q 135 488 135 506 q 140 469 135 469 q 171 502 156 469 q 208 567 186 535 q 263 600 231 600 q 324 576 296 600 q 358 517 351 551 q 414 582 375 540 q 456 611 435 611 q 519 590 478 611 q 576 438 576 561 q 568 225 576 314 l 568 215 q 576 194 568 194 q 638 265 589 194 q 697 335 686 335 q 717 235 717 335 q 646 38 717 136 q 589 -8 613 -8 l 574 -4 q 494 63 518 25 q 471 182 471 100 z "},"n":{"ha":488,"x_min":33,"x_max":488,"o":"m 488 308 q 481 190 488 240 q 431 56 474 140 q 346 -28 388 -28 q 311 -8 328 -28 q 229 179 229 90 q 247 300 229 206 q 272 458 272 442 q 267 474 272 474 q 257 463 263 474 q 199 317 221 399 q 169 181 176 236 q 154 25 163 125 q 136 -10 154 -10 q 108 6 128 -10 q 33 181 33 69 q 42 311 33 228 q 53 426 51 394 q 90 619 68 619 q 108 592 103 619 q 114 531 114 565 q 116 469 114 497 q 126 442 118 442 q 150 486 135 442 q 195 576 165 531 q 260 621 225 621 q 321 606 294 621 q 381 478 381 575 q 372 396 381 444 q 358 290 364 347 q 351 224 351 232 q 357 217 351 217 q 413 272 368 217 q 475 328 458 328 q 488 308 488 328 z "},"o":{"ha":382,"x_min":25,"x_max":357,"o":"m 357 328 q 260 29 357 160 q 183 -15 225 -15 q 115 6 140 -15 q 25 263 25 81 q 93 585 25 389 q 103 602 99 599 q 117 606 107 606 q 143 620 128 606 q 194 635 158 635 q 265 608 229 635 q 318 538 301 582 q 357 328 357 433 m 242 418 q 210 546 242 546 q 182 522 194 546 q 126 207 126 390 q 128 138 126 161 q 242 418 242 225 z "},"p":{"ha":460,"x_min":21,"x_max":439,"o":"m 63 338 l 64 361 q 42 422 64 397 q 21 453 21 446 q 30 464 21 460 q 50 470 39 468 q 72 487 61 472 q 90 549 83 501 q 97 616 97 596 q 110 636 97 636 q 132 628 122 636 q 147 612 142 619 q 158 589 151 604 q 168 569 165 574 q 244 585 214 585 q 381 508 324 585 q 439 350 439 431 q 432 283 439 321 q 299 28 389 97 q 243 3 268 3 q 201 23 218 3 q 178 75 185 43 q 165 207 165 132 q 182 282 165 282 q 197 246 185 282 q 233 210 208 210 q 271 235 258 210 q 314 333 293 274 q 335 424 335 392 q 304 457 335 457 q 264 447 286 457 q 150 290 178 413 q 101 -87 101 74 q 110 -214 101 -164 l 114 -246 q 100 -278 114 -262 q 69 -293 86 -293 q 25 -85 25 -293 q 63 338 25 46 z "},"q":{"ha":468,"x_min":25,"x_max":447,"o":"m 418 556 q 419 543 418 556 q 434 502 421 529 q 447 463 447 475 q 440 404 447 450 q 304 -256 418 306 q 359 -221 329 -251 q 397 -190 389 -190 q 404 -242 404 -190 q 378 -360 404 -293 q 301 -426 351 -426 q 224 -331 235 -426 q 217 -200 217 -285 q 264 139 217 -115 q 197 51 217 72 q 149 25 178 25 q 92 47 121 25 q 25 226 25 100 q 83 449 25 353 q 240 611 140 546 q 318 636 275 636 q 388 610 361 636 q 418 556 415 583 m 328 468 q 333 493 333 482 q 322 504 333 504 q 314 501 319 504 q 125 217 158 425 q 124 194 124 207 q 131 181 124 181 q 151 193 139 181 q 328 468 254 283 z "},"r":{"ha":426,"x_min":0,"x_max":453,"o":"m 443 313 q 453 255 453 313 q 414 139 453 197 q 360 62 397 106 q 311 8 324 18 q 251 -18 274 -18 q 217 -15 228 -18 q 195 -3 206 -12 q 178 10 185 6 q 163 30 172 15 q 151 49 154 44 q 139 71 149 53 q 129 90 129 89 q 103 183 103 139 q 110 265 103 226 q 135 358 118 303 q 156 429 151 414 q 100 372 135 403 q 70 361 86 361 q 44 376 54 361 q 17 439 33 390 q 0 505 0 488 q 22 559 0 522 q 49 608 44 596 q 69 633 56 633 q 103 619 76 633 q 138 563 129 604 q 150 546 140 546 q 174 561 154 546 q 219 576 194 576 q 292 532 243 576 q 308 485 308 515 q 305 442 308 454 q 297 425 301 429 q 278 398 285 415 q 241 267 272 381 q 210 143 210 154 q 218 132 210 132 q 307 199 229 132 q 419 297 385 265 q 443 313 440 313 z "},"s":{"ha":447,"x_min":21,"x_max":447,"o":"m 311 625 q 329 625 311 625 q 397 597 347 625 q 447 530 447 568 q 417 461 447 492 q 350 431 388 431 q 271 483 293 431 q 262 492 268 492 q 216 475 256 492 q 163 451 176 458 q 149 438 149 444 q 168 422 149 432 q 415 218 415 356 q 377 117 415 169 q 269 32 339 65 q 136 -1 200 -1 q 47 33 72 -1 q 21 133 21 68 q 67 231 21 199 q 167 271 128 271 q 176 266 176 271 q 155 249 176 261 q 109 213 133 236 q 85 174 85 189 q 118 160 85 160 q 293 210 207 160 q 313 233 313 219 q 283 260 313 246 q 185 300 254 274 q 77 345 117 326 q 38 407 38 364 q 44 442 38 419 q 51 474 50 465 q 95 540 58 522 q 254 615 132 558 q 311 625 275 625 z "},"t":{"ha":374,"x_min":-49,"x_max":381,"o":"m 228 611 l 338 617 q 381 561 381 617 q 363 519 381 533 q 210 464 318 479 q 196 244 196 332 q 208 157 196 157 q 267 201 217 157 q 322 246 317 246 q 346 174 346 246 q 319 33 346 103 q 244 -36 293 -36 q 203 -22 224 -36 q 172 8 182 -7 q 142 51 161 22 q 119 86 124 81 q 78 188 82 138 q 75 307 75 239 q 83 454 75 375 q 12 485 40 456 q -33 555 -17 514 q -49 601 -49 596 q -28 619 -49 619 l 106 611 q 128 731 113 654 q 151 860 151 842 l 149 886 q 174 908 149 908 q 235 883 199 908 q 271 836 271 858 q 261 797 271 826 q 228 611 249 753 z "},"u":{"ha":469,"x_min":7,"x_max":469,"o":"m 58 632 l 125 644 q 185 621 157 644 q 202 607 188 618 q 225 589 217 596 q 247 553 247 568 q 222 469 247 539 q 169 322 197 400 q 133 217 133 226 q 140 207 133 207 q 224 339 151 207 q 333 546 296 471 q 372 572 347 572 q 431 524 431 572 q 394 367 431 496 q 349 181 349 196 q 356 167 349 167 q 388 240 364 167 q 421 313 411 313 q 435 300 426 313 q 469 167 469 228 q 426 26 469 106 q 372 -11 407 -11 q 340 0 350 -11 q 307 43 313 32 q 264 163 281 76 q 239 111 254 144 q 181 4 207 38 q 138 -19 164 -19 q 82 17 113 -19 q 35 157 36 79 q 51 303 35 235 q 100 468 67 371 l 104 485 q 94 496 104 496 l 63 488 q 29 515 39 488 q 7 624 7 565 q 21 640 7 640 l 58 632 z "},"v":{"ha":386,"x_min":-14,"x_max":358,"o":"m 31 638 l 97 643 q 194 596 144 643 q 221 547 221 571 q 147 200 221 504 q 144 175 144 186 q 150 164 144 164 q 168 176 156 164 q 231 286 213 232 q 257 366 249 340 q 272 439 265 392 q 282 506 279 486 q 297 647 286 532 q 313 674 301 674 q 329 653 325 674 q 358 331 358 494 q 282 53 358 167 q 193 -8 243 -8 q 153 3 172 -8 q 67 93 99 28 q 35 224 35 158 q 45 306 35 269 q 65 375 56 343 q 81 438 81 425 q 55 463 81 451 q 22 492 29 474 q 0 566 14 511 q -14 631 -14 621 q -4 640 -14 640 l 31 638 z "},"w":{"ha":571,"x_min":-28,"x_max":546,"o":"m 297 449 q 318 449 310 449 q 335 448 326 449 q 347 447 343 447 q 358 444 351 446 q 367 438 364 442 q 372 431 369 435 q 379 413 379 424 q 372 336 379 401 q 365 232 365 271 q 381 121 365 121 q 394 138 386 121 q 436 368 436 222 q 423 539 436 511 q 397 577 410 567 q 374 596 385 588 q 364 608 364 604 q 388 622 364 622 l 408 622 q 460 576 439 621 q 546 229 546 394 q 529 90 546 153 q 418 -25 497 -25 q 354 -1 388 -25 q 303 63 321 24 q 275 164 286 101 q 225 52 260 114 q 160 -10 190 -10 q 138 -1 149 -10 q 51 224 51 63 q 75 386 51 311 q 107 474 83 410 q 30 439 54 439 q -8 469 6 439 q -28 581 -28 511 q -14 597 -28 597 l 6 594 q 65 617 19 594 q 128 639 111 639 q 192 591 167 639 q 217 512 217 543 q 210 448 217 481 q 176 319 203 415 q 139 166 139 182 q 144 150 139 150 q 160 164 150 150 q 257 415 215 250 q 297 449 265 449 z "},"x":{"ha":410,"x_min":14,"x_max":465,"o":"m 465 626 l 465 615 q 449 565 464 596 q 261 269 372 429 q 343 35 343 71 q 335 8 343 19 q 313 -4 326 -4 q 290 6 300 -4 q 181 154 239 56 q 165 133 178 150 q 150 111 153 117 q 140 92 147 106 q 127 40 131 75 q 108 4 124 4 q 53 44 93 4 q 14 125 14 83 q 101 311 14 188 q 14 542 14 525 q 26 585 14 560 q 54 610 39 610 q 119 533 69 610 q 189 418 169 457 q 331 558 228 460 q 451 656 435 656 q 465 626 465 656 z "},"y":{"ha":526,"x_min":-3,"x_max":501,"o":"m -3 565 q 25 583 -3 586 q 46 583 33 583 q 99 597 58 583 q 163 610 139 610 q 208 591 186 610 q 247 543 229 572 q 265 483 265 514 q 205 317 265 451 q 144 174 144 183 q 156 164 144 164 q 249 244 178 164 q 283 292 264 263 q 311 338 301 322 q 338 390 321 353 q 361 439 356 428 q 407 544 388 494 q 440 568 418 568 q 482 542 463 568 q 501 489 501 515 q 429 103 501 443 q 349 -275 357 -237 q 335 -444 342 -312 q 306 -487 335 -487 q 288 -483 296 -487 q 186 -306 186 -442 l 186 -212 q 204 -183 186 -183 q 240 -207 221 -183 q 260 -233 258 -231 l 335 138 q 236 37 272 63 q 149 11 200 11 q 68 58 99 11 q 38 165 38 106 q 125 457 38 289 q 62 447 86 447 q 26 472 38 447 q 9 520 21 483 q -3 565 -3 557 z "},"z":{"ha":421,"x_min":14,"x_max":421,"o":"m 200 594 l 228 596 q 336 574 299 596 q 407 489 374 551 q 421 440 421 465 q 401 394 421 414 q 258 265 356 346 q 140 168 160 185 l 272 174 q 331 167 314 174 q 353 148 347 161 q 358 104 358 135 q 332 69 358 74 q 163 15 289 61 q 108 6 136 6 q 61 35 81 6 q 21 143 21 107 q 44 210 21 179 q 181 352 88 263 q 288 457 274 442 q 88 428 110 428 q 53 433 65 428 q 33 451 40 438 q 14 526 14 490 q 128 631 14 585 q 146 635 136 635 q 167 613 164 635 q 200 594 171 594 z "},"{":{"ha":625,"x_min":104,"x_max":701,"o":"m 343 -176 l 493 -162 q 526 -181 508 -162 q 539 -235 543 -199 q 358 -299 531 -299 q 241 -256 297 -299 q 174 -181 185 -212 q 165 -122 161 -149 q 190 -40 168 -94 q 230 65 211 14 q 260 184 249 115 q 253 301 271 253 q 206 369 235 349 q 155 390 178 390 q 116 400 132 390 q 104 438 100 410 q 153 481 110 485 q 196 476 182 476 q 283 799 283 476 q 285 922 283 907 q 338 1022 292 976 q 464 1068 383 1068 l 576 1064 l 603 1067 q 631 1050 618 1067 q 653 1053 644 1053 q 694 1025 685 1053 q 701 990 703 997 q 471 856 696 940 q 460 853 463 853 q 472 910 439 853 l 496 943 q 408 910 419 938 q 380 746 386 847 q 369 613 374 644 q 274 450 353 475 q 379 246 399 389 q 311 43 369 171 q 249 -113 253 -85 q 276 -159 244 -142 q 343 -176 307 -176 z "},"|":{"ha":347,"x_min":111,"x_max":300,"o":"m 188 1049 l 181 1090 q 199 1107 181 1107 q 273 1080 246 1107 q 300 1008 300 1053 q 296 968 300 989 q 253 480 269 806 q 236 -62 236 154 q 208 -183 236 -183 q 182 -151 197 -183 q 119 47 119 -54 q 126 426 119 189 q 143 746 132 664 q 111 774 111 746 q 149 896 111 781 q 188 1049 188 1011 z "},"}":{"ha":625,"x_min":32,"x_max":565,"o":"m 525 349 l 475 358 q 389 317 429 358 q 344 94 318 246 q 361 -178 382 -104 q 275 -292 335 -267 q 108 -300 196 -325 q 69 -289 82 -292 q 32 -217 24 -278 q 43 -178 35 -194 q 63 -162 51 -162 q 131 -172 75 -162 q 217 -182 186 -182 q 292 -135 286 -182 q 283 -78 294 -117 q 281 381 171 282 q 401 435 324 421 q 301 646 283 500 q 330 766 307 689 q 356 871 353 843 q 328 944 363 921 q 249 969 294 968 q 279 876 279 918 q 269 865 279 865 q 258 868 267 865 q 63 1003 57 954 q 89 1051 64 1013 q 86 1067 89 1051 q 296 1085 89 1085 q 439 997 376 1085 q 474 840 501 910 q 392 594 406 688 q 494 450 374 450 l 522 451 q 555 439 544 451 q 565 403 565 426 q 555 364 565 379 q 525 349 544 349 z "},"~":{"ha":556,"x_min":39,"x_max":519,"o":"m 287 447 q 314 426 287 447 q 363 406 340 406 q 396 417 385 406 q 409 441 407 428 q 422 465 411 454 q 457 476 432 476 q 501 449 482 476 q 519 389 519 421 q 480 331 519 357 q 390 304 440 304 q 269 351 339 304 q 180 397 200 397 q 149 383 160 397 q 135 350 139 368 q 117 317 131 332 q 83 303 103 303 q 51 330 64 303 q 39 378 39 357 q 92 458 39 429 q 190 488 146 488 q 287 447 233 488 z "},"":{"ha":281,"x_min":0,"x_max":0,"o":""},"":{"ha":343,"x_min":1,"x_max":272,"o":"m 169 -171 q 183 -175 169 -171 q 226 -196 219 -187 q 232 -211 232 -204 q 160 -266 232 -236 q 57 -296 88 -296 q 1 -244 1 -296 q 88 172 1 -147 q 174 388 144 388 q 190 374 183 388 q 197 351 197 361 q 192 312 197 342 q 175 170 186 282 q 164 -31 164 58 q 169 -171 164 -119 m 125 565 q 125 590 125 565 q 143 642 125 614 q 196 669 161 669 q 251 635 231 669 q 272 556 272 601 q 207 454 272 454 q 151 485 176 454 q 125 565 125 517 z "},"":{"ha":415,"x_min":28,"x_max":408,"o":"m 236 913 l 233 964 q 260 1001 233 1001 q 322 903 322 1001 q 314 810 322 869 q 386 779 350 806 q 408 719 408 761 q 371 579 408 676 q 335 524 347 524 q 313 599 318 524 q 296 674 307 674 q 257 351 267 463 q 311 397 282 369 q 382 456 372 456 q 392 419 392 456 q 356 265 392 335 q 240 181 319 196 q 188 -42 210 -42 q 158 165 158 -42 q 158 185 158 179 q 63 283 97 207 q 28 425 28 360 q 82 620 28 525 q 229 785 136 715 q 236 913 236 851 m 135 301 q 164 304 144 301 q 206 600 171 363 q 131 470 163 543 q 99 340 99 397 q 135 301 99 301 z "},"":{"ha":532,"x_min":22,"x_max":549,"o":"m 260 446 l 383 451 q 419 417 419 451 q 374 351 419 351 q 345 352 368 351 q 306 353 322 353 q 343 228 343 268 q 325 149 343 188 q 383 143 346 143 q 549 194 457 143 q 543 140 558 194 q 489 32 528 86 q 404 -22 450 -22 q 328 -5 358 -22 q 258 49 297 13 q 156 -18 197 -18 q 93 -10 115 -18 q 58 16 71 -3 q 40 50 44 35 q 31 86 35 65 q 24 117 26 107 q 22 133 22 128 q 83 208 22 172 q 226 175 93 215 q 246 228 244 217 q 190 353 235 279 l 142 349 q 72 344 92 344 q 44 355 51 344 q 36 383 36 365 q 39 411 36 400 q 51 434 42 422 q 70 446 61 446 q 98 445 79 446 q 129 444 117 444 q 67 600 67 539 q 168 824 67 715 q 393 978 269 933 q 424 983 413 983 q 497 941 454 983 q 539 870 539 899 q 460 759 539 842 q 357 676 382 676 q 343 698 343 676 q 355 756 343 719 q 367 797 367 792 q 360 803 367 803 q 254 719 313 803 q 196 575 196 635 q 260 446 196 563 m 167 82 q 189 104 175 82 q 136 129 143 140 q 151 95 136 108 q 167 82 165 82 z "},"":{"ha":625,"x_min":50,"x_max":594,"o":"m 564 761 q 569 732 564 761 q 542 669 569 706 q 513 631 514 632 q 529 512 529 581 q 515 389 529 443 q 531 365 521 381 q 545 344 542 350 q 556 326 549 338 q 567 308 564 314 q 576 294 571 303 q 583 279 581 285 q 588 266 585 274 q 592 253 590 258 q 594 210 594 239 q 592 164 594 181 q 578 147 589 147 q 553 165 567 147 l 458 292 q 343 247 414 247 q 214 299 272 247 q 193 247 208 288 q 144 149 156 149 q 113 169 126 149 q 92 217 99 189 q 81 294 81 271 q 99 343 82 318 l 139 404 q 110 532 110 469 q 154 660 110 594 q 99 718 121 696 q 67 753 76 740 q 50 784 50 771 q 60 806 50 797 q 78 815 69 815 q 210 732 117 815 q 335 785 239 785 q 446 736 393 785 q 472 764 451 742 q 536 821 526 821 q 564 761 556 821 m 267 663 q 220 610 240 651 q 200 542 200 569 q 230 428 200 476 q 319 379 260 379 q 410 426 378 379 q 442 535 442 474 q 408 633 442 611 q 267 663 367 663 z "},"":{"ha":626,"x_min":42,"x_max":599,"o":"m 42 932 q 69 950 42 953 q 90 950 78 950 q 142 963 101 950 q 207 976 183 976 q 252 958 231 976 q 292 910 274 939 q 310 857 310 881 q 274 749 310 833 q 210 597 238 665 q 197 528 182 528 q 207 532 203 528 q 313 647 264 576 q 387 767 363 718 q 451 911 411 817 q 485 935 463 935 q 533 908 507 935 q 560 856 560 881 q 536 740 560 849 q 465 371 513 631 q 540 385 508 375 q 583 362 567 385 q 599 317 599 339 q 463 276 599 276 l 447 276 q 435 211 439 235 l 435 206 q 532 219 492 210 q 572 198 558 219 q 589 151 586 176 q 465 113 589 113 l 454 113 q 428 -7 447 71 q 400 -104 408 -85 q 363 -142 390 -131 q 322 -122 336 -153 q 296 56 296 -49 q 300 117 296 79 l 214 110 q 176 153 181 110 q 184 190 176 174 q 199 206 192 206 l 315 206 q 329 276 321 239 l 226 265 q 186 310 192 265 l 186 317 q 194 348 186 333 q 207 364 201 363 l 349 364 l 400 575 q 210 413 308 413 q 124 460 154 413 q 93 574 93 507 q 110 691 93 640 q 169 824 126 742 q 106 814 131 814 q 71 839 82 814 q 53 887 65 850 q 42 932 42 924 z "},"":{"ha":347,"x_min":119,"x_max":300,"o":"m 188 1049 l 181 1090 q 199 1107 181 1107 q 273 1080 246 1107 q 300 1008 300 1053 q 296 968 300 989 q 262 731 269 850 q 251 565 254 611 q 226 518 247 518 q 194 550 211 518 q 149 635 161 601 q 138 721 138 668 l 143 801 q 119 831 119 801 q 153 924 119 838 q 188 1049 188 1011 m 246 101 l 256 -99 q 247 -165 256 -136 q 226 -193 239 -193 q 200 -161 217 -193 q 136 18 136 -64 l 144 242 q 135 372 144 326 q 147 389 135 389 q 223 336 192 389 q 254 263 254 283 l 246 101 z "},"":{"ha":556,"x_min":86,"x_max":496,"o":"m 454 906 q 441 882 454 894 q 378 819 428 869 q 278 735 294 735 q 265 754 265 735 q 283 806 265 774 q 300 842 300 838 q 294 847 300 847 q 283 844 289 847 q 236 806 253 821 q 199 762 219 792 q 178 703 178 732 q 226 644 178 674 q 279 616 239 638 q 344 581 319 594 q 446 503 418 538 q 496 381 496 442 q 483 333 496 358 q 450 294 469 308 l 435 282 l 446 268 q 496 146 496 204 q 483 97 496 122 q 450 58 469 72 q 157 -39 321 -39 q 106 -15 125 -39 q 86 40 86 8 q 99 85 86 71 q 144 101 113 100 q 336 151 253 106 q 385 204 385 178 q 368 229 385 213 q 281 275 344 246 q 117 379 153 331 q 90 460 90 413 q 140 589 90 508 q 90 688 90 631 q 139 819 90 746 q 242 944 188 892 q 319 1003 297 996 q 350 1010 340 1010 q 399 988 381 1010 q 454 906 454 932 m 318 378 q 385 440 385 411 q 368 465 385 449 q 284 508 346 482 q 210 542 222 535 q 178 472 178 506 q 226 408 178 438 q 300 368 254 392 l 318 378 z "},"":{"ha":556,"x_min":139,"x_max":499,"o":"m 494 843 q 499 805 499 829 q 476 755 499 781 q 420 729 454 729 q 365 751 386 729 q 344 804 344 772 q 364 866 344 836 q 431 896 383 896 q 494 843 478 896 m 204 900 q 252 876 229 900 q 275 816 275 851 q 256 755 275 781 q 207 729 236 729 q 158 756 178 729 q 139 822 139 783 q 204 900 139 900 z "},"":{"ha":906,"x_min":56,"x_max":864,"o":"m 500 829 l 497 856 q 507 864 497 864 q 582 811 554 853 q 610 722 610 769 q 590 617 610 674 q 550 560 569 560 q 513 617 528 560 q 497 715 497 674 q 485 725 492 725 q 413 582 451 725 q 374 339 374 439 q 381 265 374 314 q 393 215 389 215 q 476 312 414 213 q 567 494 538 411 q 583 462 576 493 q 590 396 590 431 q 547 227 590 314 q 424 126 503 140 q 297 191 338 135 q 257 325 257 247 q 308 577 257 450 q 450 800 360 704 q 465 810 457 810 q 497 796 472 810 q 500 829 500 807 m 799 283 q 710 108 763 186 q 576 -22 658 29 q 394 -74 493 -74 q 155 36 254 -74 q 56 294 56 146 q 210 789 56 547 q 240 814 225 814 q 268 806 254 814 q 313 860 300 844 q 365 912 326 875 q 433 967 403 949 q 612 1015 519 1015 q 784 910 704 1015 q 864 633 864 806 q 799 283 864 460 m 733 685 q 690 844 733 761 q 596 926 646 926 q 381 817 488 926 q 214 565 275 708 q 153 317 153 422 q 205 121 153 213 q 336 29 257 29 q 546 128 453 29 q 686 376 639 228 q 733 685 733 524 z "},"":{"ha":418,"x_min":38,"x_max":428,"o":"m 385 881 l 383 867 q 381 864 383 864 q 322 658 325 738 l 338 672 q 422 735 407 735 q 428 725 428 735 q 390 628 428 694 q 329 561 351 561 q 277 589 307 561 q 247 643 247 617 q 250 671 247 654 q 151 556 189 556 q 83 592 114 556 q 53 647 53 628 q 246 958 53 811 q 278 964 253 964 q 344 938 304 964 q 385 881 385 913 m 181 506 l 318 507 q 368 446 368 507 q 344 424 368 424 q 319 422 336 422 l 214 426 q 145 421 201 426 q 75 417 89 415 q 47 442 56 417 q 38 480 38 467 q 42 499 38 493 q 55 506 46 504 q 71 508 64 507 q 90 508 78 508 q 104 507 101 507 l 181 506 m 296 908 q 129 651 161 810 q 297 908 240 758 l 297 910 l 296 908 z "},"":{"ha":674,"x_min":0,"x_max":594,"o":"m 246 386 q 122 329 210 368 q 206 283 150 321 q 297 238 261 244 q 303 156 338 229 q 264 111 283 115 q 181 158 239 108 q 108 217 124 207 q 66 240 93 226 q 19 264 39 253 q 0 283 0 275 q 24 347 0 292 q 42 369 32 364 q 238 476 147 422 q 257 507 242 504 q 283 493 268 510 q 299 454 297 476 q 246 386 304 410 m 538 386 q 414 329 501 368 q 497 283 442 321 q 589 238 553 244 q 594 156 629 229 q 556 111 575 115 q 473 158 531 108 q 400 217 415 207 q 358 240 385 226 q 311 264 331 253 q 292 283 292 275 q 315 347 292 292 q 333 369 324 364 q 529 476 439 422 q 549 507 533 504 q 574 493 560 510 q 590 454 589 476 q 538 386 596 410 z "},"":{"ha":556,"x_min":57,"x_max":522,"o":"m 267 543 l 444 547 l 460 547 q 517 515 507 547 q 522 485 522 494 q 517 428 522 476 q 510 311 511 379 q 514 279 514 292 q 481 232 514 232 q 431 278 460 232 q 401 354 401 325 q 404 367 401 361 q 410 382 407 372 q 413 399 413 392 q 414 419 414 407 q 415 438 414 431 q 250 446 307 446 l 104 443 q 57 507 57 443 q 92 550 57 550 q 267 543 93 550 z "},"":{"ha":486,"x_min":54,"x_max":432,"o":"m 200 226 q 100 247 146 226 q 54 321 54 268 q 75 346 54 346 q 130 342 108 346 q 189 340 151 339 q 274 351 226 340 q 351 361 322 361 q 406 343 381 361 q 432 293 432 325 q 200 226 432 231 z "},"":{"ha":788,"x_min":64,"x_max":782,"o":"m 522 526 l 579 544 q 567 504 594 544 q 500 464 539 464 q 431 540 442 464 q 413 597 424 586 q 389 617 403 608 l 378 617 q 376 510 374 569 q 354 436 372 436 q 281 468 317 436 q 244 522 246 500 q 252 543 243 543 q 279 532 261 543 q 300 521 297 521 q 310 554 310 521 q 317 751 306 667 q 283 746 290 746 q 268 751 276 746 q 258 771 260 757 q 289 806 257 785 q 362 843 321 828 q 428 858 403 858 q 528 828 485 858 q 572 740 572 799 q 542 676 572 701 q 450 631 513 650 q 490 576 481 614 q 504 532 500 538 q 522 526 508 526 m 513 765 q 438 781 513 781 q 381 768 418 781 q 379 671 379 728 q 513 765 513 715 m 218 881 l 239 875 q 554 1015 394 1015 q 710 945 639 1015 q 782 758 782 875 q 724 524 782 643 q 646 406 692 458 q 526 319 600 354 q 365 285 453 285 q 147 358 231 285 q 64 533 64 431 q 90 707 64 635 q 188 864 115 779 q 218 881 199 881 m 679 786 q 632 876 679 831 q 539 922 585 922 q 367 884 444 922 q 244 789 289 846 q 150 553 150 668 q 203 435 150 493 q 326 376 256 376 q 495 412 424 376 q 606 508 567 447 q 679 786 679 628 z "},"":{"ha":556,"x_min":146,"x_max":492,"o":"m 175 863 l 321 856 q 416 865 381 856 q 460 875 451 875 q 483 849 474 875 q 492 804 492 822 q 480 773 492 786 q 442 756 468 760 q 361 750 408 750 l 178 743 q 146 813 161 743 l 146 824 q 153 854 146 846 q 175 863 160 863 z "},"":{"ha":319,"x_min":78,"x_max":369,"o":"m 219 1004 q 329 958 289 1004 q 369 844 369 913 q 335 735 369 776 q 231 694 301 694 q 119 744 160 694 q 78 838 78 793 q 88 906 78 882 q 114 931 99 931 l 122 949 q 153 985 129 967 q 219 1004 178 1004 m 224 943 q 201 913 207 943 q 186 882 196 882 q 168 890 181 882 q 163 840 163 867 q 172 792 163 813 q 210 763 189 763 q 265 842 265 763 q 256 908 265 872 q 224 943 247 943 z "},"":{"ha":556,"x_min":42,"x_max":528,"o":"m 81 140 l 485 128 q 515 101 503 128 q 526 64 526 75 q 475 28 526 28 l 254 36 l 93 33 q 46 100 46 33 q 81 140 46 140 m 324 340 l 336 192 q 294 160 336 160 q 244 206 274 160 q 215 282 215 253 q 220 310 215 285 q 225 357 225 335 l 225 383 q 89 381 122 381 q 42 447 42 381 q 76 488 42 488 q 224 483 132 488 q 245 608 228 544 q 288 672 263 672 q 338 653 306 672 q 369 615 369 633 q 365 578 369 597 q 351 531 360 560 q 338 479 343 503 q 481 475 458 475 q 516 449 504 475 q 528 411 528 422 q 476 375 528 375 l 325 382 q 324 340 324 368 z "},"":{"ha":388,"x_min":47,"x_max":390,"o":"m 260 499 l 318 510 q 346 458 346 510 q 265 370 346 406 q 126 335 183 335 q 96 349 106 335 q 68 457 68 392 q 97 547 68 522 q 229 690 163 606 q 296 832 296 775 q 226 874 296 874 q 183 851 189 874 q 147 783 176 819 q 89 747 118 747 q 58 786 69 747 q 47 844 47 825 q 51 874 47 864 q 61 893 54 883 q 74 909 68 903 q 92 924 81 915 q 109 937 104 933 q 126 949 114 940 q 140 958 139 958 q 226 979 171 979 q 303 953 281 979 q 329 930 314 939 q 346 919 344 921 q 390 814 390 882 q 361 708 390 769 q 231 517 306 596 q 224 503 224 508 q 260 499 224 499 z "},"":{"ha":372,"x_min":44,"x_max":361,"o":"m 94 647 l 93 722 q 101 735 93 731 q 201 803 157 763 q 244 878 244 844 q 218 890 244 890 q 199 888 213 890 q 143 839 197 860 q 83 818 89 818 q 51 886 51 818 q 53 926 51 900 q 74 958 56 951 q 199 986 147 986 q 290 950 251 986 q 304 930 296 944 q 318 910 313 915 q 347 846 347 881 q 321 770 347 811 q 267 702 294 729 q 240 671 240 675 q 270 642 240 667 q 331 578 300 618 q 361 500 361 538 q 340 425 361 463 q 253 344 315 376 q 131 311 192 311 q 82 332 101 311 q 56 386 63 353 q 44 469 44 438 q 74 510 44 501 q 167 528 153 528 q 182 522 182 528 q 163 487 182 513 q 144 459 144 461 q 149 457 144 457 q 213 480 182 457 q 244 533 244 503 q 222 585 244 564 q 178 606 199 606 q 136 598 157 606 q 106 590 115 590 q 94 599 97 590 l 94 647 z "},"":{"ha":556,"x_min":219,"x_max":447,"o":"m 219 711 q 333 897 219 788 q 360 926 353 917 q 368 947 368 935 q 376 960 368 960 q 428 921 410 960 q 447 863 447 882 q 417 799 447 824 q 335 734 403 781 q 249 688 267 688 q 226 696 232 688 q 219 711 219 704 z "},"":{"ha":469,"x_min":7,"x_max":469,"o":"m 63 638 l 122 640 q 182 617 154 640 q 199 603 185 614 q 222 585 214 592 q 244 551 244 564 q 201 376 244 538 q 168 190 157 215 q 299 456 217 236 q 335 548 329 536 q 346 562 340 560 q 365 560 351 564 q 397 554 378 557 q 424 545 417 551 q 431 527 431 539 q 411 456 431 515 q 349 181 351 268 q 356 167 349 167 q 377 198 364 167 q 403 267 390 229 q 421 313 417 306 q 438 293 425 313 q 469 166 469 226 q 426 26 469 106 q 378 -11 407 -11 q 334 1 350 -11 q 308 37 318 13 q 294 78 299 61 q 284 126 289 96 q 278 163 279 157 q 203 13 231 46 q 154 -19 175 -19 q 111 71 133 -19 q 99 -106 99 -32 q 101 -196 99 -181 q 111 -215 103 -211 q 119 -229 119 -218 q 99 -267 119 -240 q 61 -293 78 -293 q 17 -85 17 -293 q 104 490 17 206 q 74 490 89 493 q 44 494 60 488 q 7 624 7 510 q 21 640 7 640 l 63 638 z "},"":{"ha":628,"x_min":85,"x_max":588,"o":"m 454 -47 l 456 -11 q 472 531 456 406 q 474 558 474 544 q 486 671 474 571 q 501 814 499 771 q 435 779 464 793 q 371 -26 371 396 q 343 -147 371 -147 q 321 -124 333 -147 q 302 -91 308 -101 q 292 -69 296 -81 q 286 -51 289 -57 q 283 -31 283 -46 q 282 -11 282 -17 l 282 42 q 300 482 282 292 q 233 503 256 494 q 127 571 169 526 q 85 685 85 615 q 149 808 85 754 q 291 906 203 856 q 401 972 379 957 q 449 986 424 986 q 506 949 474 986 q 529 951 522 951 q 575 924 561 951 q 586 887 586 897 q 574 864 586 876 q 588 808 588 843 q 583 753 588 774 q 544 -40 544 515 q 535 -110 557 -87 q 490 -132 514 -132 q 454 -47 454 -132 z "},"":{"ha":250,"x_min":61,"x_max":210,"o":"m 210 475 q 210 451 210 475 q 189 394 210 426 q 133 363 168 363 q 80 390 99 363 q 61 465 61 418 q 80 544 61 511 q 131 578 99 578 q 186 551 163 578 q 210 475 210 524 z "},"":{"ha":556,"x_min":106,"x_max":394,"o":"m 303 -224 q 204 -178 296 -203 q 144 -143 171 -169 q 117 -80 117 -117 q 135 -12 117 -43 q 185 19 153 19 q 217 14 201 19 q 232 4 232 8 q 217 -21 232 0 q 203 -59 203 -42 q 233 -86 203 -76 q 299 -103 263 -96 q 365 -140 335 -110 q 394 -221 394 -169 q 337 -348 394 -308 q 189 -387 279 -387 q 145 -385 160 -387 q 118 -363 131 -382 q 106 -303 106 -344 q 135 -261 106 -261 q 144 -267 140 -261 q 150 -272 147 -272 q 289 -243 254 -264 q 303 -226 303 -235 l 303 -224 z "},"":{"ha":218,"x_min":58,"x_max":219,"o":"m 219 868 q 190 651 219 797 q 161 422 161 506 q 170 380 161 408 q 179 340 179 351 q 138 329 179 329 q 89 351 97 329 q 58 488 58 425 q 146 957 58 689 q 164 986 157 986 q 200 942 181 986 q 219 868 219 897 z "},"":{"ha":308,"x_min":43,"x_max":340,"o":"m 204 399 l 81 386 q 53 412 63 386 q 43 456 43 438 q 57 475 43 474 q 250 482 136 482 q 301 421 301 482 q 254 397 301 397 l 204 399 m 174 525 l 154 521 q 81 569 108 521 q 54 663 54 617 q 84 787 54 708 q 143 915 114 865 q 222 964 169 964 q 308 925 275 964 q 340 836 340 886 q 174 525 340 589 m 240 896 q 226 886 239 896 q 153 758 182 838 q 125 606 125 678 q 131 590 125 603 l 138 594 q 251 840 251 719 q 240 896 251 896 z "},"":{"ha":674,"x_min":44,"x_max":656,"o":"m 96 272 q 128 288 97 274 q 197 318 160 301 q 258 346 233 335 q 167 392 231 354 q 76 436 104 431 q 44 460 47 442 q 54 499 42 479 q 83 520 67 518 q 128 506 100 522 q 201 456 156 490 q 258 413 246 421 q 298 392 271 406 q 344 368 325 379 q 364 349 364 357 q 340 285 364 340 q 324 264 332 268 q 237 219 317 260 q 119 156 157 179 q 100 125 115 128 q 67 153 89 122 q 96 272 4 235 m 388 272 q 420 288 389 274 q 488 318 451 301 q 550 346 525 335 q 459 392 522 354 q 367 436 396 431 q 336 460 339 442 q 346 499 333 479 q 375 520 358 518 q 419 506 392 522 q 492 456 447 490 q 550 413 538 421 q 590 392 563 406 q 636 368 617 379 q 656 349 656 357 q 632 285 656 340 q 616 264 624 268 q 528 219 608 260 q 411 156 449 179 q 392 125 407 128 q 358 153 381 122 q 388 272 296 235 z "},"":{"ha":800,"x_min":65,"x_max":765,"o":"m 592 949 q 601 934 592 947 q 611 911 611 921 q 389 494 611 846 q 263 252 324 389 q 186 4 203 115 l 186 -15 q 181 -39 186 -33 q 161 -44 175 -44 q 111 13 131 -44 q 92 82 92 69 q 111 152 92 94 q 190 335 131 210 q 301 551 250 460 q 433 784 351 643 q 533 960 514 925 q 560 996 553 996 q 592 949 571 996 m 224 879 q 197 685 224 817 q 171 479 171 553 q 178 447 171 467 q 185 415 185 426 q 142 394 185 394 q 93 415 100 394 q 65 538 65 481 q 143 960 65 739 q 164 986 150 986 q 203 946 182 986 q 224 879 224 906 m 717 321 q 724 321 717 321 q 749 303 732 321 q 765 270 765 285 q 763 248 765 256 q 756 235 761 240 q 747 225 750 229 q 733 217 743 221 l 719 211 q 688 201 694 201 q 681 157 685 182 q 671 13 671 99 q 663 -7 671 3 q 638 -17 654 -17 q 606 4 622 -17 q 568 117 568 54 q 571 146 568 132 q 574 174 574 160 q 492 156 525 156 q 401 234 422 156 q 379 364 379 313 q 624 596 379 475 q 652 601 635 601 q 678 583 669 601 q 701 534 688 568 q 714 489 714 500 q 697 319 714 456 q 717 321 701 321 m 593 406 q 583 424 593 424 q 517 374 564 424 q 469 304 469 324 q 488 294 469 294 q 583 307 506 294 q 593 406 586 333 z "},"":{"ha":811,"x_min":65,"x_max":783,"o":"m 657 151 l 728 161 q 754 107 754 161 q 665 26 754 64 q 522 -11 575 -11 q 493 1 501 -11 q 467 112 467 44 q 494 204 467 179 q 517 225 497 207 q 547 252 538 243 q 576 281 556 261 q 608 315 597 301 q 635 348 619 328 q 661 383 651 368 q 682 449 682 419 q 617 488 682 488 q 575 468 581 488 q 541 408 568 439 q 486 378 514 378 q 457 415 467 378 q 447 469 447 451 q 450 497 447 488 q 456 512 453 506 q 467 526 460 518 q 480 540 475 535 q 495 551 485 544 q 509 561 506 558 q 523 570 513 564 q 535 578 533 576 q 619 597 561 597 q 700 572 678 597 q 724 552 711 560 q 740 542 736 544 q 783 442 783 506 q 749 328 783 403 q 629 168 714 254 q 624 158 624 160 q 657 151 624 151 m 592 949 q 601 934 592 947 q 611 911 611 921 q 389 494 611 846 q 263 252 324 389 q 186 4 203 115 l 186 -15 q 181 -39 186 -33 q 161 -44 175 -44 q 111 13 131 -44 q 92 82 92 69 q 111 152 92 94 q 190 335 131 210 q 301 551 250 460 q 433 784 351 643 q 533 960 514 925 q 560 996 553 996 q 592 949 571 996 m 224 879 q 197 685 224 817 q 171 479 171 553 q 178 447 171 467 q 185 415 185 426 q 142 394 185 394 q 93 415 100 394 q 65 538 65 481 q 143 960 65 739 q 164 986 150 986 q 203 946 182 986 q 224 879 224 906 z "},"":{"ha":914,"x_min":56,"x_max":879,"o":"m 100 688 l 99 756 q 107 767 99 764 q 192 826 150 786 q 235 896 235 865 q 220 907 235 907 q 194 904 206 907 q 151 864 193 882 q 133 856 147 863 q 90 842 101 842 q 61 903 61 842 q 63 938 61 915 q 82 968 65 961 q 185 993 151 993 q 247 983 218 993 q 286 965 276 974 q 303 942 296 956 q 315 924 311 929 q 342 868 342 900 q 314 799 342 836 q 259 738 286 761 q 232 710 232 714 q 263 683 232 706 q 324 625 293 661 q 354 551 354 589 q 283 433 354 479 q 133 386 211 386 q 90 405 107 386 q 67 453 72 424 q 56 530 56 501 q 82 564 56 558 q 163 581 146 581 q 179 575 179 581 q 163 544 179 567 q 146 519 146 521 q 149 517 146 517 q 207 538 179 517 q 235 586 235 558 q 215 632 235 614 q 175 650 194 650 q 138 643 156 650 q 111 636 119 636 q 100 644 103 636 l 100 688 m 706 949 q 715 934 706 947 q 725 911 725 921 q 503 494 725 846 q 377 252 438 389 q 300 4 317 115 l 300 -15 q 294 -39 300 -33 q 275 -44 289 -44 q 225 13 244 -44 q 206 83 206 69 q 213 114 206 96 q 414 551 274 296 q 547 784 465 643 q 647 960 628 925 q 674 996 667 996 q 706 949 685 996 m 831 321 q 838 321 831 321 q 863 303 846 321 q 879 270 879 285 q 877 248 879 256 q 869 235 875 240 q 860 225 864 229 q 847 217 857 221 l 833 211 q 801 201 808 201 q 796 157 800 182 q 785 13 785 90 q 776 -7 785 3 q 752 -17 768 -17 q 719 4 736 -17 q 682 117 682 54 q 685 146 682 132 q 688 174 688 160 q 606 156 639 156 q 515 234 536 156 q 493 364 493 313 q 738 596 493 475 q 766 601 749 601 q 792 583 783 601 q 815 534 801 568 q 828 489 828 500 q 811 319 828 456 q 831 321 815 321 m 707 406 q 697 424 707 424 q 631 374 678 424 q 583 304 583 324 q 601 294 583 294 q 697 307 619 294 q 707 406 700 333 z "},"":{"ha":426,"x_min":0,"x_max":394,"o":"m 200 224 q 117 210 179 210 q 54 238 54 210 q 122 317 54 265 q 236 368 189 368 q 280 328 265 368 q 294 241 294 288 q 273 140 294 194 q 225 44 251 85 q 119 -126 133 -93 q 104 -176 104 -158 q 140 -189 104 -189 q 190 -178 175 -189 q 258 -116 221 -160 q 316 -72 296 -72 q 390 -179 336 -72 q 394 -204 394 -192 q 316 -296 394 -258 q 151 -333 238 -333 q 68 -280 119 -333 q 8 -202 17 -226 q 0 -142 0 -178 q 31 -51 0 -107 q 100 47 63 6 q 200 224 200 161 m 154 565 q 154 590 154 565 q 172 642 154 614 q 225 669 190 669 q 281 635 260 669 q 301 556 301 601 q 236 454 301 454 q 180 485 206 454 q 154 565 154 517 z "},"":{"ha":835,"x_min":-42,"x_max":835,"o":"m 450 415 q 518 876 518 722 l 518 913 q 530 948 518 936 q 555 962 542 960 q 608 964 568 964 q 691 935 647 964 q 735 856 735 906 q 722 735 735 846 q 706 450 710 624 q 781 491 753 469 q 819 513 810 513 q 835 484 835 513 q 792 412 835 456 q 706 340 749 368 q 708 243 706 310 q 720 246 713 246 q 735 242 728 246 q 749 232 743 238 q 764 216 756 226 q 776 200 772 206 q 788 184 781 194 q 796 172 794 174 q 821 113 821 135 q 813 64 821 92 q 769 -79 781 -18 q 736 -108 764 -108 q 694 -92 706 -108 q 676 -67 682 -76 q 665 -39 669 -57 q 657 -10 660 -21 q 651 22 654 0 q 646 81 647 51 l 644 103 q 631 306 639 169 q 519 290 594 293 q 474 106 497 190 q 399 -28 451 22 q 272 -78 347 -78 q 219 -71 250 -78 q -25 156 40 -22 q -42 236 -42 201 q 28 350 -42 319 q 321 418 178 418 l 450 415 m 625 429 q 614 801 619 551 q 580 610 603 738 q 546 418 557 482 q 625 429 599 424 m 418 289 l 329 289 q 58 265 160 289 q 1 224 1 254 q 39 163 1 200 q 136 105 76 125 q 236 85 196 85 q 303 99 276 85 q 347 128 331 113 q 378 178 363 143 q 418 289 397 221 m 560 1056 q 544 1076 556 1060 q 517 1115 533 1093 q 465 1169 500 1136 q 414 1219 431 1203 q 397 1244 397 1235 q 426 1275 397 1258 q 474 1292 456 1292 q 497 1290 492 1292 q 509 1284 503 1289 q 519 1275 515 1279 q 531 1260 524 1271 q 544 1239 538 1249 q 562 1210 550 1229 q 579 1181 574 1190 q 611 1133 585 1172 q 664 1035 664 1053 q 647 1017 664 1017 q 617 1020 631 1017 q 594 1027 603 1024 q 575 1040 585 1031 l 560 1056 z "},"":{"ha":835,"x_min":-42,"x_max":835,"o":"m 450 415 q 518 876 518 722 l 518 913 q 530 948 518 936 q 555 962 542 960 q 608 964 568 964 q 691 935 647 964 q 735 856 735 906 q 722 735 735 846 q 706 450 710 624 q 781 491 753 469 q 819 513 810 513 q 835 484 835 513 q 792 412 835 456 q 706 340 749 368 q 708 243 706 310 q 720 246 713 246 q 735 242 728 246 q 749 232 743 238 q 764 216 756 226 q 776 200 772 206 q 788 184 781 194 q 796 172 794 174 q 821 113 821 135 q 813 64 821 92 q 769 -79 781 -18 q 736 -108 764 -108 q 694 -92 706 -108 q 676 -67 682 -76 q 665 -39 669 -57 q 657 -10 660 -21 q 651 22 654 0 q 646 81 647 51 l 644 103 q 631 306 639 169 q 519 290 594 293 q 474 106 497 190 q 399 -28 451 22 q 272 -78 347 -78 q 219 -71 250 -78 q -25 156 40 -22 q -42 236 -42 201 q 28 350 -42 319 q 321 418 178 418 l 450 415 m 625 429 q 614 801 619 551 q 580 610 603 738 q 546 418 557 482 q 625 429 599 424 m 418 289 l 329 289 q 58 265 160 289 q 1 224 1 254 q 39 163 1 200 q 136 105 76 125 q 236 85 196 85 q 303 99 276 85 q 347 128 331 113 q 378 178 363 143 q 418 289 397 221 m 593 1040 q 707 1226 593 1117 q 734 1255 726 1246 q 742 1276 742 1264 q 750 1289 742 1289 q 802 1250 783 1289 q 821 1192 821 1211 q 790 1128 821 1153 q 708 1063 776 1110 q 623 1017 640 1017 q 599 1025 606 1017 q 593 1040 593 1033 z "},"":{"ha":835,"x_min":-42,"x_max":835,"o":"m 450 415 q 518 876 518 722 l 518 913 q 530 948 518 936 q 555 962 542 960 q 608 964 568 964 q 691 935 647 964 q 735 856 735 906 q 722 735 735 846 q 706 450 710 624 q 781 491 753 469 q 819 513 810 513 q 835 484 835 513 q 792 412 835 456 q 706 340 749 368 q 708 243 706 310 q 720 246 713 246 q 735 242 728 246 q 749 232 743 238 q 764 216 756 226 q 776 200 772 206 q 788 184 781 194 q 796 172 794 174 q 821 113 821 135 q 813 64 821 92 q 769 -79 781 -18 q 736 -108 764 -108 q 694 -92 706 -108 q 676 -67 682 -76 q 665 -39 669 -57 q 657 -10 660 -21 q 651 22 654 0 q 646 81 647 51 l 644 103 q 631 306 639 169 q 519 290 594 293 q 474 106 497 190 q 399 -28 451 22 q 272 -78 347 -78 q 219 -71 250 -78 q -25 156 40 -22 q -42 236 -42 201 q 28 350 -42 319 q 321 418 178 418 l 450 415 m 625 429 q 614 801 619 551 q 580 610 603 738 q 546 418 557 482 q 625 429 599 424 m 418 289 l 329 289 q 58 265 160 289 q 1 224 1 254 q 39 163 1 200 q 136 105 76 125 q 236 85 196 85 q 303 99 276 85 q 347 128 331 113 q 378 178 363 143 q 418 289 397 221 m 817 1033 q 797 1017 817 1017 q 756 1025 776 1017 q 713 1058 735 1033 q 684 1091 692 1082 q 653 1140 676 1100 q 628 1181 629 1179 q 541 1081 599 1136 q 451 1026 483 1026 q 426 1058 426 1026 q 489 1157 426 1090 q 542 1226 519 1192 q 579 1276 565 1261 q 621 1292 593 1292 q 676 1265 649 1292 q 724 1194 704 1238 q 747 1148 744 1151 q 764 1124 749 1144 q 789 1090 779 1104 q 817 1033 817 1053 z "},"":{"ha":835,"x_min":-42,"x_max":835,"o":"m 450 415 q 518 876 518 722 l 518 913 q 530 948 518 936 q 555 962 542 960 q 608 964 568 964 q 691 935 647 964 q 735 856 735 906 q 722 735 735 846 q 706 450 710 624 q 781 491 753 469 q 819 513 810 513 q 835 484 835 513 q 792 412 835 456 q 706 340 749 368 q 708 243 706 310 q 720 246 713 246 q 735 242 728 246 q 749 232 743 238 q 764 216 756 226 q 776 200 772 206 q 788 184 781 194 q 796 172 794 174 q 821 113 821 135 q 813 64 821 92 q 769 -79 781 -18 q 736 -108 764 -108 q 694 -92 706 -108 q 676 -67 682 -76 q 665 -39 669 -57 q 657 -10 660 -21 q 651 22 654 0 q 646 81 647 51 l 644 103 q 631 306 639 169 q 519 290 594 293 q 474 106 497 190 q 399 -28 451 22 q 272 -78 347 -78 q 219 -71 250 -78 q -25 156 40 -22 q -42 236 -42 201 q 28 350 -42 319 q 321 418 178 418 l 450 415 m 625 429 q 614 801 619 551 q 580 610 603 738 q 546 418 557 482 q 625 429 599 424 m 418 289 l 329 289 q 58 265 160 289 q 1 224 1 254 q 39 163 1 200 q 136 105 76 125 q 236 85 196 85 q 303 99 276 85 q 347 128 331 113 q 378 178 363 143 q 418 289 397 221 m 532 1228 q 549 1228 532 1228 q 616 1188 567 1228 q 682 1149 665 1149 q 712 1165 699 1149 q 735 1199 725 1182 q 761 1217 744 1217 q 792 1191 778 1217 q 806 1143 806 1165 q 774 1068 806 1097 q 704 1039 743 1039 q 612 1080 665 1039 q 541 1121 558 1121 q 512 1100 524 1121 q 488 1058 500 1079 q 458 1038 475 1038 q 432 1056 442 1038 q 422 1096 422 1075 q 460 1188 422 1147 q 532 1228 497 1228 z "},"":{"ha":835,"x_min":-42,"x_max":835,"o":"m 450 415 q 518 876 518 722 l 518 913 q 530 948 518 936 q 555 962 542 960 q 608 964 568 964 q 691 935 647 964 q 735 856 735 906 q 722 735 735 846 q 706 450 710 624 q 781 491 753 469 q 819 513 810 513 q 835 484 835 513 q 792 412 835 456 q 706 340 749 368 q 708 243 706 310 q 720 246 713 246 q 735 242 728 246 q 749 232 743 238 q 764 216 756 226 q 776 200 772 206 q 788 184 781 194 q 796 172 794 174 q 821 113 821 135 q 813 64 821 92 q 769 -79 781 -18 q 736 -108 764 -108 q 694 -92 706 -108 q 676 -67 682 -76 q 665 -39 669 -57 q 657 -10 660 -21 q 651 22 654 0 q 646 81 647 51 l 644 103 q 631 306 639 169 q 519 290 594 293 q 474 106 497 190 q 399 -28 451 22 q 272 -78 347 -78 q 219 -71 250 -78 q -25 156 40 -22 q -42 236 -42 201 q 28 350 -42 319 q 321 418 178 418 l 450 415 m 625 429 q 614 801 619 551 q 580 610 603 738 q 546 418 557 482 q 625 429 599 424 m 418 289 l 329 289 q 58 265 160 289 q 1 224 1 254 q 39 163 1 200 q 136 105 76 125 q 236 85 196 85 q 303 99 276 85 q 347 128 331 113 q 378 178 363 143 q 418 289 397 221 m 801 1172 q 806 1134 806 1158 q 783 1084 806 1110 q 727 1058 761 1058 q 672 1080 693 1058 q 651 1133 651 1101 q 671 1195 651 1165 q 738 1225 690 1225 q 801 1172 785 1225 m 511 1229 q 559 1205 536 1229 q 582 1145 582 1181 q 563 1084 582 1110 q 514 1058 543 1058 q 465 1085 485 1058 q 446 1151 446 1113 q 511 1229 446 1229 z "},"":{"ha":835,"x_min":-42,"x_max":835,"o":"m 450 415 q 518 876 518 722 l 518 913 q 530 948 518 936 q 555 962 542 960 q 608 964 568 964 q 691 935 647 964 q 735 856 735 906 q 722 735 735 846 q 706 450 710 624 q 781 491 753 469 q 819 513 810 513 q 835 484 835 513 q 792 412 835 456 q 706 340 749 368 q 708 243 706 310 q 720 246 713 246 q 735 242 728 246 q 749 232 743 238 q 764 216 756 226 q 776 200 772 206 q 788 184 781 194 q 796 172 794 174 q 821 113 821 135 q 813 64 821 92 q 769 -79 781 -18 q 736 -108 764 -108 q 694 -92 706 -108 q 676 -67 682 -76 q 665 -39 669 -57 q 657 -10 660 -21 q 651 22 654 0 q 646 81 647 51 l 644 103 q 631 306 639 169 q 519 290 594 293 q 474 106 497 190 q 399 -28 451 22 q 272 -78 347 -78 q 219 -71 250 -78 q -25 156 40 -22 q -42 236 -42 201 q 28 350 -42 319 q 321 418 178 418 l 450 415 m 625 429 q 614 801 619 551 q 580 610 603 738 q 546 418 557 482 q 625 429 599 424 m 418 289 l 329 289 q 58 265 160 289 q 1 224 1 254 q 39 163 1 200 q 136 105 76 125 q 236 85 196 85 q 303 99 276 85 q 347 128 331 113 q 378 178 363 143 q 418 289 397 221 m 664 1358 q 763 1313 721 1358 q 804 1204 804 1268 q 767 1083 804 1150 q 708 1026 747 1049 q 617 1003 668 1003 q 494 1064 535 1003 q 453 1183 453 1125 q 583 1342 453 1290 l 583 1343 q 664 1358 583 1358 m 613 1268 q 566 1244 589 1268 q 543 1186 543 1221 q 614 1110 543 1110 q 682 1136 657 1110 q 707 1197 707 1163 q 699 1226 707 1218 q 685 1239 690 1235 q 669 1248 681 1243 q 653 1254 658 1253 q 613 1268 628 1264 z "},"":{"ha":1213,"x_min":-42,"x_max":1213,"o":"m 321 403 l 446 400 l 450 400 q 458 443 453 411 q 465 486 463 475 q 518 876 518 744 l 518 913 q 530 948 518 936 q 555 962 542 960 q 608 964 568 964 q 691 935 647 964 q 735 856 735 906 q 731 819 735 846 q 722 738 728 792 q 774 808 739 778 q 851 865 810 839 q 949 924 892 892 q 1028 972 1006 957 q 1075 986 1050 986 q 1132 949 1100 986 q 1156 951 1149 951 q 1201 924 1188 951 q 1213 889 1213 897 q 1000 754 1213 839 q 989 751 992 751 q 981 763 981 751 q 994 817 981 775 l 949 794 q 850 733 868 753 q 801 660 817 693 q 786 615 786 626 q 979 568 786 568 l 1003 568 q 1050 589 1040 589 q 1109 551 1074 589 q 1144 463 1144 513 q 1126 446 1144 446 q 1075 454 1121 446 q 1023 439 1061 450 q 971 424 985 428 q 925 408 957 419 q 878 390 893 397 q 838 368 864 382 q 797 339 813 354 q 724 258 743 288 q 688 155 688 208 q 713 74 688 101 q 795 47 738 47 q 933 76 853 47 q 1013 158 1013 104 q 1004 194 1013 176 q 977 211 996 211 q 863 155 958 211 q 763 99 768 99 q 757 108 757 99 q 767 139 757 117 q 869 247 803 207 q 1008 288 936 288 q 1128 246 1079 288 q 1178 151 1178 204 q 1150 61 1178 97 q 828 -50 1065 -50 q 610 64 681 -50 q 571 176 571 124 q 597 296 571 228 q 519 290 564 290 q 472 93 492 163 q 401 -27 453 24 q 272 -78 349 -78 q 219 -71 250 -78 q -25 156 40 -22 q -42 236 -42 201 q 28 350 -42 319 q 321 403 144 403 m 418 289 l 329 289 q 58 264 165 289 q 1 224 1 253 q 39 163 1 200 q 136 105 76 125 q 236 85 196 85 q 303 99 276 85 q 347 128 331 113 q 378 178 363 143 q 418 289 397 221 m 625 414 q 614 801 621 521 q 580 602 603 738 q 546 403 557 467 q 625 414 599 408 m 714 639 q 707 440 703 449 q 846 507 753 474 q 714 639 733 543 z "},"":{"ha":533,"x_min":42,"x_max":499,"o":"m 333 -237 q 235 -192 326 -217 q 174 -157 201 -183 q 147 -90 147 -131 q 168 -21 147 -50 q 68 108 92 17 q 42 301 42 200 q 103 621 42 453 q 258 928 164 789 q 279 944 272 944 q 295 940 286 944 q 315 931 304 936 q 329 924 325 925 l 329 965 q 321 994 321 982 q 333 1007 321 1007 q 356 1003 335 1007 q 478 803 478 960 q 432 618 478 699 q 410 593 418 593 q 389 615 403 593 q 332 853 344 707 q 301 838 311 853 q 268 757 292 822 q 181 272 181 521 q 211 38 181 135 q 367 248 301 122 q 465 506 433 374 q 499 311 499 396 q 360 -15 499 131 q 279 -46 331 -46 q 242 -43 267 -46 q 233 -73 233 -56 q 263 -100 233 -90 q 329 -117 293 -110 q 395 -153 365 -124 q 425 -235 425 -183 q 367 -362 425 -322 q 219 -401 310 -401 q 176 -399 190 -401 q 149 -377 161 -396 q 136 -317 136 -358 q 165 -275 136 -275 q 174 -281 171 -275 q 181 -286 178 -286 q 319 -257 285 -278 q 333 -240 333 -249 l 333 -237 z "},"":{"ha":628,"x_min":-14,"x_max":628,"o":"m 201 615 q 394 568 201 568 l 418 568 q 465 589 456 589 q 524 551 489 589 q 560 463 560 513 q 542 446 560 446 q 490 454 536 446 q 438 439 476 450 q 386 424 400 428 q 340 408 372 419 q 294 390 308 397 q 253 368 279 382 q 211 339 228 354 q 139 258 158 288 q 103 155 103 208 q 128 74 103 101 q 210 47 153 47 q 348 76 268 47 q 428 158 428 104 q 419 194 428 176 q 392 211 411 211 q 278 155 374 211 q 178 99 183 99 q 172 110 172 99 q 182 139 172 122 q 288 247 222 207 q 424 288 353 288 q 544 246 494 288 q 593 151 593 204 q 565 61 593 97 q 243 -50 481 -50 q 25 64 96 -50 q -14 179 -14 124 q 21 315 -14 235 q 113 435 56 394 q 261 507 171 475 q 126 678 126 550 q 190 808 126 754 q 333 906 244 856 q 443 972 421 957 q 490 986 465 986 q 547 949 515 986 q 571 951 564 951 q 617 924 603 951 q 628 889 628 897 q 415 754 628 839 q 404 751 407 751 q 396 763 396 751 q 410 817 396 775 l 364 794 q 265 733 283 753 q 217 658 232 693 q 201 615 201 624 m 440 1078 q 425 1099 436 1082 q 397 1137 414 1115 q 346 1192 381 1158 q 294 1241 311 1225 q 278 1267 278 1257 q 307 1297 278 1281 q 354 1314 336 1314 q 378 1313 372 1314 q 390 1306 383 1311 q 400 1297 396 1301 q 411 1282 404 1293 q 424 1261 418 1271 q 442 1232 431 1251 q 460 1203 454 1213 q 492 1156 465 1194 q 544 1057 544 1075 q 528 1039 544 1039 q 497 1042 511 1039 q 474 1049 483 1046 q 456 1063 465 1053 l 440 1078 z "},"":{"ha":628,"x_min":-14,"x_max":701,"o":"m 201 615 q 394 568 201 568 l 418 568 q 465 589 456 589 q 524 551 489 589 q 560 463 560 513 q 542 446 560 446 q 490 454 536 446 q 438 439 476 450 q 386 424 400 428 q 340 408 372 419 q 294 390 308 397 q 253 368 279 382 q 211 339 228 354 q 139 258 158 288 q 103 155 103 208 q 128 74 103 101 q 210 47 153 47 q 348 76 268 47 q 428 158 428 104 q 419 194 428 176 q 392 211 411 211 q 278 155 374 211 q 178 99 183 99 q 172 110 172 99 q 182 139 172 122 q 288 247 222 207 q 424 288 353 288 q 544 246 494 288 q 593 151 593 204 q 565 61 593 97 q 243 -50 481 -50 q 25 64 96 -50 q -14 179 -14 124 q 21 315 -14 235 q 113 435 56 394 q 261 507 171 475 q 126 678 126 550 q 190 808 126 754 q 333 906 244 856 q 443 972 421 957 q 490 986 465 986 q 547 949 515 986 q 571 951 564 951 q 617 924 603 951 q 628 889 628 897 q 415 754 628 839 q 404 751 407 751 q 396 763 396 751 q 410 817 396 775 l 364 794 q 265 733 283 753 q 217 658 232 693 q 201 615 201 624 m 474 1063 q 588 1249 474 1139 q 615 1277 607 1268 q 622 1299 622 1286 q 631 1311 622 1311 q 683 1272 664 1311 q 701 1214 701 1233 q 671 1150 701 1175 q 589 1085 657 1132 q 503 1039 521 1039 q 480 1047 486 1039 q 474 1063 474 1056 z "},"":{"ha":628,"x_min":-14,"x_max":697,"o":"m 201 615 q 394 568 201 568 l 418 568 q 465 589 456 589 q 524 551 489 589 q 560 463 560 513 q 542 446 560 446 q 490 454 536 446 q 438 439 476 450 q 386 424 400 428 q 340 408 372 419 q 294 390 308 397 q 253 368 279 382 q 211 339 228 354 q 139 258 158 288 q 103 155 103 208 q 128 74 103 101 q 210 47 153 47 q 348 76 268 47 q 428 158 428 104 q 419 194 428 176 q 392 211 411 211 q 278 155 374 211 q 178 99 183 99 q 172 110 172 99 q 182 139 172 122 q 288 247 222 207 q 424 288 353 288 q 544 246 494 288 q 593 151 593 204 q 565 61 593 97 q 243 -50 481 -50 q 25 64 96 -50 q -14 179 -14 124 q 21 315 -14 235 q 113 435 56 394 q 261 507 171 475 q 126 678 126 550 q 190 808 126 754 q 333 906 244 856 q 443 972 421 957 q 490 986 465 986 q 547 949 515 986 q 571 951 564 951 q 617 924 603 951 q 628 889 628 897 q 415 754 628 839 q 404 751 407 751 q 396 763 396 751 q 410 817 396 775 l 364 794 q 265 733 283 753 q 217 658 232 693 q 201 615 201 624 m 697 1056 q 677 1039 697 1039 q 636 1047 657 1039 q 594 1080 615 1056 q 565 1113 572 1104 q 533 1162 557 1122 q 508 1203 510 1201 q 422 1103 479 1158 q 332 1049 364 1049 q 307 1081 307 1049 q 369 1179 307 1113 q 423 1249 400 1214 q 460 1299 446 1283 q 501 1314 474 1314 q 557 1287 529 1314 q 605 1217 585 1260 q 627 1170 625 1174 q 644 1147 629 1167 q 669 1113 660 1126 q 697 1056 697 1075 z "},"":{"ha":628,"x_min":-14,"x_max":686,"o":"m 201 615 q 394 568 201 568 l 418 568 q 465 589 456 589 q 524 551 489 589 q 560 463 560 513 q 542 446 560 446 q 490 454 536 446 q 438 439 476 450 q 386 424 400 428 q 340 408 372 419 q 294 390 308 397 q 253 368 279 382 q 211 339 228 354 q 139 258 158 288 q 103 155 103 208 q 128 74 103 101 q 210 47 153 47 q 348 76 268 47 q 428 158 428 104 q 419 194 428 176 q 392 211 411 211 q 278 155 374 211 q 178 99 183 99 q 172 110 172 99 q 182 139 172 122 q 288 247 222 207 q 424 288 353 288 q 544 246 494 288 q 593 151 593 204 q 565 61 593 97 q 243 -50 481 -50 q 25 64 96 -50 q -14 179 -14 124 q 21 315 -14 235 q 113 435 56 394 q 261 507 171 475 q 126 678 126 550 q 190 808 126 754 q 333 906 244 856 q 443 972 421 957 q 490 986 465 986 q 547 949 515 986 q 571 951 564 951 q 617 924 603 951 q 628 889 628 897 q 415 754 628 839 q 404 751 407 751 q 396 763 396 751 q 410 817 396 775 l 364 794 q 265 733 283 753 q 217 658 232 693 q 201 615 201 624 m 682 1194 q 686 1156 686 1181 q 664 1106 686 1132 q 608 1081 642 1081 q 553 1102 574 1081 q 532 1156 532 1124 q 551 1217 532 1188 q 618 1247 571 1247 q 682 1194 665 1247 m 392 1251 q 440 1227 417 1251 q 463 1167 463 1203 q 443 1106 463 1132 q 394 1081 424 1081 q 346 1108 365 1081 q 326 1174 326 1135 q 392 1251 326 1251 z "},"":{"ha":407,"x_min":28,"x_max":379,"o":"m 288 881 q 268 928 288 928 q 228 899 249 928 q 208 858 208 869 q 215 817 208 847 q 222 753 222 786 q 199 617 222 721 q 160 480 175 514 q 126 446 146 446 q 99 459 111 446 q 72 499 88 472 q 42 544 56 525 q 28 586 28 563 q 71 706 28 610 q 143 860 114 803 q 124 892 124 883 q 147 908 124 908 q 165 903 154 908 q 178 926 168 907 q 192 951 188 944 q 206 973 196 958 q 225 994 217 988 q 275 1011 251 1011 q 378 708 379 1011 q 378 696 378 700 q 303 -39 378 375 q 272 -69 296 -69 q 211 -36 246 -69 q 158 15 176 -3 q 93 86 110 64 q 72 131 72 110 q 88 183 72 151 q 122 214 104 214 q 158 185 140 214 q 186 156 175 156 q 201 177 197 156 q 208 238 204 199 q 253 528 219 319 q 288 838 288 736 l 288 881 m 218 1103 q 203 1124 214 1107 q 175 1162 192 1140 q 124 1217 158 1183 q 72 1266 89 1250 q 56 1292 56 1282 q 85 1322 56 1306 q 132 1339 114 1339 q 156 1338 150 1339 q 167 1331 161 1336 q 178 1322 174 1326 q 189 1307 182 1318 q 202 1286 196 1296 q 220 1257 208 1276 q 238 1228 232 1238 q 269 1181 243 1219 q 322 1082 322 1100 q 306 1064 322 1064 q 275 1067 289 1064 q 252 1074 261 1071 q 233 1088 243 1078 l 218 1103 z "},"":{"ha":407,"x_min":28,"x_max":479,"o":"m 288 881 q 268 928 288 928 q 228 899 249 928 q 208 858 208 869 q 215 817 208 847 q 222 753 222 786 q 199 617 222 721 q 160 480 175 514 q 126 446 146 446 q 99 459 111 446 q 72 499 88 472 q 42 544 56 525 q 28 586 28 563 q 71 706 28 610 q 143 860 114 803 q 124 892 124 883 q 147 908 124 908 q 165 903 154 908 q 178 926 168 907 q 192 951 188 944 q 206 973 196 958 q 225 994 217 988 q 275 1011 251 1011 q 378 708 379 1011 q 378 696 378 700 q 303 -39 378 375 q 272 -69 296 -69 q 211 -36 246 -69 q 158 15 176 -3 q 93 86 110 64 q 72 131 72 110 q 88 183 72 151 q 122 214 104 214 q 158 185 140 214 q 186 156 175 156 q 201 177 197 156 q 208 238 204 199 q 253 528 219 319 q 288 838 288 736 l 288 881 m 251 1088 q 365 1274 251 1164 q 392 1302 385 1293 q 400 1324 400 1311 q 408 1336 400 1336 q 460 1297 442 1336 q 479 1239 479 1258 q 449 1175 479 1200 q 367 1110 435 1157 q 281 1064 299 1064 q 258 1072 264 1064 q 251 1088 251 1081 z "},"":{"ha":407,"x_min":28,"x_max":475,"o":"m 288 881 q 268 928 288 928 q 228 899 249 928 q 208 858 208 869 q 215 817 208 847 q 222 753 222 786 q 199 617 222 721 q 160 480 175 514 q 126 446 146 446 q 99 459 111 446 q 72 499 88 472 q 42 544 56 525 q 28 586 28 563 q 71 706 28 610 q 143 860 114 803 q 124 892 124 883 q 147 908 124 908 q 165 903 154 908 q 178 926 168 907 q 192 951 188 944 q 206 973 196 958 q 225 994 217 988 q 275 1011 251 1011 q 378 708 379 1011 q 378 696 378 700 q 303 -39 378 375 q 272 -69 296 -69 q 211 -36 246 -69 q 158 15 176 -3 q 93 86 110 64 q 72 131 72 110 q 88 183 72 151 q 122 214 104 214 q 158 185 140 214 q 186 156 175 156 q 201 177 197 156 q 208 238 204 199 q 253 528 219 319 q 288 838 288 736 l 288 881 m 475 1081 q 455 1064 475 1064 q 414 1072 435 1064 q 372 1105 393 1081 q 342 1138 350 1129 q 311 1187 335 1147 q 286 1228 288 1226 q 199 1128 257 1183 q 110 1074 142 1074 q 85 1106 85 1074 q 147 1204 85 1138 q 201 1274 178 1239 q 238 1324 224 1308 q 279 1339 251 1339 q 335 1312 307 1339 q 383 1242 363 1285 q 405 1195 403 1199 q 422 1172 407 1192 q 447 1138 438 1151 q 475 1081 475 1100 z "},"":{"ha":407,"x_min":28,"x_max":464,"o":"m 288 881 q 268 928 288 928 q 228 899 249 928 q 208 858 208 869 q 215 817 208 847 q 222 753 222 786 q 199 617 222 721 q 160 480 175 514 q 126 446 146 446 q 99 459 111 446 q 72 499 88 472 q 42 544 56 525 q 28 586 28 563 q 71 706 28 610 q 143 860 114 803 q 124 892 124 883 q 147 908 124 908 q 165 903 154 908 q 178 926 168 907 q 192 951 188 944 q 206 973 196 958 q 225 994 217 988 q 275 1011 251 1011 q 378 708 379 1011 q 378 696 378 700 q 303 -39 378 375 q 272 -69 296 -69 q 211 -36 246 -69 q 158 15 176 -3 q 93 86 110 64 q 72 131 72 110 q 88 183 72 151 q 122 214 104 214 q 158 185 140 214 q 186 156 175 156 q 201 177 197 156 q 208 238 204 199 q 253 528 219 319 q 288 838 288 736 l 288 881 m 460 1219 q 464 1181 464 1206 q 442 1131 464 1157 q 385 1106 419 1106 q 331 1127 351 1106 q 310 1181 310 1149 q 329 1242 310 1213 q 396 1272 349 1272 q 460 1219 443 1272 m 169 1276 q 217 1252 194 1276 q 240 1192 240 1228 q 221 1131 240 1157 q 172 1106 201 1106 q 124 1133 143 1106 q 104 1199 104 1160 q 169 1276 104 1276 z "},"":{"ha":681,"x_min":14,"x_max":667,"o":"m 19 786 l 14 840 q 29 868 14 858 q 253 956 108 921 q 351 968 313 968 q 636 726 549 968 q 667 544 667 640 q 590 253 667 400 q 433 15 514 106 q 339 -32 389 -32 q 261 7 289 -32 q 233 106 233 46 q 256 242 233 167 q 325 336 278 317 q 318 269 318 304 q 342 182 318 233 q 400 131 367 131 q 454 169 433 131 q 540 524 540 325 q 417 829 540 760 q 347 849 381 849 q 275 829 314 849 q 286 699 286 769 q 276 540 286 628 l 372 544 q 408 510 408 544 q 363 444 408 444 l 263 446 q 224 85 224 207 l 224 40 q 207 -7 224 4 q 172 -18 190 -18 q 100 172 121 -18 q 86 275 92 249 q 99 276 90 276 q 157 240 124 276 l 157 276 q 163 444 156 347 q 67 438 93 438 q 33 448 40 438 q 25 476 25 458 q 28 504 25 493 q 40 527 31 515 q 63 539 50 539 l 171 538 q 188 713 188 679 q 182 779 188 747 q 143 750 172 774 q 47 694 75 694 q 18 743 18 694 l 19 786 z "},"":{"ha":835,"x_min":14,"x_max":821,"o":"m 428 31 l 431 6 q 408 -45 431 -24 q 354 -67 385 -67 q 291 -26 324 -67 q 258 44 258 15 q 276 115 258 79 q 286 213 278 125 q 330 508 294 300 q 375 790 365 715 l 375 804 q 351 838 375 838 q 301 813 326 838 q 304 790 304 807 q 267 684 304 774 q 160 413 229 594 q 104 363 139 363 q 42 404 69 363 q 14 476 14 446 q 24 532 14 506 q 103 698 58 615 q 173 829 147 781 q 212 900 199 878 q 239 922 225 922 q 264 919 253 922 q 335 951 290 951 q 424 924 379 951 q 469 785 469 896 q 463 673 469 746 q 454 581 456 600 q 654 982 567 901 q 697 997 669 997 q 776 973 760 997 q 792 884 792 949 q 779 744 792 819 q 740 555 767 669 q 706 403 714 440 q 699 332 699 367 q 703 297 699 297 q 759 372 714 297 q 813 446 804 446 q 821 419 821 446 q 799 222 821 326 q 738 64 778 118 q 667 10 699 10 q 632 26 653 10 q 607 46 611 42 q 561 192 561 96 q 647 694 561 276 q 683 879 674 828 q 522 509 579 704 q 432 65 464 314 l 428 31 m 456 1254 q 473 1254 456 1254 q 540 1215 490 1254 q 606 1175 589 1175 q 635 1192 622 1175 q 658 1226 649 1208 q 685 1243 668 1243 q 715 1217 701 1243 q 729 1169 729 1192 q 698 1094 729 1124 q 628 1065 667 1065 q 535 1106 589 1065 q 465 1147 482 1147 q 435 1126 447 1147 q 411 1085 424 1106 q 382 1064 399 1064 q 356 1083 365 1064 q 346 1122 346 1101 q 383 1214 346 1174 q 456 1254 421 1254 z "},"":{"ha":593,"x_min":42,"x_max":593,"o":"m 593 553 q 510 363 593 440 q 378 40 456 160 q 271 -28 332 -28 q 196 -3 239 -28 q 61 161 81 68 q 42 356 42 254 q 175 897 42 619 q 210 929 192 929 q 275 904 213 929 q 417 985 310 985 q 499 964 472 985 q 558 725 558 917 q 549 576 558 661 l 582 643 q 593 553 593 596 m 446 825 q 435 871 446 849 q 407 893 425 893 q 376 878 389 893 q 346 835 363 863 q 267 525 267 707 q 292 430 267 479 q 360 381 318 381 q 378 383 367 381 q 446 825 446 588 m 353 317 q 274 356 310 328 q 221 424 238 385 q 190 567 190 504 q 199 671 190 629 q 139 392 139 547 q 174 124 139 238 q 213 82 186 82 q 246 107 231 82 q 353 317 306 190 m 342 1076 q 326 1097 338 1081 q 299 1135 315 1114 q 247 1190 282 1157 q 196 1240 213 1224 q 179 1265 179 1256 q 208 1296 179 1279 q 256 1313 238 1313 q 279 1311 274 1313 q 291 1305 285 1310 q 301 1296 297 1300 q 313 1281 306 1292 q 326 1260 319 1269 q 344 1231 332 1250 q 361 1202 356 1211 q 393 1154 367 1193 q 446 1056 446 1074 q 429 1038 446 1038 q 399 1041 413 1038 q 376 1048 385 1044 q 357 1061 367 1051 l 342 1076 z "},"":{"ha":593,"x_min":42,"x_max":603,"o":"m 593 553 q 510 363 593 440 q 378 40 456 160 q 271 -28 332 -28 q 196 -3 239 -28 q 61 161 81 68 q 42 356 42 254 q 175 897 42 619 q 210 929 192 929 q 275 904 213 929 q 417 985 310 985 q 499 964 472 985 q 558 725 558 917 q 549 576 558 661 l 582 643 q 593 553 593 596 m 446 825 q 435 871 446 849 q 407 893 425 893 q 376 878 389 893 q 346 835 363 863 q 267 525 267 707 q 292 430 267 479 q 360 381 318 381 q 378 383 367 381 q 446 825 446 588 m 353 317 q 274 356 310 328 q 221 424 238 385 q 190 567 190 504 q 199 671 190 629 q 139 392 139 547 q 174 124 139 238 q 213 82 186 82 q 246 107 231 82 q 353 317 306 190 m 375 1061 q 489 1247 375 1138 q 516 1276 508 1267 q 524 1297 524 1285 q 532 1310 524 1310 q 584 1271 565 1310 q 603 1213 603 1232 q 572 1149 603 1174 q 490 1084 558 1131 q 405 1038 422 1038 q 381 1046 388 1038 q 375 1061 375 1054 z "},"":{"ha":593,"x_min":42,"x_max":599,"o":"m 593 553 q 510 363 593 440 q 378 40 456 160 q 271 -28 332 -28 q 196 -3 239 -28 q 61 161 81 68 q 42 356 42 254 q 175 897 42 619 q 210 929 192 929 q 275 904 213 929 q 417 985 310 985 q 499 964 472 985 q 558 725 558 917 q 549 576 558 661 l 582 643 q 593 553 593 596 m 446 825 q 435 871 446 849 q 407 893 425 893 q 376 878 389 893 q 346 835 363 863 q 267 525 267 707 q 292 430 267 479 q 360 381 318 381 q 378 383 367 381 q 446 825 446 588 m 353 317 q 274 356 310 328 q 221 424 238 385 q 190 567 190 504 q 199 671 190 629 q 139 392 139 547 q 174 124 139 238 q 213 82 186 82 q 246 107 231 82 q 353 317 306 190 m 599 1054 q 578 1038 599 1038 q 538 1046 558 1038 q 495 1078 517 1054 q 466 1112 474 1103 q 435 1160 458 1121 q 410 1201 411 1200 q 323 1102 381 1157 q 233 1047 265 1047 q 208 1079 208 1047 q 271 1178 208 1111 q 324 1247 301 1213 q 361 1297 347 1282 q 403 1313 375 1313 q 458 1285 431 1313 q 506 1215 486 1258 q 528 1169 526 1172 q 546 1145 531 1165 q 571 1111 561 1125 q 599 1054 599 1074 z "},"":{"ha":593,"x_min":42,"x_max":593,"o":"m 593 553 q 510 363 593 440 q 378 40 456 160 q 271 -28 332 -28 q 196 -3 239 -28 q 61 161 81 68 q 42 356 42 254 q 175 897 42 619 q 210 929 192 929 q 275 904 213 929 q 417 985 310 985 q 499 964 472 985 q 558 725 558 917 q 549 576 558 661 l 582 643 q 593 553 593 596 m 446 825 q 435 871 446 849 q 407 893 425 893 q 376 878 389 893 q 346 835 363 863 q 267 525 267 707 q 292 430 267 479 q 360 381 318 381 q 378 383 367 381 q 446 825 446 588 m 353 317 q 274 356 310 328 q 221 424 238 385 q 190 567 190 504 q 199 671 190 629 q 139 392 139 547 q 174 124 139 238 q 213 82 186 82 q 246 107 231 82 q 353 317 306 190 m 314 1249 q 331 1249 314 1249 q 398 1209 349 1249 q 464 1169 447 1169 q 494 1186 481 1169 q 517 1220 507 1203 q 543 1238 526 1238 q 574 1212 560 1238 q 588 1164 588 1186 q 556 1089 588 1118 q 486 1060 525 1060 q 394 1101 447 1060 q 323 1142 340 1142 q 294 1121 306 1142 q 269 1079 282 1100 q 240 1058 257 1058 q 214 1077 224 1058 q 204 1117 204 1096 q 242 1208 204 1168 q 314 1249 279 1249 z "},"":{"ha":593,"x_min":42,"x_max":593,"o":"m 593 553 q 510 363 593 440 q 378 40 456 160 q 271 -28 332 -28 q 196 -3 239 -28 q 61 161 81 68 q 42 356 42 254 q 175 897 42 619 q 210 929 192 929 q 275 904 213 929 q 417 985 310 985 q 499 964 472 985 q 558 725 558 917 q 549 576 558 661 l 582 643 q 593 553 593 596 m 446 825 q 435 871 446 849 q 407 893 425 893 q 376 878 389 893 q 346 835 363 863 q 267 525 267 707 q 292 430 267 479 q 360 381 318 381 q 378 383 367 381 q 446 825 446 588 m 353 317 q 274 356 310 328 q 221 424 238 385 q 190 567 190 504 q 199 671 190 629 q 139 392 139 547 q 174 124 139 238 q 213 82 186 82 q 246 107 231 82 q 353 317 306 190 m 583 1193 q 588 1155 588 1179 q 565 1105 588 1131 q 509 1079 543 1079 q 454 1101 475 1079 q 433 1154 433 1122 q 453 1216 433 1186 q 519 1246 472 1246 q 583 1193 567 1246 m 293 1250 q 341 1226 318 1250 q 364 1166 364 1201 q 344 1105 364 1131 q 296 1079 325 1079 q 247 1106 267 1079 q 228 1172 228 1133 q 293 1250 228 1250 z "},"":{"ha":556,"x_min":56,"x_max":513,"o":"m 513 303 q 513 297 513 303 q 496 276 513 290 q 457 263 479 263 q 394 294 435 263 q 289 379 340 338 q 165 261 208 311 q 113 218 139 218 q 82 263 82 218 q 92 314 82 289 q 117 344 103 339 q 217 432 149 365 q 101 518 147 479 q 56 565 56 557 q 78 597 56 582 q 118 611 100 611 q 156 597 136 611 q 285 493 175 583 q 432 599 372 564 q 463 614 453 614 q 483 610 474 614 q 502 594 492 607 q 513 568 513 582 q 506 546 513 554 q 485 525 500 538 q 454 501 469 513 q 410 470 439 490 q 361 435 382 450 q 395 410 376 424 q 425 389 414 397 q 449 371 436 381 q 470 356 463 361 q 485 343 478 350 q 497 333 493 336 q 506 325 501 329 q 513 303 513 317 z "},"":{"ha":579,"x_min":-22,"x_max":647,"o":"m 619 1078 l 625 1078 q 629 1076 629 1078 q 631 1072 629 1075 q 633 1067 632 1069 q 642 1038 636 1053 q 647 1007 647 1022 q 554 808 647 963 q 558 725 558 767 q 510 368 558 567 q 378 40 463 169 q 271 -28 332 -28 q 192 0 239 -28 q 114 60 144 28 q 60 -140 71 -49 l 58 -158 q 39 -174 58 -174 q 3 -142 19 -174 q -22 -54 -22 -96 q 61 161 -22 -12 q 42 356 42 250 q 175 897 42 619 q 210 929 192 929 q 275 904 213 929 q 417 985 310 985 l 424 985 q 522 936 494 983 q 601 1061 564 1000 q 619 1078 610 1078 m 161 169 q 213 82 175 82 q 246 107 231 82 q 432 619 389 308 q 161 169 232 318 m 244 525 q 193 628 186 539 q 199 671 194 646 q 139 383 139 547 q 140 315 139 338 q 446 818 251 515 l 446 825 q 435 871 446 849 q 404 893 425 893 q 323 803 368 893 q 263 654 278 713 q 244 525 249 596 z "},"":{"ha":782,"x_min":0,"x_max":782,"o":"m 675 900 q 597 408 597 663 q 636 154 597 154 q 651 161 644 154 q 740 350 732 244 q 747 378 740 378 q 768 355 754 378 q 782 272 782 332 q 734 118 782 213 q 626 24 686 24 q 565 50 593 24 q 528 119 538 76 q 510 217 518 161 q 496 343 503 274 q 483 450 489 413 q 447 299 474 413 q 406 129 421 185 q 288 1 368 1 q 219 24 249 1 q 183 85 190 47 q 167 272 167 163 q 192 497 167 381 q 245 699 218 614 q 272 800 272 785 q 265 815 272 815 q 243 799 258 815 q 208 751 228 782 q 177 698 188 719 q 147 632 167 676 q 119 571 128 588 q 69 531 100 531 q 19 568 38 531 q 0 638 0 606 q 24 696 0 669 q 208 964 113 796 l 228 949 q 267 958 260 958 q 285 955 275 958 q 319 944 294 951 q 353 934 344 938 q 379 922 363 931 q 401 903 396 913 q 418 833 418 871 q 410 762 418 796 q 346 528 401 728 q 278 221 290 329 l 278 208 q 286 185 278 185 q 303 207 294 185 q 524 818 406 457 q 532 860 532 846 l 522 901 q 538 925 522 917 q 599 957 560 940 q 661 974 639 974 q 683 951 683 974 q 675 900 683 928 m 389 1060 q 374 1081 385 1064 q 346 1119 363 1097 q 294 1174 329 1140 q 243 1223 260 1207 q 226 1249 226 1239 q 256 1279 226 1263 q 303 1296 285 1296 q 326 1294 321 1296 q 338 1288 332 1293 q 349 1279 344 1283 q 360 1264 353 1275 q 373 1243 367 1253 q 391 1214 379 1233 q 408 1185 403 1194 q 440 1138 414 1176 q 493 1039 493 1057 q 476 1021 493 1021 q 446 1024 460 1021 q 423 1031 432 1028 q 404 1044 414 1035 l 389 1060 z "},"":{"ha":782,"x_min":0,"x_max":782,"o":"m 675 900 q 597 408 597 663 q 636 154 597 154 q 651 161 644 154 q 740 350 732 244 q 747 378 740 378 q 768 355 754 378 q 782 272 782 332 q 734 118 782 213 q 626 24 686 24 q 565 50 593 24 q 528 119 538 76 q 510 217 518 161 q 496 343 503 274 q 483 450 489 413 q 447 299 474 413 q 406 129 421 185 q 288 1 368 1 q 219 24 249 1 q 183 85 190 47 q 167 272 167 163 q 192 497 167 381 q 245 699 218 614 q 272 800 272 785 q 265 815 272 815 q 243 799 258 815 q 208 751 228 782 q 177 698 188 719 q 147 632 167 676 q 119 571 128 588 q 69 531 100 531 q 19 568 38 531 q 0 638 0 606 q 24 696 0 669 q 208 964 113 796 l 228 949 q 267 958 260 958 q 285 955 275 958 q 319 944 294 951 q 353 934 344 938 q 379 922 363 931 q 401 903 396 913 q 418 833 418 871 q 410 762 418 796 q 346 528 401 728 q 278 221 290 329 l 278 208 q 286 185 278 185 q 303 207 294 185 q 524 818 406 457 q 532 860 532 846 l 522 901 q 538 925 522 917 q 599 957 560 940 q 661 974 639 974 q 683 951 683 974 q 675 900 683 928 m 422 1044 q 536 1231 422 1121 q 563 1259 556 1250 q 571 1281 571 1268 q 579 1293 571 1293 q 631 1254 613 1293 q 650 1196 650 1215 q 619 1132 650 1157 q 538 1067 606 1114 q 452 1021 469 1021 q 428 1029 435 1021 q 422 1044 422 1038 z "},"":{"ha":782,"x_min":0,"x_max":782,"o":"m 675 900 q 597 408 597 663 q 636 154 597 154 q 651 161 644 154 q 740 350 732 244 q 747 378 740 378 q 768 355 754 378 q 782 272 782 332 q 734 118 782 213 q 626 24 686 24 q 565 50 593 24 q 528 119 538 76 q 510 217 518 161 q 496 343 503 274 q 483 450 489 413 q 447 299 474 413 q 406 129 421 185 q 288 1 368 1 q 219 24 249 1 q 183 85 190 47 q 167 272 167 163 q 192 497 167 381 q 245 699 218 614 q 272 800 272 785 q 265 815 272 815 q 243 799 258 815 q 208 751 228 782 q 177 698 188 719 q 147 632 167 676 q 119 571 128 588 q 69 531 100 531 q 19 568 38 531 q 0 638 0 606 q 24 696 0 669 q 208 964 113 796 l 228 949 q 267 958 260 958 q 285 955 275 958 q 319 944 294 951 q 353 934 344 938 q 379 922 363 931 q 401 903 396 913 q 418 833 418 871 q 410 762 418 796 q 346 528 401 728 q 278 221 290 329 l 278 208 q 286 185 278 185 q 303 207 294 185 q 524 818 406 457 q 532 860 532 846 l 522 901 q 538 925 522 917 q 599 957 560 940 q 661 974 639 974 q 683 951 683 974 q 675 900 683 928 m 646 1038 q 626 1021 646 1021 q 585 1029 606 1021 q 542 1062 564 1038 q 513 1095 521 1086 q 482 1144 506 1104 q 457 1185 458 1183 q 370 1085 428 1140 q 281 1031 313 1031 q 256 1063 256 1031 q 318 1161 256 1094 q 372 1231 349 1196 q 408 1281 394 1265 q 450 1296 422 1296 q 506 1269 478 1296 q 553 1199 533 1242 q 576 1152 574 1156 q 593 1128 578 1149 q 618 1094 608 1108 q 646 1038 646 1057 z "},"":{"ha":782,"x_min":0,"x_max":782,"o":"m 675 900 q 597 408 597 663 q 636 154 597 154 q 651 161 644 154 q 740 350 732 244 q 747 378 740 378 q 768 355 754 378 q 782 272 782 332 q 734 118 782 213 q 626 24 686 24 q 565 50 593 24 q 528 119 538 76 q 510 217 518 161 q 496 343 503 274 q 483 450 489 413 q 447 299 474 413 q 406 129 421 185 q 288 1 368 1 q 219 24 249 1 q 183 85 190 47 q 167 272 167 163 q 192 497 167 381 q 245 699 218 614 q 272 800 272 785 q 265 815 272 815 q 243 799 258 815 q 208 751 228 782 q 177 698 188 719 q 147 632 167 676 q 119 571 128 588 q 69 531 100 531 q 19 568 38 531 q 0 638 0 606 q 24 696 0 669 q 208 964 113 796 l 228 949 q 267 958 260 958 q 285 955 275 958 q 319 944 294 951 q 353 934 344 938 q 379 922 363 931 q 401 903 396 913 q 418 833 418 871 q 410 762 418 796 q 346 528 401 728 q 278 221 290 329 l 278 208 q 286 185 278 185 q 303 207 294 185 q 524 818 406 457 q 532 860 532 846 l 522 901 q 538 925 522 917 q 599 957 560 940 q 661 974 639 974 q 683 951 683 974 q 675 900 683 928 m 631 1176 q 635 1138 635 1163 q 613 1088 635 1114 q 556 1063 590 1063 q 501 1084 522 1063 q 481 1138 481 1106 q 500 1199 481 1169 q 567 1229 519 1229 q 631 1176 614 1229 m 340 1233 q 388 1209 365 1233 q 411 1149 411 1185 q 392 1088 411 1114 q 343 1063 372 1063 q 294 1090 314 1063 q 275 1156 275 1117 q 340 1233 275 1233 z "},"":{"ha":718,"x_min":0,"x_max":815,"o":"m 725 1010 q 815 979 815 1010 q 803 944 815 967 q 588 278 632 646 q 572 111 572 158 q 589 88 572 88 q 599 101 594 88 q 607 115 603 115 q 634 84 617 115 q 651 38 651 53 q 586 -146 651 -3 q 535 -200 563 -200 q 518 -194 529 -200 q 460 -8 460 -160 q 501 403 460 144 q 463 349 490 389 q 416 287 435 310 q 368 236 397 264 q 249 179 311 179 q 144 224 186 179 q 106 291 132 238 q 81 406 81 344 q 109 536 81 468 q 167 656 138 604 q 217 742 196 708 q 338 918 256 799 q 346 940 346 932 q 313 960 346 960 q 253 947 281 960 q 221 929 225 935 q 214 910 217 924 l 215 892 q 191 835 215 860 q 139 791 167 811 q 76 771 111 771 q 28 777 42 771 q 8 797 15 783 q 0 858 0 817 q 32 922 0 900 q 71 948 36 925 q 116 978 106 971 q 158 1002 126 985 q 207 1025 189 1019 q 313 1046 265 1046 q 404 1010 361 1046 q 447 917 447 975 q 423 824 447 879 q 327 663 399 769 q 235 522 256 557 q 181 369 181 424 q 206 315 181 315 q 274 355 229 315 q 342 421 318 394 q 398 493 365 447 q 445 563 431 539 q 492 639 460 586 q 542 721 524 692 q 665 939 618 850 q 663 963 663 953 q 725 1010 663 1010 m 551 1088 q 665 1274 551 1164 q 692 1302 685 1293 q 700 1324 700 1311 q 708 1336 700 1336 q 760 1297 742 1336 q 779 1239 779 1258 q 749 1175 779 1200 q 667 1110 735 1157 q 581 1064 599 1064 q 558 1072 564 1064 q 551 1088 551 1081 z "},"":{"ha":606,"x_min":14,"x_max":619,"o":"m 246 79 l 247 58 q 204 -10 247 13 q 149 -26 174 -26 q 96 19 124 -26 q 18 229 50 93 q 14 255 14 239 q 24 271 14 271 q 78 222 35 271 q 131 174 122 174 q 139 199 139 174 q 164 650 139 392 q 156 639 161 647 q 65 579 110 579 q 19 639 19 579 q 83 768 19 733 q 188 817 121 790 q 208 944 194 861 q 225 1043 222 1026 q 219 1083 219 1065 q 233 1100 219 1100 q 264 1081 247 1100 q 301 1011 288 1057 q 315 938 315 965 q 310 874 315 910 l 306 849 q 342 851 331 851 q 542 776 465 851 q 619 592 619 701 q 543 349 619 451 q 326 246 467 246 q 233 272 261 246 q 246 79 233 183 m 250 499 q 367 543 288 543 q 388 537 388 543 q 369 531 388 531 q 338 529 350 531 q 311 524 326 528 q 279 474 279 515 q 331 407 279 407 q 357 410 340 407 q 499 482 451 431 q 546 625 546 533 q 492 710 546 683 q 379 738 438 738 q 283 725 321 738 q 250 499 258 572 z "},"":{"ha":603,"x_min":0,"x_max":582,"o":"m 0 -178 q 175 725 0 322 q 268 885 200 782 q 372 988 336 988 q 543 910 503 988 q 576 741 576 846 q 531 589 576 636 q 374 508 485 542 q 357 496 357 504 q 376 478 357 488 q 514 376 446 450 q 582 218 582 303 q 550 126 582 169 q 292 -1 457 -1 q 213 33 239 -1 q 188 117 188 68 q 197 189 188 165 q 233 231 207 213 q 333 271 294 271 q 343 267 343 271 q 324 249 343 258 q 278 215 306 240 q 251 174 251 189 q 288 160 251 160 q 402 181 325 160 q 479 232 479 203 q 278 397 479 268 q 246 456 246 418 q 269 522 246 494 q 327 573 293 549 q 395 625 361 597 q 453 699 429 653 q 476 798 476 744 q 444 851 476 851 q 331 729 407 851 q 210 464 256 607 q 134 85 165 321 q 103 -311 103 -150 q 110 -368 103 -354 q 125 -394 117 -382 q 158 -461 158 -443 q 149 -479 158 -479 q 94 -451 131 -479 q 47 -406 57 -422 q 0 -178 0 -312 z "},"":{"ha":581,"x_min":14,"x_max":588,"o":"m 329 183 q 156 -21 215 -21 q 78 32 113 -21 q 57 76 68 46 q 30 131 46 106 q 14 198 14 156 q 31 274 14 240 q 271 582 144 499 q 310 594 288 594 q 365 569 332 594 q 389 536 385 550 q 396 499 396 506 q 444 438 444 482 q 428 299 444 407 q 408 139 411 192 q 428 110 408 110 q 508 188 450 110 q 574 265 565 265 q 588 219 588 265 l 585 151 q 550 45 585 113 q 461 -22 515 -22 q 408 0 428 -22 q 388 28 401 7 q 329 183 344 90 m 342 504 q 119 139 167 344 q 342 504 260 260 m 260 686 q 244 707 256 690 q 217 745 233 724 q 165 800 200 767 q 114 849 131 833 q 97 875 97 865 q 126 906 97 889 q 174 922 156 922 q 197 921 192 922 q 209 915 203 919 q 219 906 215 910 q 231 890 224 901 q 244 869 238 879 q 262 840 250 860 q 279 812 274 821 q 311 764 285 803 q 364 665 364 683 q 347 647 364 647 q 317 651 331 647 q 294 658 303 654 q 275 672 285 661 l 260 686 z "},"":{"ha":581,"x_min":14,"x_max":588,"o":"m 329 183 q 156 -21 215 -21 q 78 32 113 -21 q 57 76 68 46 q 30 131 46 106 q 14 198 14 156 q 31 274 14 240 q 271 582 144 499 q 310 594 288 594 q 365 569 332 594 q 389 536 385 550 q 396 499 396 506 q 444 438 444 482 q 428 299 444 407 q 408 139 411 192 q 428 110 408 110 q 508 188 450 110 q 574 265 565 265 q 588 219 588 265 l 585 151 q 550 45 585 113 q 461 -22 515 -22 q 408 0 428 -22 q 388 28 401 7 q 329 183 344 90 m 342 504 q 119 139 167 344 q 342 504 260 260 m 293 671 q 407 858 293 747 q 434 885 426 876 q 442 907 442 894 q 450 919 442 919 q 502 881 483 919 q 521 822 521 842 q 490 758 521 783 q 408 694 476 740 q 323 647 340 647 q 299 656 306 647 q 293 671 293 664 z "},"":{"ha":581,"x_min":14,"x_max":588,"o":"m 329 183 q 156 -21 215 -21 q 78 32 113 -21 q 57 76 68 46 q 30 131 46 106 q 14 198 14 156 q 31 274 14 240 q 271 582 144 499 q 310 594 288 594 q 365 569 332 594 q 389 536 385 550 q 396 499 396 506 q 444 438 444 482 q 428 299 444 407 q 408 139 411 192 q 428 110 408 110 q 508 188 450 110 q 574 265 565 265 q 588 219 588 265 l 585 151 q 550 45 585 113 q 461 -22 515 -22 q 408 0 428 -22 q 388 28 401 7 q 329 183 344 90 m 342 504 q 119 139 167 344 q 342 504 260 260 m 517 664 q 497 647 517 647 q 456 656 476 647 q 413 688 435 664 q 384 722 392 713 q 353 770 376 731 q 328 811 329 810 q 241 712 299 767 q 151 657 183 657 q 126 689 126 657 q 189 789 126 721 q 242 857 219 822 q 279 907 265 892 q 321 922 293 922 q 376 895 349 922 q 424 825 404 868 q 447 778 444 782 q 464 755 449 775 q 489 722 479 735 q 517 664 517 683 z "},"":{"ha":581,"x_min":14,"x_max":588,"o":"m 329 183 q 156 -21 215 -21 q 78 32 113 -21 q 57 76 68 46 q 30 131 46 106 q 14 198 14 156 q 31 274 14 240 q 271 582 144 499 q 310 594 288 594 q 365 569 332 594 q 389 536 385 550 q 396 499 396 506 q 444 438 444 482 q 428 299 444 407 q 408 139 411 192 q 428 110 408 110 q 508 188 450 110 q 574 265 565 265 q 588 219 588 265 l 585 151 q 550 45 585 113 q 461 -22 515 -22 q 408 0 428 -22 q 388 28 401 7 q 329 183 344 90 m 342 504 q 119 139 167 344 q 342 504 260 260 m 232 858 q 249 858 232 858 q 316 819 267 858 q 382 779 365 779 q 412 797 399 779 q 435 831 425 814 q 461 847 444 847 q 492 822 478 847 q 506 774 506 796 q 474 699 506 728 q 404 669 443 669 q 312 710 365 669 q 241 751 258 751 q 212 731 224 751 q 188 689 200 710 q 158 668 175 668 q 132 687 142 668 q 122 726 122 706 q 160 818 122 778 q 232 858 197 858 z "},"":{"ha":581,"x_min":14,"x_max":588,"o":"m 329 183 q 156 -21 215 -21 q 78 32 113 -21 q 57 76 68 46 q 30 131 46 106 q 14 198 14 156 q 31 274 14 240 q 271 582 144 499 q 310 594 288 594 q 365 569 332 594 q 389 536 385 550 q 396 499 396 506 q 444 438 444 482 q 428 299 444 407 q 408 139 411 192 q 428 110 408 110 q 508 188 450 110 q 574 265 565 265 q 588 219 588 265 l 585 151 q 550 45 585 113 q 461 -22 515 -22 q 408 0 428 -22 q 388 28 401 7 q 329 183 344 90 m 342 504 q 119 139 167 344 q 342 504 260 260 m 501 803 q 506 764 506 788 q 483 715 506 740 q 427 689 461 689 q 372 710 393 689 q 351 764 351 732 q 371 826 351 796 q 438 856 390 856 q 501 803 485 856 m 211 860 q 259 835 236 860 q 282 776 282 811 q 263 715 282 740 q 215 689 244 689 q 165 716 185 689 q 146 782 146 743 q 211 860 146 860 z "},"":{"ha":581,"x_min":14,"x_max":588,"o":"m 329 183 q 156 -21 215 -21 q 78 32 113 -21 q 57 76 68 46 q 30 131 46 106 q 14 198 14 156 q 31 274 14 240 q 271 582 144 499 q 310 594 288 594 q 365 569 332 594 q 389 536 385 550 q 396 499 396 506 q 444 438 444 482 q 428 299 444 407 q 408 139 411 192 q 428 110 408 110 q 508 188 450 110 q 574 265 565 265 q 588 219 588 265 l 585 151 q 550 45 585 113 q 461 -22 515 -22 q 408 0 428 -22 q 388 28 401 7 q 329 183 344 90 m 342 504 q 119 139 167 344 q 342 504 260 260 m 364 989 q 463 944 421 989 q 504 835 504 899 q 467 714 504 781 q 408 656 447 679 q 317 633 368 633 q 194 694 235 633 q 153 814 153 756 q 283 972 153 921 l 283 974 q 364 989 283 989 m 313 899 q 266 875 289 899 q 243 817 243 851 q 314 740 243 740 q 382 767 357 740 q 407 828 407 793 q 399 857 407 849 q 385 869 390 865 q 369 878 381 874 q 353 886 358 883 q 313 899 328 894 z "},"":{"ha":728,"x_min":14,"x_max":700,"o":"m 700 183 q 486 -28 700 -28 q 364 10 406 -28 q 296 125 322 49 q 156 -21 210 -21 q 78 32 113 -21 q 57 76 68 46 q 30 131 46 106 q 14 198 14 156 q 31 274 14 240 q 271 582 144 499 q 310 594 288 594 q 365 569 332 594 q 389 536 385 550 q 396 499 396 506 q 426 542 404 542 q 447 524 442 542 q 518 575 476 550 q 593 600 560 600 q 662 561 626 600 q 697 481 697 522 q 639 369 697 440 q 472 236 533 236 q 403 310 428 236 q 390 287 401 307 q 373 257 378 267 q 361 231 368 247 q 346 174 346 199 q 403 117 346 117 q 563 156 497 117 q 694 276 629 196 q 700 183 700 215 m 342 504 q 119 139 167 344 q 342 504 260 260 m 474 351 q 540 406 496 351 q 583 480 583 460 q 569 500 583 500 q 519 464 554 500 q 463 401 483 428 q 460 376 460 385 q 474 351 460 351 z "},"":{"ha":385,"x_min":21,"x_max":374,"o":"m 260 -224 q 161 -178 253 -203 q 101 -143 128 -169 q 74 -72 74 -117 q 100 0 74 -28 q 42 100 63 36 q 21 217 21 164 q 72 436 21 325 q 204 614 122 547 q 250 631 222 631 q 315 599 278 631 q 335 524 335 581 q 301 346 335 467 q 279 315 293 315 q 239 464 253 315 q 236 493 238 488 q 92 139 103 344 l 92 132 q 99 105 90 117 q 121 93 107 93 q 151 99 135 93 q 183 112 168 104 q 218 134 197 119 q 253 159 239 149 q 288 188 267 169 q 319 215 310 206 q 349 241 329 224 q 371 261 368 258 q 374 225 374 249 q 317 53 374 136 q 172 -31 260 -31 l 167 -31 q 160 -58 160 -44 q 190 -86 160 -76 q 256 -103 219 -96 q 322 -140 292 -110 q 351 -221 351 -169 q 294 -348 351 -308 q 146 -387 236 -387 q 102 -385 117 -387 q 75 -363 88 -382 q 63 -303 63 -344 q 92 -261 63 -261 q 101 -267 97 -261 q 107 -272 104 -272 q 246 -243 211 -264 q 260 -226 260 -235 l 260 -224 z "},"":{"ha":468,"x_min":14,"x_max":440,"o":"m 440 183 q 226 -28 440 -28 q 97 18 138 -28 q 25 158 56 64 q 14 235 14 194 q 51 345 14 276 q 132 465 88 414 q 167 542 138 542 q 188 524 182 542 q 258 575 217 550 q 333 600 300 600 q 402 561 367 600 q 438 481 438 522 q 381 369 438 440 q 213 236 274 236 q 143 310 168 236 q 130 287 142 307 q 113 257 118 267 q 100 231 108 247 q 86 174 86 199 q 143 117 86 117 q 303 156 238 117 q 435 276 369 196 q 440 183 440 215 m 214 351 q 280 406 236 351 q 324 480 324 460 q 309 500 324 500 q 259 464 294 500 q 203 401 224 428 q 200 376 200 385 q 214 351 200 351 m 279 692 q 264 713 275 696 q 236 751 253 729 q 185 806 219 772 q 133 855 150 839 q 117 881 117 871 q 146 911 117 894 q 193 928 175 928 q 217 926 211 928 q 228 920 222 925 q 239 911 235 915 q 250 896 243 907 q 263 875 257 885 q 281 846 269 865 q 299 817 293 826 q 331 769 304 808 q 383 671 383 689 q 367 653 383 653 q 336 656 350 653 q 313 663 322 660 q 294 678 304 667 l 279 692 z "},"":{"ha":468,"x_min":14,"x_max":540,"o":"m 440 183 q 226 -28 440 -28 q 97 18 138 -28 q 25 158 56 64 q 14 235 14 194 q 51 345 14 276 q 132 465 88 414 q 167 542 138 542 q 188 524 182 542 q 258 575 217 550 q 333 600 300 600 q 402 561 367 600 q 438 481 438 522 q 381 369 438 440 q 213 236 274 236 q 143 310 168 236 q 130 287 142 307 q 113 257 118 267 q 100 231 108 247 q 86 174 86 199 q 143 117 86 117 q 303 156 238 117 q 435 276 369 196 q 440 183 440 215 m 214 351 q 280 406 236 351 q 324 480 324 460 q 309 500 324 500 q 259 464 294 500 q 203 401 224 428 q 200 376 200 385 q 214 351 200 351 m 313 676 q 426 864 313 753 q 453 891 446 882 q 461 913 461 900 q 469 925 461 925 q 522 886 503 925 q 540 828 540 847 q 510 764 540 789 q 428 699 496 746 q 342 653 360 653 q 319 661 325 653 q 313 676 313 669 z "},"":{"ha":468,"x_min":14,"x_max":536,"o":"m 440 183 q 226 -28 440 -28 q 97 18 138 -28 q 25 158 56 64 q 14 235 14 194 q 51 345 14 276 q 132 465 88 414 q 167 542 138 542 q 188 524 182 542 q 258 575 217 550 q 333 600 300 600 q 402 561 367 600 q 438 481 438 522 q 381 369 438 440 q 213 236 274 236 q 143 310 168 236 q 130 287 142 307 q 113 257 118 267 q 100 231 108 247 q 86 174 86 199 q 143 117 86 117 q 303 156 238 117 q 435 276 369 196 q 440 183 440 215 m 214 351 q 280 406 236 351 q 324 480 324 460 q 309 500 324 500 q 259 464 294 500 q 203 401 224 428 q 200 376 200 385 q 214 351 200 351 m 536 669 q 516 653 536 653 q 475 661 496 653 q 433 694 454 669 q 403 727 411 718 q 372 776 396 736 q 347 817 349 815 q 260 717 318 772 q 171 663 203 663 q 146 694 146 663 q 208 794 146 726 q 262 863 239 828 q 299 913 285 897 q 340 928 313 928 q 396 901 368 928 q 444 831 424 874 q 466 784 464 788 q 483 760 468 781 q 508 728 499 740 q 536 669 536 689 z "},"":{"ha":468,"x_min":14,"x_max":525,"o":"m 440 183 q 226 -28 440 -28 q 97 18 138 -28 q 25 158 56 64 q 14 235 14 194 q 51 345 14 276 q 132 465 88 414 q 167 542 138 542 q 188 524 182 542 q 258 575 217 550 q 333 600 300 600 q 402 561 367 600 q 438 481 438 522 q 381 369 438 440 q 213 236 274 236 q 143 310 168 236 q 130 287 142 307 q 113 257 118 267 q 100 231 108 247 q 86 174 86 199 q 143 117 86 117 q 303 156 238 117 q 435 276 369 196 q 440 183 440 215 m 214 351 q 280 406 236 351 q 324 480 324 460 q 309 500 324 500 q 259 464 294 500 q 203 401 224 428 q 200 376 200 385 q 214 351 200 351 m 521 808 q 525 769 525 793 q 503 720 525 746 q 447 694 481 694 q 392 716 413 694 q 371 769 371 738 q 390 831 371 801 q 457 861 410 861 q 521 808 504 861 m 231 865 q 278 841 256 865 q 301 781 301 817 q 283 720 301 746 q 234 694 264 694 q 185 722 204 694 q 165 788 165 749 q 231 865 165 865 z "},"":{"ha":333,"x_min":-94,"x_max":333,"o":"m 299 339 q 319 363 311 363 q 330 328 326 363 q 333 235 333 293 q 306 112 333 178 q 228 6 279 46 q 174 -17 199 -17 q 134 -6 150 -17 q 106 28 118 4 q 65 114 85 61 q 44 228 44 167 q 54 351 44 289 q 64 435 64 414 q 42 491 64 457 q 19 532 19 525 q 24 547 19 539 q 37 562 29 554 q 52 575 44 569 q 69 589 60 581 q 129 615 101 615 q 177 594 157 615 q 192 543 197 574 q 169 351 189 476 q 146 181 146 200 q 158 161 146 161 q 299 339 186 161 m 68 707 q 53 728 64 711 q 25 766 42 744 q -26 821 8 788 q -78 870 -61 854 q -94 896 -94 886 q -65 926 -94 910 q -18 943 -36 943 q 6 942 0 943 q 17 935 11 940 q 28 926 24 931 q 39 911 32 922 q 52 890 46 900 q 70 861 58 881 q 88 833 82 842 q 119 785 93 824 q 172 686 172 704 q 156 668 172 668 q 125 672 139 668 q 102 678 111 675 q 83 692 93 682 l 68 707 z "},"":{"ha":333,"x_min":19,"x_max":333,"o":"m 299 339 q 319 363 311 363 q 330 328 326 363 q 333 235 333 293 q 306 112 333 178 q 228 6 279 46 q 174 -17 199 -17 q 134 -6 150 -17 q 106 28 118 4 q 65 114 85 61 q 44 228 44 167 q 54 351 44 289 q 64 435 64 414 q 42 491 64 457 q 19 532 19 525 q 24 547 19 539 q 37 562 29 554 q 52 575 44 569 q 69 589 60 581 q 129 615 101 615 q 177 594 157 615 q 192 543 197 574 q 169 351 189 476 q 146 181 146 200 q 158 161 146 161 q 299 339 186 161 m 101 692 q 215 878 101 768 q 242 906 235 897 q 250 928 250 915 q 258 940 250 940 q 310 901 292 940 q 329 843 329 863 q 299 779 329 804 q 217 715 285 761 q 131 668 149 668 q 108 676 114 668 q 101 692 101 685 z "},"":{"ha":333,"x_min":-65,"x_max":333,"o":"m 299 339 q 319 363 311 363 q 330 328 326 363 q 333 235 333 293 q 306 112 333 178 q 228 6 279 46 q 174 -17 199 -17 q 134 -6 150 -17 q 106 28 118 4 q 65 114 85 61 q 44 228 44 167 q 54 351 44 289 q 64 435 64 414 q 42 491 64 457 q 19 532 19 525 q 24 547 19 539 q 37 562 29 554 q 52 575 44 569 q 69 589 60 581 q 129 615 101 615 q 177 594 157 615 q 192 543 197 574 q 169 351 189 476 q 146 181 146 200 q 158 161 146 161 q 299 339 186 161 m 325 685 q 305 668 325 668 q 264 676 285 668 q 222 709 243 685 q 192 742 200 733 q 161 791 185 751 q 136 832 138 831 q 49 733 107 788 q -40 678 -8 678 q -65 710 -65 678 q -3 808 -65 742 q 51 878 28 843 q 88 928 74 913 q 129 943 101 943 q 185 916 157 943 q 233 846 213 889 q 255 799 253 803 q 272 776 257 796 q 297 742 288 756 q 325 685 325 704 z "},"":{"ha":333,"x_min":-46,"x_max":333,"o":"m 299 339 q 319 363 311 363 q 330 328 326 363 q 333 235 333 293 q 306 112 333 178 q 228 6 279 46 q 174 -17 199 -17 q 134 -6 150 -17 q 106 28 118 4 q 65 114 85 61 q 44 228 44 167 q 54 351 44 289 q 64 435 64 414 q 42 491 64 457 q 19 532 19 525 q 24 547 19 539 q 37 562 29 554 q 52 575 44 569 q 69 589 60 581 q 129 615 101 615 q 177 594 157 615 q 192 543 197 574 q 169 351 189 476 q 146 181 146 200 q 158 161 146 161 q 299 339 186 161 m 310 824 q 314 785 314 810 q 292 735 314 761 q 235 710 269 710 q 181 731 201 710 q 160 785 160 753 q 179 847 160 817 q 246 876 199 876 q 310 824 293 876 m 19 881 q 67 856 44 881 q 90 797 90 832 q 72 735 90 761 q 23 710 53 710 q -26 737 -7 710 q -46 803 -46 764 q 19 881 -46 881 z "},"":{"ha":382,"x_min":-42,"x_max":375,"o":"m 192 626 q 247 606 226 624 q 222 719 247 656 q 197 707 206 711 q 175 694 189 703 q 152 679 161 685 q 133 671 143 674 q 107 690 115 665 q 118 758 96 743 q 133 766 124 761 q 156 778 142 771 q 179 790 169 785 q 109 829 143 829 q 44 797 75 829 q 8 764 14 764 q -19 794 -8 763 q -42 938 -42 853 q -27 957 -42 944 q 18 981 -12 969 q 83 993 49 993 q 260 833 190 965 q 314 865 285 846 q 333 896 318 893 q 359 877 344 899 q 375 833 374 856 q 322 765 381 789 q 294 753 321 765 q 357 328 357 574 q 260 29 357 160 q 183 -15 225 -15 q 115 6 140 -15 q 25 263 25 81 q 68 490 25 375 q 192 626 111 604 m 242 418 q 210 546 242 546 q 182 522 194 546 q 126 207 126 390 q 128 138 126 161 q 242 418 242 225 z "},"":{"ha":488,"x_min":33,"x_max":488,"o":"m 488 308 q 481 190 488 240 q 431 56 474 140 q 346 -28 388 -28 q 311 -8 328 -28 q 229 179 229 90 q 247 300 229 206 q 272 458 272 442 q 267 474 272 474 q 257 463 263 474 q 199 317 221 399 q 169 181 176 236 q 154 25 163 125 q 136 -10 154 -10 q 108 6 128 -10 q 33 181 33 69 q 42 311 33 228 q 53 426 51 394 q 90 619 68 619 q 108 592 103 619 q 114 531 114 565 q 116 469 114 497 q 126 442 118 442 q 150 486 135 442 q 195 576 165 531 q 260 621 225 621 q 321 606 294 621 q 381 478 381 575 q 372 396 381 444 q 358 290 364 347 q 351 224 351 232 q 357 217 351 217 q 413 272 368 217 q 475 328 458 328 q 488 308 488 328 m 165 885 q 183 885 165 885 q 249 845 200 885 q 315 806 299 806 q 345 822 332 806 q 368 856 358 839 q 394 874 378 874 q 425 848 411 874 q 439 800 439 822 q 408 725 439 754 q 338 696 376 696 q 245 737 299 696 q 174 778 192 778 q 145 757 157 778 q 121 715 133 736 q 92 694 108 694 q 65 713 75 694 q 56 753 56 732 q 93 844 56 804 q 165 885 131 885 z "},"":{"ha":382,"x_min":3,"x_max":357,"o":"m 357 328 q 260 29 357 160 q 183 -15 225 -15 q 115 6 140 -15 q 25 263 25 81 q 93 585 25 389 q 103 602 99 599 q 117 606 107 606 q 143 620 128 606 q 194 635 158 635 q 265 608 229 635 q 318 538 301 582 q 357 328 357 433 m 242 418 q 210 546 242 546 q 182 522 194 546 q 126 207 126 390 q 128 138 126 161 q 242 418 242 225 m 165 726 q 150 747 161 731 q 122 785 139 764 q 71 840 106 807 q 19 890 36 874 q 3 915 3 906 q 32 946 3 929 q 79 963 61 963 q 103 961 97 963 q 115 955 108 960 q 125 946 121 950 q 136 931 129 942 q 149 910 143 919 q 167 881 156 900 q 185 852 179 861 q 217 804 190 843 q 269 706 269 724 q 253 688 269 688 q 222 691 236 688 q 199 698 208 694 q 181 711 190 701 l 165 726 z "},"":{"ha":382,"x_min":25,"x_max":426,"o":"m 357 328 q 260 29 357 160 q 183 -15 225 -15 q 115 6 140 -15 q 25 263 25 81 q 93 585 25 389 q 103 602 99 599 q 117 606 107 606 q 143 620 128 606 q 194 635 158 635 q 265 608 229 635 q 318 538 301 582 q 357 328 357 433 m 242 418 q 210 546 242 546 q 182 522 194 546 q 126 207 126 390 q 128 138 126 161 q 242 418 242 225 m 199 711 q 313 897 199 788 q 340 926 332 917 q 347 947 347 935 q 356 960 347 960 q 408 921 389 960 q 426 863 426 882 q 396 799 426 824 q 314 734 382 781 q 228 688 246 688 q 205 696 211 688 q 199 711 199 704 z "},"":{"ha":382,"x_min":25,"x_max":422,"o":"m 357 328 q 260 29 357 160 q 183 -15 225 -15 q 115 6 140 -15 q 25 263 25 81 q 93 585 25 389 q 103 602 99 599 q 117 606 107 606 q 143 620 128 606 q 194 635 158 635 q 265 608 229 635 q 318 538 301 582 q 357 328 357 433 m 242 418 q 210 546 242 546 q 182 522 194 546 q 126 207 126 390 q 128 138 126 161 q 242 418 242 225 m 422 704 q 402 688 422 688 q 361 696 382 688 q 319 728 340 704 q 290 762 297 753 q 258 810 282 771 q 233 851 235 850 q 147 752 204 807 q 57 697 89 697 q 32 729 32 697 q 94 828 32 761 q 148 897 125 863 q 185 947 171 932 q 226 963 199 963 q 282 935 254 963 q 330 865 310 908 q 352 819 350 822 q 369 795 354 815 q 394 761 385 775 q 422 704 422 724 z "},"":{"ha":382,"x_min":25,"x_max":411,"o":"m 357 328 q 260 29 357 160 q 183 -15 225 -15 q 115 6 140 -15 q 25 263 25 81 q 93 585 25 389 q 103 602 99 599 q 117 606 107 606 q 143 620 128 606 q 194 635 158 635 q 265 608 229 635 q 318 538 301 582 q 357 328 357 433 m 242 418 q 210 546 242 546 q 182 522 194 546 q 126 207 126 390 q 128 138 126 161 q 242 418 242 225 m 138 899 q 155 899 138 899 q 222 859 172 899 q 288 819 271 819 q 317 836 304 819 q 340 870 331 853 q 367 888 350 888 q 397 862 383 888 q 411 814 411 836 q 380 739 411 768 q 310 710 349 710 q 217 751 271 710 q 147 792 164 792 q 117 771 129 792 q 93 729 106 750 q 64 708 81 708 q 38 727 47 708 q 28 767 28 746 q 65 858 28 818 q 138 899 103 899 z "},"":{"ha":382,"x_min":25,"x_max":411,"o":"m 357 328 q 260 29 357 160 q 183 -15 225 -15 q 115 6 140 -15 q 25 263 25 81 q 93 585 25 389 q 103 602 99 599 q 117 606 107 606 q 143 620 128 606 q 194 635 158 635 q 265 608 229 635 q 318 538 301 582 q 357 328 357 433 m 242 418 q 210 546 242 546 q 182 522 194 546 q 126 207 126 390 q 128 138 126 161 q 242 418 242 225 m 407 843 q 411 805 411 829 q 389 755 411 781 q 333 729 367 729 q 278 751 299 729 q 257 804 257 772 q 276 866 257 836 q 343 896 296 896 q 407 843 390 896 m 117 900 q 165 876 142 900 q 188 816 188 851 q 169 755 188 781 q 120 729 150 729 q 71 756 90 729 q 51 822 51 783 q 117 900 51 900 z "},"":{"ha":556,"x_min":43,"x_max":524,"o":"m 78 488 l 482 475 q 512 449 500 475 q 524 411 524 422 q 472 375 524 375 l 251 383 l 90 381 q 43 447 43 381 q 78 488 43 488 m 351 245 q 351 225 351 245 q 333 184 351 206 q 285 163 314 163 q 235 188 256 163 q 215 251 215 214 q 233 310 215 288 q 277 333 250 333 q 328 309 304 333 q 351 245 351 285 m 340 544 q 330 534 340 544 q 292 524 321 524 q 243 550 263 524 q 224 613 224 576 q 241 672 224 650 q 285 694 258 694 q 335 669 311 694 q 358 605 358 644 q 340 544 358 565 z "},"":{"ha":363,"x_min":-68,"x_max":372,"o":"m 240 29 q 152 -15 206 -15 q 58 47 99 -15 q 13 -133 6 -78 q 0 -161 17 -164 q -43 -120 -18 -160 q -68 -59 -68 -81 q -47 6 -68 -37 q 19 139 -26 49 q 6 263 6 199 q 74 585 6 389 q 83 602 79 599 q 98 606 88 606 q 124 620 108 606 q 164 635 139 635 q 267 588 226 635 q 338 713 303 653 q 368 683 354 747 q 372 614 379 629 q 307 513 342 568 q 338 328 338 418 q 240 29 338 160 m 104 299 l 222 510 q 190 553 214 553 q 104 299 131 553 m 103 110 q 231 386 228 194 q 100 144 151 251 q 103 110 100 118 z "},"":{"ha":469,"x_min":7,"x_max":469,"o":"m 58 632 l 125 644 q 185 621 157 644 q 202 607 188 618 q 225 589 217 596 q 247 553 247 568 q 222 469 247 539 q 169 322 197 400 q 133 217 133 226 q 140 207 133 207 q 224 339 151 207 q 333 546 296 471 q 372 572 347 572 q 431 524 431 572 q 394 367 431 496 q 349 181 349 196 q 356 167 349 167 q 388 240 364 167 q 421 313 411 313 q 435 300 426 313 q 469 167 469 228 q 426 26 469 106 q 372 -11 407 -11 q 340 0 350 -11 q 307 43 313 32 q 264 163 281 76 q 239 111 254 144 q 181 4 207 38 q 138 -19 164 -19 q 82 17 113 -19 q 35 157 36 79 q 51 303 35 235 q 100 468 67 371 l 104 485 q 94 496 104 496 l 63 488 q 29 515 39 488 q 7 624 7 565 q 21 640 7 640 l 58 632 m 236 726 q 221 747 232 731 q 193 785 210 764 q 142 840 176 807 q 90 890 107 874 q 74 915 74 906 q 103 946 74 929 q 150 963 132 963 q 174 961 168 963 q 185 955 179 960 q 196 946 192 950 q 207 931 200 942 q 220 910 214 919 q 238 881 226 900 q 256 852 250 861 q 286 804 261 843 q 340 706 340 724 q 324 688 340 688 q 293 691 307 688 q 270 698 279 694 q 250 711 261 701 l 236 726 z "},"":{"ha":469,"x_min":7,"x_max":497,"o":"m 58 632 l 125 644 q 185 621 157 644 q 202 607 188 618 q 225 589 217 596 q 247 553 247 568 q 222 469 247 539 q 169 322 197 400 q 133 217 133 226 q 140 207 133 207 q 224 339 151 207 q 333 546 296 471 q 372 572 347 572 q 431 524 431 572 q 394 367 431 496 q 349 181 349 196 q 356 167 349 167 q 388 240 364 167 q 421 313 411 313 q 435 300 426 313 q 469 167 469 228 q 426 26 469 106 q 372 -11 407 -11 q 340 0 350 -11 q 307 43 313 32 q 264 163 281 76 q 239 111 254 144 q 181 4 207 38 q 138 -19 164 -19 q 82 17 113 -19 q 35 157 36 79 q 51 303 35 235 q 100 468 67 371 l 104 485 q 94 496 104 496 l 63 488 q 29 515 39 488 q 7 624 7 565 q 21 640 7 640 l 58 632 m 269 711 q 383 897 269 788 q 410 926 403 917 q 418 947 418 935 q 426 960 418 960 q 478 921 460 960 q 497 863 497 882 q 467 799 497 824 q 385 734 453 781 q 299 688 317 688 q 276 696 282 688 q 269 711 269 704 z "},"":{"ha":469,"x_min":7,"x_max":493,"o":"m 58 632 l 125 644 q 185 621 157 644 q 202 607 188 618 q 225 589 217 596 q 247 553 247 568 q 222 469 247 539 q 169 322 197 400 q 133 217 133 226 q 140 207 133 207 q 224 339 151 207 q 333 546 296 471 q 372 572 347 572 q 431 524 431 572 q 394 367 431 496 q 349 181 349 196 q 356 167 349 167 q 388 240 364 167 q 421 313 411 313 q 435 300 426 313 q 469 167 469 228 q 426 26 469 106 q 372 -11 407 -11 q 340 0 350 -11 q 307 43 313 32 q 264 163 281 76 q 239 111 254 144 q 181 4 207 38 q 138 -19 164 -19 q 82 17 113 -19 q 35 157 36 79 q 51 303 35 235 q 100 468 67 371 l 104 485 q 94 496 104 496 l 63 488 q 29 515 39 488 q 7 624 7 565 q 21 640 7 640 l 58 632 m 493 704 q 473 688 493 688 q 432 696 453 688 q 390 728 411 704 q 360 762 368 753 q 329 810 353 771 q 304 851 306 850 q 217 752 275 807 q 128 697 160 697 q 103 729 103 697 q 164 828 103 761 q 219 897 196 863 q 256 947 242 932 q 297 963 269 963 q 353 935 325 963 q 401 865 381 908 q 423 819 421 822 q 440 795 425 815 q 465 761 456 775 q 493 704 493 724 z "},"":{"ha":469,"x_min":7,"x_max":482,"o":"m 58 632 l 125 644 q 185 621 157 644 q 202 607 188 618 q 225 589 217 596 q 247 553 247 568 q 222 469 247 539 q 169 322 197 400 q 133 217 133 226 q 140 207 133 207 q 224 339 151 207 q 333 546 296 471 q 372 572 347 572 q 431 524 431 572 q 394 367 431 496 q 349 181 349 196 q 356 167 349 167 q 388 240 364 167 q 421 313 411 313 q 435 300 426 313 q 469 167 469 228 q 426 26 469 106 q 372 -11 407 -11 q 340 0 350 -11 q 307 43 313 32 q 264 163 281 76 q 239 111 254 144 q 181 4 207 38 q 138 -19 164 -19 q 82 17 113 -19 q 35 157 36 79 q 51 303 35 235 q 100 468 67 371 l 104 485 q 94 496 104 496 l 63 488 q 29 515 39 488 q 7 624 7 565 q 21 640 7 640 l 58 632 m 478 843 q 482 805 482 829 q 460 755 482 781 q 403 729 438 729 q 349 751 369 729 q 328 804 328 772 q 347 866 328 836 q 414 896 367 896 q 478 843 461 896 m 188 900 q 235 876 213 900 q 258 816 258 851 q 239 755 258 781 q 190 729 219 729 q 142 756 161 729 q 122 822 122 783 q 188 900 122 900 z "},"":{"ha":526,"x_min":-3,"x_max":521,"o":"m -3 565 q 25 583 -3 586 q 46 583 33 583 q 99 597 58 583 q 163 610 139 610 q 208 591 186 610 q 247 543 229 572 q 265 483 265 514 q 205 317 265 451 q 144 174 144 183 q 156 164 144 164 q 249 244 178 164 q 283 292 264 263 q 311 338 301 322 q 338 390 321 353 q 361 439 356 428 q 407 544 388 494 q 440 568 418 568 q 482 542 463 568 q 501 489 501 515 q 429 103 501 443 q 349 -275 357 -237 q 335 -444 342 -312 q 306 -487 335 -487 q 288 -483 296 -487 q 186 -306 186 -442 l 186 -212 q 204 -183 186 -183 q 240 -207 221 -183 q 260 -233 258 -231 l 335 138 q 236 37 272 63 q 149 11 200 11 q 68 58 99 11 q 38 165 38 106 q 125 457 38 289 q 62 447 86 447 q 26 472 38 447 q 9 520 21 483 q -3 565 -3 557 m 293 683 q 407 869 293 760 q 434 898 426 889 q 442 919 442 907 q 450 932 442 932 q 502 893 483 932 q 521 835 521 854 q 490 771 521 796 q 408 706 476 753 q 323 660 340 660 q 299 668 306 660 q 293 683 293 676 z "},"":{"ha":460,"x_min":21,"x_max":439,"o":"m 110 -214 l 114 -246 q 100 -278 114 -262 q 69 -293 86 -293 q 25 -74 25 -293 q 51 411 25 144 q 38 426 46 418 q 21 451 21 443 q 39 475 21 460 q 61 511 57 490 q 83 676 68 572 q 51 704 51 676 q 55 726 51 715 q 81 803 58 736 q 128 979 128 938 l 121 1021 q 139 1038 121 1038 q 157 1035 146 1038 q 240 939 240 1018 q 206 751 240 901 q 161 554 171 601 q 244 585 206 585 q 381 508 324 585 q 439 350 439 431 q 432 283 439 321 q 299 28 389 97 q 243 3 268 3 q 201 23 218 3 q 178 75 185 43 q 165 207 165 132 q 182 282 165 282 q 197 246 185 282 q 233 210 208 210 q 271 235 258 210 q 314 333 293 274 q 335 424 335 392 q 304 457 335 457 q 265 447 289 457 q 209 404 242 438 q 160 333 176 371 q 113 159 124 244 q 103 -48 103 74 q 110 -214 103 -169 z "},"":{"ha":526,"x_min":-3,"x_max":506,"o":"m -3 565 q 25 583 -3 586 q 46 583 33 583 q 99 597 58 583 q 163 610 139 610 q 208 591 186 610 q 247 543 229 572 q 265 483 265 514 q 205 317 265 451 q 144 174 144 183 q 156 164 144 164 q 249 244 178 164 q 283 292 264 263 q 311 338 301 322 q 338 390 321 353 q 361 439 356 428 q 407 544 388 494 q 440 568 418 568 q 482 542 463 568 q 501 489 501 515 q 429 103 501 443 q 349 -275 357 -237 q 335 -444 342 -312 q 306 -487 335 -487 q 288 -483 296 -487 q 186 -306 186 -442 l 186 -212 q 204 -183 186 -183 q 240 -207 221 -183 q 260 -233 258 -231 l 335 138 q 236 37 272 63 q 149 11 200 11 q 68 58 99 11 q 38 165 38 106 q 125 457 38 289 q 62 447 86 447 q 26 472 38 447 q 9 520 21 483 q -3 565 -3 557 m 501 815 q 506 776 506 800 q 483 727 506 753 q 427 701 461 701 q 372 723 393 701 q 351 776 351 744 q 371 838 351 808 q 438 868 390 868 q 501 815 485 868 m 211 872 q 259 848 236 872 q 282 788 282 824 q 263 727 282 753 q 215 701 244 701 q 165 728 185 701 q 146 794 146 756 q 211 872 146 872 z "},"":{"ha":835,"x_min":-42,"x_max":835,"o":"m 450 415 q 518 876 518 722 l 518 913 q 530 948 518 936 q 555 962 542 960 q 608 964 568 964 q 691 935 647 964 q 735 856 735 906 q 722 735 735 846 q 706 450 710 624 q 781 491 753 469 q 819 513 810 513 q 835 484 835 513 q 792 412 835 456 q 706 340 749 368 q 708 243 706 310 q 720 246 713 246 q 735 242 728 246 q 749 232 743 238 q 764 216 756 226 q 776 200 772 206 q 788 184 781 194 q 796 172 794 174 q 821 113 821 135 q 813 64 821 92 q 769 -79 781 -18 q 736 -108 764 -108 q 694 -92 706 -108 q 676 -67 682 -76 q 665 -39 669 -57 q 657 -10 660 -21 q 651 22 654 0 q 646 81 647 51 l 644 103 q 631 306 639 169 q 519 290 594 293 q 474 106 497 190 q 399 -28 451 22 q 272 -78 347 -78 q 219 -71 250 -78 q -25 156 40 -22 q -42 236 -42 201 q 28 350 -42 319 q 321 418 178 418 l 450 415 m 625 429 q 614 801 619 551 q 580 610 603 738 q 546 418 557 482 q 625 429 599 424 m 418 289 l 329 289 q 58 265 160 289 q 1 224 1 254 q 39 163 1 200 q 136 105 76 125 q 236 85 196 85 q 303 99 276 85 q 347 128 331 113 q 378 178 363 143 q 418 289 397 221 m 476 1192 l 622 1185 q 717 1194 682 1185 q 761 1204 753 1204 q 784 1178 775 1204 q 793 1133 793 1151 q 781 1102 793 1115 q 743 1085 769 1089 q 663 1079 710 1079 l 479 1072 q 447 1142 463 1072 l 447 1153 q 454 1183 447 1175 q 476 1192 461 1192 z "},"":{"ha":581,"x_min":14,"x_max":588,"o":"m 329 183 q 156 -21 215 -21 q 78 32 113 -21 q 57 76 68 46 q 30 131 46 106 q 14 198 14 156 q 31 274 14 240 q 271 582 144 499 q 310 594 288 594 q 365 569 332 594 q 389 536 385 550 q 396 499 396 506 q 444 438 444 482 q 428 299 444 407 q 408 139 411 192 q 428 110 408 110 q 508 188 450 110 q 574 265 565 265 q 588 219 588 265 l 585 151 q 550 45 585 113 q 461 -22 515 -22 q 408 0 428 -22 q 388 28 401 7 q 329 183 344 90 m 342 504 q 119 139 167 344 q 342 504 260 260 m 176 822 l 322 815 q 417 825 382 815 q 461 835 453 835 q 484 808 475 835 q 493 764 493 782 q 481 733 493 746 q 444 715 469 719 q 363 710 410 710 l 179 703 q 147 772 163 703 l 147 783 q 154 814 147 806 q 176 822 161 822 z "},"":{"ha":835,"x_min":-42,"x_max":835,"o":"m 450 415 q 518 876 518 722 l 518 913 q 530 948 518 936 q 555 962 542 960 q 608 964 568 964 q 691 935 647 964 q 735 856 735 906 q 722 735 735 846 q 706 450 710 624 q 781 491 753 469 q 819 513 810 513 q 835 484 835 513 q 792 412 835 456 q 706 340 749 368 q 708 243 706 310 q 720 246 713 246 q 735 242 728 246 q 749 232 743 238 q 764 216 756 226 q 776 200 772 206 q 788 184 781 194 q 796 172 794 174 q 821 113 821 135 q 813 64 821 92 q 769 -79 781 -18 q 736 -108 764 -108 q 694 -92 706 -108 q 676 -67 682 -76 q 665 -39 669 -57 q 657 -10 660 -21 q 651 22 654 0 q 646 81 647 51 l 644 103 q 631 306 639 169 q 519 290 594 293 q 474 106 497 190 q 399 -28 451 22 q 272 -78 347 -78 q 219 -71 250 -78 q -25 156 40 -22 q -42 236 -42 201 q 28 350 -42 319 q 321 418 178 418 l 450 415 m 625 429 q 614 801 619 551 q 580 610 603 738 q 546 418 557 482 q 625 429 599 424 m 418 289 l 329 289 q 58 265 160 289 q 1 224 1 254 q 39 163 1 200 q 136 105 76 125 q 236 85 196 85 q 303 99 276 85 q 347 128 331 113 q 378 178 363 143 q 418 289 397 221 m 415 1264 q 494 1201 453 1264 q 535 1160 510 1179 q 595 1140 561 1140 q 656 1160 629 1140 q 696 1204 683 1181 q 765 1268 729 1268 q 797 1248 778 1268 q 815 1218 815 1228 q 765 1102 815 1174 q 631 1031 715 1031 q 472 1110 547 1031 q 397 1239 397 1189 q 415 1264 397 1264 z "},"":{"ha":581,"x_min":14,"x_max":588,"o":"m 329 183 q 156 -21 215 -21 q 78 32 113 -21 q 57 76 68 46 q 30 131 46 106 q 14 198 14 156 q 31 274 14 240 q 271 582 144 499 q 310 594 288 594 q 365 569 332 594 q 389 536 385 550 q 396 499 396 506 q 444 438 444 482 q 428 299 444 407 q 408 139 411 192 q 428 110 408 110 q 508 188 450 110 q 574 265 565 265 q 588 219 588 265 l 585 151 q 550 45 585 113 q 461 -22 515 -22 q 408 0 428 -22 q 388 28 401 7 q 329 183 344 90 m 342 504 q 119 139 167 344 q 342 504 260 260 m 115 894 q 167 864 142 894 q 224 802 193 833 q 292 771 254 771 q 356 791 329 771 q 396 835 383 811 q 465 899 429 899 q 497 878 478 899 q 515 849 515 858 q 465 733 515 804 q 331 661 415 661 q 172 740 247 661 q 97 869 97 819 q 115 894 97 894 z "},"":{"ha":835,"x_min":-42,"x_max":918,"o":"m 450 415 q 518 876 518 722 l 518 913 q 530 948 518 936 q 555 962 542 960 q 608 964 568 964 q 691 935 647 964 q 735 856 735 906 q 722 735 735 846 q 706 450 710 624 q 781 491 753 469 q 819 513 810 513 q 835 484 835 513 q 792 412 835 456 q 706 340 749 368 q 708 243 706 310 q 720 246 713 246 q 735 242 728 246 q 749 232 743 238 q 764 216 756 226 q 776 200 772 206 q 788 184 781 194 q 796 172 794 174 q 821 113 821 135 q 813 64 821 92 q 754 -14 801 46 q 681 -167 681 -106 q 700 -206 681 -194 q 808 -176 744 -206 q 888 -146 871 -146 q 908 -174 899 -146 q 918 -218 918 -201 q 854 -303 906 -271 q 721 -336 803 -336 q 634 -288 683 -336 q 585 -192 585 -240 q 612 -81 585 -144 q 667 15 639 -18 q 644 94 650 19 q 631 306 639 169 q 519 290 594 293 q 474 106 497 190 q 399 -28 451 22 q 272 -78 347 -78 q 219 -71 250 -78 q -25 156 40 -22 q -42 236 -42 201 q 28 350 -42 319 q 321 418 178 418 l 446 415 l 450 415 m 418 289 l 329 289 q 58 264 165 289 q 1 224 1 253 q 39 163 1 200 q 136 105 76 125 q 236 85 196 85 q 303 99 276 85 q 347 128 331 113 q 378 178 363 143 q 418 289 397 221 m 625 429 q 614 801 619 551 q 580 610 603 738 q 546 418 557 482 q 625 429 599 424 z "},"":{"ha":581,"x_min":14,"x_max":643,"o":"m 588 219 l 585 151 q 557 79 585 118 q 495 10 529 40 q 433 -60 461 -19 q 406 -134 406 -101 q 425 -178 406 -167 q 533 -148 469 -178 q 613 -118 596 -118 q 633 -146 624 -118 q 643 -190 643 -174 q 579 -276 631 -243 q 446 -308 528 -308 q 359 -260 408 -308 q 310 -166 310 -212 q 335 -67 310 -119 q 392 21 360 -15 q 388 28 390 22 q 329 183 344 90 q 156 -21 215 -21 q 78 32 113 -21 q 57 76 68 46 q 30 131 46 106 q 14 198 14 156 q 31 274 14 240 q 271 582 144 499 q 310 594 288 594 q 365 569 332 594 q 389 536 385 550 q 396 499 396 506 q 444 438 444 482 l 443 417 q 426 286 440 379 q 408 143 411 193 l 408 139 q 428 110 408 110 q 508 188 450 110 q 574 265 565 265 q 588 219 588 265 m 342 504 q 119 139 167 344 q 342 504 260 260 z "},"":{"ha":533,"x_min":42,"x_max":565,"o":"m 499 311 q 360 -15 499 131 q 279 -46 331 -46 q 142 -4 196 -46 q 42 301 42 72 q 103 621 42 453 q 258 928 164 789 q 279 944 272 944 q 295 940 286 944 q 315 931 304 936 q 329 924 325 925 l 329 965 q 321 994 321 982 q 332 1007 321 1007 q 356 1003 343 1007 q 478 803 478 961 q 432 618 478 713 q 410 593 419 593 q 389 615 403 593 q 332 853 344 707 q 301 838 311 853 q 268 757 292 822 q 181 272 181 521 q 211 38 181 135 q 367 248 301 122 q 465 506 433 374 q 499 311 499 396 m 338 1083 q 451 1269 338 1160 q 478 1298 471 1289 q 486 1319 486 1307 q 494 1332 486 1332 q 547 1293 528 1332 q 565 1235 565 1254 q 535 1171 565 1196 q 453 1106 521 1153 q 367 1060 385 1060 q 344 1068 350 1060 q 338 1083 338 1076 z "},"":{"ha":385,"x_min":21,"x_max":461,"o":"m 374 225 q 317 53 374 136 q 172 -31 260 -31 q 62 53 103 -31 q 21 231 21 138 q 72 436 21 325 q 204 614 122 547 q 250 631 222 631 q 315 599 278 631 q 335 524 335 581 q 301 346 335 467 q 279 315 293 315 q 239 464 253 315 q 236 493 238 488 q 130 323 168 418 q 92 139 92 228 q 122 93 92 93 q 289 188 175 93 q 319 215 310 206 q 349 241 329 224 q 371 261 368 258 q 374 225 374 249 m 233 707 q 347 894 233 783 q 374 922 367 913 q 382 943 382 931 q 390 956 382 956 q 442 917 424 956 q 461 858 461 878 q 431 794 461 819 q 349 730 417 776 q 263 683 281 683 q 240 692 246 683 q 233 707 233 700 z "},"":{"ha":533,"x_min":42,"x_max":561,"o":"m 499 311 q 360 -15 499 131 q 279 -46 331 -46 q 142 -4 196 -46 q 42 301 42 72 q 103 621 42 453 q 258 928 164 789 q 279 944 272 944 q 295 940 286 944 q 315 931 304 936 q 329 924 325 925 l 329 965 q 321 994 321 982 q 332 1007 321 1007 q 356 1003 343 1007 q 478 803 478 961 q 432 618 478 713 q 410 593 419 593 q 389 615 403 593 q 332 853 344 707 q 301 838 311 853 q 268 757 292 822 q 181 272 181 521 q 211 38 181 135 q 367 248 301 122 q 465 506 433 374 q 499 311 499 396 m 561 1076 q 541 1060 561 1060 q 500 1068 521 1060 q 458 1101 479 1076 q 428 1134 436 1125 q 397 1183 421 1143 q 372 1224 374 1222 q 285 1124 343 1179 q 196 1069 228 1069 q 171 1101 171 1069 q 233 1200 171 1133 q 287 1269 264 1235 q 324 1319 310 1304 q 365 1335 338 1335 q 421 1308 393 1335 q 469 1238 449 1281 q 491 1191 489 1194 q 508 1167 493 1188 q 533 1133 524 1147 q 561 1076 561 1096 z "},"":{"ha":385,"x_min":21,"x_max":457,"o":"m 374 225 q 317 53 374 136 q 172 -31 260 -31 q 62 53 103 -31 q 21 231 21 138 q 72 436 21 325 q 204 614 122 547 q 250 631 222 631 q 315 599 278 631 q 335 524 335 581 q 301 346 335 467 q 279 315 293 315 q 239 464 253 315 q 236 493 238 488 q 130 323 168 418 q 92 139 92 228 q 122 93 92 93 q 289 188 175 93 q 319 215 310 206 q 349 241 329 224 q 371 261 368 258 q 374 225 374 249 m 457 700 q 437 683 457 683 q 396 692 417 683 q 353 724 375 700 q 324 758 332 749 q 293 806 317 767 q 268 847 269 846 q 181 748 239 803 q 92 693 124 693 q 67 725 67 693 q 128 825 67 757 q 183 893 160 858 q 219 943 206 928 q 261 958 233 958 q 317 931 289 958 q 365 861 344 904 q 387 815 385 818 q 404 791 389 811 q 429 758 419 771 q 457 700 457 719 z "},"":{"ha":533,"x_min":42,"x_max":499,"o":"m 499 311 q 360 -15 499 131 q 279 -46 331 -46 q 142 -4 196 -46 q 42 301 42 72 q 103 621 42 453 q 258 928 164 789 q 279 944 272 944 q 295 940 286 944 q 315 931 304 936 q 329 924 325 925 l 329 965 q 321 994 321 982 q 332 1007 321 1007 q 356 1003 343 1007 q 478 803 478 961 q 432 618 478 713 q 410 593 419 593 q 389 615 403 593 q 332 853 344 707 q 301 838 311 853 q 268 757 292 822 q 181 272 181 521 q 211 38 181 135 q 367 248 301 122 q 465 506 433 374 q 499 311 499 396 m 275 1186 q 275 1205 275 1186 q 297 1250 275 1224 q 357 1276 318 1276 q 422 1247 396 1276 q 447 1176 447 1217 q 426 1112 447 1136 q 364 1088 404 1088 q 299 1118 324 1088 q 275 1186 275 1149 z "},"":{"ha":385,"x_min":21,"x_max":374,"o":"m 374 225 q 317 53 374 136 q 172 -31 260 -31 q 62 53 103 -31 q 21 231 21 138 q 72 436 21 325 q 204 614 122 547 q 250 631 222 631 q 315 599 278 631 q 335 524 335 581 q 301 346 335 467 q 279 315 293 315 q 239 464 253 315 q 236 493 238 488 q 130 323 168 418 q 92 139 92 228 q 122 93 92 93 q 289 188 175 93 q 319 215 310 206 q 349 241 329 224 q 371 261 368 258 q 374 225 374 249 m 171 810 q 171 828 171 810 q 192 874 171 847 q 253 900 214 900 q 317 870 292 900 q 343 800 343 840 q 322 735 343 760 q 260 711 300 711 q 195 742 219 711 q 171 810 171 772 z "},"":{"ha":533,"x_min":42,"x_max":556,"o":"m 499 311 q 360 -15 499 131 q 279 -46 331 -46 q 142 -4 196 -46 q 42 301 42 72 q 103 621 42 453 q 258 928 164 789 q 279 944 272 944 q 295 940 286 944 q 315 931 304 936 q 329 924 325 925 l 329 965 q 321 994 321 982 q 332 1007 321 1007 q 356 1003 343 1007 q 478 803 478 961 q 432 618 478 713 q 410 593 419 593 q 389 615 403 593 q 332 853 344 707 q 301 838 311 853 q 268 757 292 822 q 181 272 181 521 q 211 38 181 135 q 367 248 301 122 q 465 506 433 374 q 499 311 499 396 m 374 1060 q 301 1093 332 1060 q 299 1106 301 1101 q 263 1163 297 1111 q 198 1265 229 1215 q 167 1325 167 1315 q 183 1335 167 1335 q 212 1330 199 1335 q 238 1313 225 1325 q 261 1292 251 1301 q 285 1263 271 1283 q 306 1233 299 1243 q 344 1171 333 1193 q 438 1285 394 1244 q 499 1325 482 1325 q 535 1305 515 1325 q 556 1274 556 1285 q 545 1248 556 1263 q 510 1207 535 1233 q 472 1166 485 1181 q 440 1121 460 1151 q 406 1075 421 1090 q 374 1060 392 1060 z "},"":{"ha":385,"x_min":21,"x_max":451,"o":"m 374 225 q 317 53 374 136 q 172 -31 260 -31 q 62 53 103 -31 q 21 231 21 138 q 72 436 21 325 q 204 614 122 547 q 250 631 222 631 q 315 599 278 631 q 335 524 335 581 q 301 346 335 467 q 279 315 293 315 q 239 464 253 315 q 236 493 238 488 q 130 323 168 418 q 92 139 92 228 q 122 93 92 93 q 289 188 175 93 q 319 215 310 206 q 349 241 329 224 q 371 261 368 258 q 374 225 374 249 m 269 683 q 197 717 228 683 q 195 730 197 725 q 159 787 193 735 q 94 889 125 839 q 63 949 63 939 q 78 958 63 958 q 108 953 94 958 q 134 937 121 949 q 157 916 147 925 q 181 887 167 907 q 200 858 194 867 q 240 794 229 817 q 334 908 290 868 q 394 949 378 949 q 431 928 411 949 q 451 897 451 908 q 441 872 451 886 q 406 831 431 857 q 368 790 381 804 q 336 744 356 775 q 302 699 317 714 q 269 683 288 683 z "},"":{"ha":681,"x_min":14,"x_max":667,"o":"m 19 786 l 14 840 q 29 868 14 858 q 253 956 108 921 q 351 968 313 968 q 636 726 549 968 q 667 544 667 640 q 590 253 667 400 q 433 15 514 106 q 339 -32 389 -32 q 261 7 289 -32 q 233 106 233 46 q 256 242 233 167 q 325 336 278 317 q 318 269 318 304 q 342 182 318 233 q 400 131 367 131 q 454 169 433 131 q 540 524 540 325 q 417 829 540 760 q 347 849 381 849 q 275 829 314 849 q 286 678 286 769 q 255 388 286 588 q 224 85 224 189 l 224 40 q 207 -7 224 4 q 172 -18 190 -18 q 100 172 121 -18 q 86 275 92 249 q 99 276 90 276 q 157 240 124 276 l 157 276 q 186 676 156 386 q 188 717 188 688 q 182 779 188 747 q 143 750 172 774 q 47 694 75 694 q 18 743 18 694 l 19 786 m 363 1021 q 290 1054 321 1021 q 288 1067 290 1063 q 252 1124 286 1072 q 187 1226 218 1176 q 156 1286 156 1276 q 172 1296 156 1296 q 201 1291 188 1296 q 227 1274 214 1286 q 250 1253 240 1263 q 274 1224 260 1244 q 294 1194 288 1204 q 333 1132 322 1154 q 427 1246 383 1206 q 488 1286 471 1286 q 524 1266 504 1286 q 544 1235 544 1246 q 534 1209 544 1224 q 499 1168 524 1194 q 461 1127 474 1142 q 429 1082 449 1113 q 395 1036 410 1051 q 363 1021 381 1021 z "},"":{"ha":575,"x_min":21,"x_max":644,"o":"m 531 197 l 535 125 q 494 49 535 49 q 439 82 463 49 q 403 142 415 115 q 378 194 390 169 q 356 251 365 218 q 347 222 354 247 l 336 185 q 310 103 319 124 q 291 59 301 83 q 269 20 281 35 q 246 -8 258 6 q 185 -37 221 -37 q 117 3 150 -37 q 33 169 60 69 q 21 265 21 211 q 54 385 21 319 q 154 531 88 451 q 278 610 221 610 q 347 581 308 610 q 375 793 356 656 q 399 973 394 931 q 428 1015 403 1015 q 466 988 454 1015 q 478 935 478 961 q 474 886 478 908 q 435 240 435 489 q 456 203 435 203 q 501 235 476 203 q 533 268 525 268 q 540 257 540 268 l 531 197 m 311 463 q 295 479 311 479 q 257 465 279 479 q 138 340 185 425 q 92 171 92 256 q 124 119 92 119 q 151 135 136 119 q 306 438 229 217 q 311 463 311 451 m 644 872 q 614 744 644 817 q 555 672 583 672 q 519 719 526 672 q 531 799 519 739 q 542 878 542 860 q 531 921 542 896 q 521 956 521 946 q 543 972 521 972 q 614 935 583 972 q 644 872 644 899 z "},"":{"ha":681,"x_min":14,"x_max":667,"o":"m 19 786 l 14 840 q 29 868 14 858 q 253 956 108 921 q 351 968 313 968 q 636 726 549 968 q 667 544 667 640 q 590 253 667 400 q 433 15 514 106 q 339 -32 389 -32 q 261 7 289 -32 q 233 106 233 46 q 256 242 233 167 q 325 336 278 317 q 318 269 318 304 q 342 182 318 233 q 400 131 367 131 q 454 169 433 131 q 540 524 540 325 q 417 829 540 760 q 347 849 381 849 q 275 829 314 849 q 286 699 286 769 q 276 540 286 628 l 372 544 q 408 510 408 544 q 363 444 408 444 l 263 446 q 224 85 224 207 l 224 40 q 207 -7 224 4 q 172 -18 190 -18 q 100 172 121 -18 q 86 275 92 249 q 99 276 90 276 q 157 240 124 276 l 157 276 q 163 444 156 347 q 67 438 93 438 q 33 448 40 438 q 25 476 25 458 q 28 504 25 493 q 40 527 31 515 q 63 539 50 539 l 171 538 q 188 713 188 679 q 182 779 188 747 q 143 750 172 774 q 47 694 75 694 q 18 743 18 694 l 19 786 z "},"":{"ha":533,"x_min":21,"x_max":574,"o":"m 363 715 l 246 713 q 211 779 211 713 q 236 819 211 819 q 375 813 250 819 l 378 813 l 399 967 q 428 1015 403 1015 q 466 988 454 1015 q 478 935 478 961 q 475 892 478 908 q 465 808 471 867 q 532 807 494 807 q 562 781 550 807 q 574 743 574 754 q 522 707 574 707 q 457 710 501 707 q 436 365 436 488 q 438 229 436 242 q 456 203 438 203 q 501 235 476 203 q 533 268 525 268 q 540 257 540 268 l 531 197 l 535 125 q 494 49 535 49 q 439 82 463 49 q 403 142 415 115 q 378 194 390 169 q 356 251 365 218 q 347 222 354 247 l 336 185 q 310 103 319 124 q 291 59 301 83 q 269 20 281 35 q 246 -8 258 6 q 185 -37 221 -37 q 117 3 150 -37 q 33 169 60 69 q 21 265 21 211 q 54 385 21 319 q 154 531 88 451 q 278 610 221 610 q 347 581 308 610 q 364 715 350 611 l 363 715 m 311 463 q 295 479 311 479 q 257 465 279 479 q 138 340 185 425 q 92 171 92 256 q 124 119 92 119 q 151 135 136 119 q 306 438 229 217 q 311 463 311 451 z "},"":{"ha":628,"x_min":-14,"x_max":674,"o":"m 201 615 q 394 568 201 568 l 418 568 q 465 589 456 589 q 524 551 489 589 q 560 463 560 513 q 542 446 560 446 q 490 454 536 446 q 438 439 476 450 q 386 424 400 428 q 340 408 372 419 q 294 390 308 397 q 253 368 279 382 q 211 339 228 354 q 139 258 158 288 q 103 155 103 208 q 128 74 103 101 q 210 47 153 47 q 348 76 268 47 q 428 158 428 104 q 419 194 428 176 q 392 211 411 211 q 278 155 374 211 q 178 99 183 99 q 172 110 172 99 q 182 139 172 122 q 288 247 222 207 q 424 288 353 288 q 544 246 494 288 q 593 151 593 204 q 565 61 593 97 q 243 -50 481 -50 q 25 64 96 -50 q -14 179 -14 124 q 21 315 -14 235 q 113 435 56 394 q 261 507 171 475 q 126 678 126 550 q 190 808 126 754 q 333 906 244 856 q 443 972 421 957 q 490 986 465 986 q 547 949 515 986 q 571 951 564 951 q 617 924 603 951 q 628 889 628 897 q 415 754 628 839 q 404 751 407 751 q 396 763 396 751 q 410 817 396 775 l 364 794 q 265 733 283 753 q 217 658 232 693 q 201 615 201 624 m 357 1214 l 503 1207 q 598 1217 563 1207 q 642 1226 633 1226 q 665 1200 656 1226 q 674 1156 674 1174 q 662 1124 674 1138 q 624 1107 650 1111 q 543 1101 590 1101 l 360 1094 q 328 1164 343 1094 l 328 1175 q 335 1206 328 1197 q 357 1214 342 1214 z "},"":{"ha":468,"x_min":14,"x_max":513,"o":"m 440 183 q 226 -28 440 -28 q 97 18 138 -28 q 25 158 56 64 q 14 235 14 194 q 51 345 14 276 q 132 465 88 414 q 167 542 138 542 q 188 524 182 542 q 258 575 217 550 q 333 600 300 600 q 402 561 367 600 q 438 481 438 522 q 381 369 438 440 q 213 236 274 236 q 143 310 168 236 q 130 287 142 307 q 113 257 118 267 q 100 231 108 247 q 86 174 86 199 q 143 117 86 117 q 303 156 238 117 q 435 276 369 196 q 440 183 440 215 m 214 351 q 280 406 236 351 q 324 480 324 460 q 309 500 324 500 q 259 464 294 500 q 203 401 224 428 q 200 376 200 385 q 214 351 200 351 m 196 828 l 342 821 q 437 831 401 821 q 481 840 472 840 q 503 814 494 840 q 513 769 513 788 q 501 738 513 751 q 464 721 489 725 q 382 715 429 715 l 199 708 q 167 778 182 708 l 167 789 q 174 819 167 811 q 196 828 181 828 z "},"":{"ha":628,"x_min":-14,"x_max":696,"o":"m 201 615 q 394 568 201 568 l 418 568 q 465 589 456 589 q 524 551 489 589 q 560 463 560 513 q 542 446 560 446 q 490 454 536 446 q 438 439 476 450 q 386 424 400 428 q 340 408 372 419 q 294 390 308 397 q 253 368 279 382 q 211 339 228 354 q 139 258 158 288 q 103 155 103 208 q 128 74 103 101 q 210 47 153 47 q 348 76 268 47 q 428 158 428 104 q 419 194 428 176 q 392 211 411 211 q 278 155 374 211 q 178 99 183 99 q 172 110 172 99 q 182 139 172 122 q 288 247 222 207 q 424 288 353 288 q 544 246 494 288 q 593 151 593 204 q 565 61 593 97 q 243 -50 481 -50 q 25 64 96 -50 q -14 179 -14 124 q 21 315 -14 235 q 113 435 56 394 q 261 507 171 475 q 126 678 126 550 q 190 808 126 754 q 333 906 244 856 q 443 972 421 957 q 490 986 465 986 q 547 949 515 986 q 571 951 564 951 q 617 924 603 951 q 628 889 628 897 q 415 754 628 839 q 404 751 407 751 q 396 763 396 751 q 410 817 396 775 l 364 794 q 265 733 283 753 q 217 658 232 693 q 201 615 201 624 m 296 1286 q 375 1224 333 1286 q 416 1182 390 1201 q 476 1163 442 1163 q 537 1183 510 1163 q 576 1226 564 1203 q 646 1290 610 1290 q 677 1270 658 1290 q 696 1240 696 1250 q 646 1124 696 1196 q 512 1053 596 1053 q 353 1132 428 1053 q 278 1261 278 1211 q 296 1286 278 1286 z "},"":{"ha":468,"x_min":14,"x_max":535,"o":"m 440 183 q 226 -28 440 -28 q 97 18 138 -28 q 25 158 56 64 q 14 235 14 194 q 51 345 14 276 q 132 465 88 414 q 167 542 138 542 q 188 524 182 542 q 258 575 217 550 q 333 600 300 600 q 402 561 367 600 q 438 481 438 522 q 381 369 438 440 q 213 236 274 236 q 143 310 168 236 q 130 287 142 307 q 113 257 118 267 q 100 231 108 247 q 86 174 86 199 q 143 117 86 117 q 303 156 238 117 q 435 276 369 196 q 440 183 440 215 m 214 351 q 280 406 236 351 q 324 480 324 460 q 309 500 324 500 q 259 464 294 500 q 203 401 224 428 q 200 376 200 385 q 214 351 200 351 m 135 900 q 187 869 161 900 q 243 808 213 839 q 311 776 274 776 q 376 797 349 776 q 415 840 403 817 q 485 904 449 904 q 516 884 497 904 q 535 854 535 864 q 485 738 535 810 q 351 667 435 667 q 192 746 267 667 q 117 875 117 825 q 135 900 117 900 z "},"":{"ha":628,"x_min":-14,"x_max":628,"o":"m 201 615 q 394 568 201 568 l 418 568 q 465 589 456 589 q 524 551 489 589 q 560 463 560 513 q 542 446 560 446 q 490 454 536 446 q 438 439 476 450 q 386 424 400 428 q 340 408 372 419 q 294 390 308 397 q 253 368 279 382 q 211 339 228 354 q 139 258 158 288 q 103 155 103 208 q 128 74 103 101 q 210 47 153 47 q 348 76 268 47 q 428 158 428 104 q 419 194 428 176 q 392 211 411 211 q 278 155 374 211 q 178 99 183 99 q 172 110 172 99 q 182 139 172 122 q 288 247 222 207 q 424 288 353 288 q 544 246 494 288 q 593 151 593 204 q 565 61 593 97 q 243 -50 481 -50 q 25 64 96 -50 q -14 179 -14 124 q 21 315 -14 235 q 113 435 56 394 q 261 507 171 475 q 126 678 126 550 q 190 808 126 754 q 333 906 244 856 q 443 972 421 957 q 490 986 465 986 q 547 949 515 986 q 571 951 564 951 q 617 924 603 951 q 628 889 628 897 q 415 754 628 839 q 404 751 407 751 q 396 763 396 751 q 410 817 396 775 l 364 794 q 265 733 283 753 q 217 658 232 693 q 201 615 201 624 m 411 1165 q 411 1184 411 1165 q 433 1229 411 1203 q 493 1256 454 1256 q 558 1226 532 1256 q 583 1156 583 1196 q 562 1091 583 1115 q 500 1067 540 1067 q 435 1097 460 1067 q 411 1165 411 1128 z "},"":{"ha":468,"x_min":14,"x_max":440,"o":"m 440 183 q 226 -28 440 -28 q 97 18 138 -28 q 25 158 56 64 q 14 235 14 194 q 51 345 14 276 q 132 465 88 414 q 167 542 138 542 q 188 524 182 542 q 258 575 217 550 q 333 600 300 600 q 402 561 367 600 q 438 481 438 522 q 381 369 438 440 q 213 236 274 236 q 143 310 168 236 q 130 287 142 307 q 113 257 118 267 q 100 231 108 247 q 86 174 86 199 q 143 117 86 117 q 303 156 238 117 q 435 276 369 196 q 440 183 440 215 m 214 351 q 280 406 236 351 q 324 480 324 460 q 309 500 324 500 q 259 464 294 500 q 203 401 224 428 q 200 376 200 385 q 214 351 200 351 m 250 779 q 250 798 250 779 q 272 843 250 817 q 332 869 293 869 q 397 840 371 869 q 422 769 422 810 q 401 705 422 729 q 339 681 379 681 q 274 711 299 681 q 250 779 250 742 z "},"":{"ha":628,"x_min":-14,"x_max":628,"o":"m 201 615 q 394 568 201 568 l 418 568 q 465 589 456 589 q 524 551 489 589 q 560 463 560 513 q 542 446 560 446 q 490 454 536 446 q 438 439 476 450 q 386 424 400 428 q 340 408 372 419 q 294 390 308 397 q 253 368 279 382 q 211 339 228 354 q 139 258 158 288 q 103 155 103 208 q 128 74 103 101 q 210 47 153 47 q 348 76 268 47 q 428 158 428 104 q 419 194 428 176 q 392 211 411 211 q 278 155 374 211 q 178 99 183 99 q 172 108 172 99 q 182 139 172 117 q 288 247 222 207 q 424 288 354 288 q 544 246 494 288 q 593 149 593 204 q 571 66 593 94 q 501 10 549 38 q 433 -35 453 -18 q 394 -93 413 -51 q 376 -165 376 -135 q 396 -206 376 -194 q 503 -176 440 -206 q 583 -146 567 -146 q 604 -174 594 -146 q 614 -218 614 -201 q 550 -303 601 -271 q 417 -336 499 -336 q 330 -288 379 -336 q 281 -179 281 -240 q 353 -35 281 -118 q 243 -50 314 -50 q 25 64 96 -50 q -14 179 -14 124 q 21 315 -14 235 q 113 435 56 394 q 261 507 171 475 q 126 678 126 550 q 190 808 126 754 q 333 906 244 856 q 443 972 421 957 q 490 986 465 986 q 547 949 515 986 q 571 951 564 951 q 617 924 603 951 q 628 889 628 897 q 415 754 628 839 q 404 751 407 751 q 396 763 396 751 q 410 817 396 775 l 364 794 q 265 733 283 753 q 217 660 232 693 q 201 615 201 626 z "},"":{"ha":468,"x_min":14,"x_max":454,"o":"m 257 -336 q 170 -288 219 -336 q 121 -185 121 -240 q 140 -102 121 -149 q 189 -21 160 -56 q 87 29 124 -18 q 32 135 50 76 q 14 235 14 194 q 51 345 14 276 q 132 465 88 414 q 167 542 138 542 q 188 524 182 542 q 258 575 217 550 q 333 600 300 600 q 402 561 367 600 q 438 481 438 522 q 381 369 438 440 q 213 236 274 236 q 143 310 168 236 q 130 287 142 307 q 113 257 118 267 q 100 231 108 247 q 86 174 86 199 q 143 117 86 117 q 303 156 238 117 q 435 276 369 196 q 440 183 440 215 q 434 126 440 151 q 421 85 428 101 q 395 52 414 69 q 365 26 376 35 q 282 -29 343 10 q 236 -92 256 -49 q 217 -165 217 -135 q 236 -206 217 -194 q 344 -176 281 -206 q 424 -146 407 -146 q 444 -174 435 -146 q 454 -218 454 -201 q 390 -303 442 -271 q 257 -336 339 -336 m 214 351 q 280 406 236 351 q 324 480 324 460 q 309 500 324 500 q 259 464 294 500 q 203 401 224 428 q 200 376 200 385 q 214 351 200 351 z "},"":{"ha":628,"x_min":-14,"x_max":692,"o":"m 201 615 q 394 568 201 568 l 418 568 q 465 589 456 589 q 524 551 489 589 q 560 463 560 513 q 542 446 560 446 q 490 454 536 446 q 438 439 476 450 q 386 424 400 428 q 340 408 372 419 q 294 390 308 397 q 253 368 279 382 q 211 339 228 354 q 139 258 158 288 q 103 155 103 208 q 128 74 103 101 q 210 47 153 47 q 348 76 268 47 q 428 158 428 104 q 419 194 428 176 q 392 211 411 211 q 278 155 374 211 q 178 99 183 99 q 172 110 172 99 q 182 139 172 122 q 288 247 222 207 q 424 288 353 288 q 544 246 494 288 q 593 151 593 204 q 565 61 593 97 q 243 -50 481 -50 q 25 64 96 -50 q -14 179 -14 124 q 21 315 -14 235 q 113 435 56 394 q 261 507 171 475 q 126 678 126 550 q 190 808 126 754 q 333 906 244 856 q 443 972 421 957 q 490 986 465 986 q 547 949 515 986 q 571 951 564 951 q 617 924 603 951 q 628 889 628 897 q 415 754 628 839 q 404 751 407 751 q 396 763 396 751 q 410 817 396 775 l 364 794 q 265 733 283 753 q 217 658 232 693 q 201 615 201 624 m 510 1039 q 438 1072 468 1039 q 435 1085 438 1081 q 399 1142 433 1090 q 334 1244 365 1194 q 303 1304 303 1294 q 319 1314 303 1314 q 348 1309 335 1314 q 374 1292 361 1304 q 397 1272 388 1281 q 421 1242 407 1263 q 442 1213 435 1222 q 481 1150 469 1172 q 574 1264 531 1224 q 635 1304 618 1304 q 672 1284 651 1304 q 692 1253 692 1264 q 681 1227 692 1242 q 646 1186 671 1213 q 608 1145 621 1160 q 576 1100 596 1131 q 542 1054 557 1069 q 510 1039 528 1039 z "},"":{"ha":468,"x_min":14,"x_max":531,"o":"m 440 183 q 226 -28 440 -28 q 97 18 138 -28 q 25 158 56 64 q 14 235 14 194 q 51 345 14 276 q 132 465 88 414 q 167 542 138 542 q 188 524 182 542 q 258 575 217 550 q 333 600 300 600 q 402 561 367 600 q 438 481 438 522 q 381 369 438 440 q 213 236 274 236 q 143 310 168 236 q 130 287 142 307 q 113 257 118 267 q 100 231 108 247 q 86 174 86 199 q 143 117 86 117 q 303 156 238 117 q 435 276 369 196 q 440 183 440 215 m 214 351 q 280 406 236 351 q 324 480 324 460 q 309 500 324 500 q 259 464 294 500 q 203 401 224 428 q 200 376 200 385 q 214 351 200 351 m 349 653 q 276 686 307 653 q 274 699 276 694 q 238 756 272 704 q 173 858 204 808 q 142 918 142 908 q 158 928 142 928 q 187 923 174 928 q 213 906 200 918 q 236 885 226 894 q 260 856 246 876 q 281 828 274 836 q 319 764 308 786 q 413 878 369 838 q 474 918 457 918 q 510 898 490 918 q 531 867 531 878 q 520 841 531 856 q 485 800 510 826 q 447 759 460 774 q 415 714 435 744 q 381 668 396 683 q 349 653 367 653 z "},"":{"ha":615,"x_min":42,"x_max":632,"o":"m 344 383 l 321 382 q 256 403 281 382 q 231 439 231 425 q 249 462 231 453 q 367 517 267 471 q 508 582 468 563 q 566 601 547 601 q 608 581 585 601 q 632 542 632 561 q 625 512 632 524 q 603 490 618 500 q 578 473 589 479 q 548 458 568 467 q 524 446 528 449 q 493 415 493 432 l 497 403 q 533 268 533 335 q 463 61 533 168 q 294 -31 399 -31 q 167 -3 225 -31 q 85 81 108 24 q 42 311 42 189 q 54 454 42 400 q 73 538 67 508 q 97 615 79 567 q 122 683 115 663 q 153 759 129 704 q 183 826 178 814 q 249 967 222 914 q 302 999 263 999 q 386 984 342 999 q 451 947 431 969 q 490 866 490 906 q 440 747 490 826 q 425 681 425 725 q 404 661 422 661 q 385 668 393 661 q 374 683 376 675 q 369 704 372 690 q 364 722 365 718 q 350 850 350 761 q 339 868 350 868 q 281 749 328 868 q 171 278 171 476 q 188 104 171 171 q 224 75 194 75 q 286 118 253 75 q 379 346 379 239 q 344 383 379 383 m 567 1068 q 547 1051 567 1051 q 506 1060 526 1051 q 463 1092 485 1068 q 434 1126 442 1117 q 403 1174 426 1135 q 378 1215 379 1214 q 291 1116 349 1171 q 201 1061 233 1061 q 176 1093 176 1061 q 239 1192 176 1125 q 292 1261 269 1226 q 329 1311 315 1296 q 371 1326 343 1326 q 426 1299 399 1326 q 474 1229 454 1272 q 497 1183 494 1186 q 514 1159 499 1179 q 539 1125 529 1139 q 567 1068 567 1088 z "},"":{"ha":482,"x_min":14,"x_max":572,"o":"m 186 -214 l 189 -199 q 197 -184 189 -187 q 211 -177 206 -181 q 225 -167 217 -174 q 258 -153 244 -153 q 280 -157 271 -153 q 292 -161 289 -161 q 307 -104 307 -161 q 333 214 314 31 q 228 78 293 150 q 124 7 163 7 q 60 42 85 7 q 14 192 14 107 q 146 464 14 317 q 215 535 192 514 q 286 602 238 557 q 374 647 335 647 q 433 619 413 647 q 454 556 454 592 q 438 460 454 521 q 449 440 449 453 q 446 413 449 426 q 376 -101 383 21 q 368 -294 368 -224 l 369 -368 q 360 -398 369 -386 q 335 -410 350 -410 q 284 -383 319 -410 q 217 -356 249 -356 l 185 -358 q 168 -343 168 -358 l 186 -214 m 351 446 q 358 478 358 463 q 347 493 358 493 q 338 490 343 493 q 193 383 256 450 q 100 235 131 317 q 94 206 94 218 q 115 178 94 178 q 140 186 126 178 q 261 300 204 229 q 351 446 318 371 m 572 717 q 552 700 572 700 q 511 708 532 700 q 469 741 490 717 q 440 774 447 765 q 408 823 432 783 q 383 864 385 863 q 297 765 354 819 q 207 710 239 710 q 182 742 182 710 q 244 842 182 774 q 298 910 275 875 q 335 960 321 944 q 376 975 349 975 q 432 948 404 975 q 480 878 460 921 q 502 831 500 835 q 519 808 504 828 q 544 775 535 788 q 572 717 572 736 z "},"":{"ha":615,"x_min":42,"x_max":632,"o":"m 344 383 l 321 382 q 256 403 281 382 q 231 439 231 425 q 249 462 231 453 q 367 517 267 471 q 508 582 468 563 q 566 601 547 601 q 608 581 585 601 q 632 542 632 561 q 625 512 632 524 q 603 490 618 500 q 578 473 589 479 q 548 458 568 467 q 524 446 528 449 q 493 415 493 432 l 497 403 q 533 268 533 335 q 463 61 533 168 q 294 -31 399 -31 q 167 -3 225 -31 q 85 81 108 24 q 42 311 42 189 q 54 454 42 400 q 73 538 67 508 q 97 615 79 567 q 122 683 115 663 q 153 759 129 704 q 183 826 178 814 q 249 967 222 914 q 302 999 263 999 q 386 984 342 999 q 451 947 431 969 q 490 866 490 906 q 440 747 490 826 q 425 681 425 725 q 404 661 422 661 q 385 668 393 661 q 374 683 376 675 q 369 704 372 690 q 364 722 365 718 q 350 850 350 761 q 339 868 350 868 q 281 749 328 868 q 171 278 171 476 q 188 104 171 171 q 224 75 194 75 q 286 118 253 75 q 379 346 379 239 q 344 383 379 383 m 165 1299 q 244 1236 203 1299 q 285 1194 260 1214 q 345 1175 311 1175 q 406 1195 379 1175 q 446 1239 433 1215 q 515 1303 479 1303 q 547 1283 528 1303 q 565 1253 565 1263 q 515 1137 565 1208 q 381 1065 465 1065 q 222 1144 297 1065 q 147 1274 147 1224 q 165 1299 147 1299 z "},"":{"ha":482,"x_min":14,"x_max":571,"o":"m 186 -214 l 189 -199 q 197 -184 189 -187 q 211 -177 206 -181 q 225 -167 217 -174 q 258 -153 244 -153 q 280 -157 271 -153 q 292 -161 289 -161 q 307 -104 307 -161 q 333 214 314 31 q 228 78 293 150 q 124 7 163 7 q 60 42 85 7 q 14 192 14 107 q 146 464 14 317 q 215 535 192 514 q 286 602 238 557 q 374 647 335 647 q 433 619 413 647 q 454 556 454 592 q 438 460 454 521 q 449 440 449 453 q 446 413 449 426 q 376 -101 383 21 q 368 -294 368 -224 l 369 -368 q 360 -398 369 -386 q 335 -410 350 -410 q 284 -383 319 -410 q 217 -356 249 -356 l 185 -358 q 168 -343 168 -358 l 186 -214 m 351 446 q 358 478 358 463 q 347 493 358 493 q 338 490 343 493 q 193 383 256 450 q 100 235 131 317 q 94 206 94 218 q 115 178 94 178 q 140 186 126 178 q 261 300 204 229 q 351 446 318 371 m 171 947 q 223 917 197 947 q 279 855 249 886 q 347 824 310 824 q 412 844 385 824 q 451 888 439 864 q 521 951 485 951 q 552 931 533 951 q 571 901 571 911 q 521 785 571 857 q 387 714 471 714 q 228 793 303 714 q 153 922 153 872 q 171 947 153 947 z "},"":{"ha":615,"x_min":42,"x_max":632,"o":"m 344 383 l 321 382 q 256 403 281 382 q 231 439 231 425 q 249 462 231 453 q 367 517 267 471 q 508 582 468 563 q 566 601 547 601 q 608 581 585 601 q 632 542 632 561 q 625 512 632 524 q 603 490 618 500 q 578 473 589 479 q 548 458 568 467 q 524 446 528 449 q 493 415 493 432 l 497 403 q 533 268 533 335 q 463 61 533 168 q 294 -31 399 -31 q 167 -3 225 -31 q 85 81 108 24 q 42 311 42 189 q 54 454 42 400 q 73 538 67 508 q 97 615 79 567 q 122 683 115 663 q 153 759 129 704 q 183 826 178 814 q 249 967 222 914 q 302 999 263 999 q 386 984 342 999 q 451 947 431 969 q 490 866 490 906 q 440 747 490 826 q 425 681 425 725 q 404 661 422 661 q 385 668 393 661 q 374 683 376 675 q 369 704 372 690 q 364 722 365 718 q 350 850 350 761 q 339 868 350 868 q 281 749 328 868 q 171 278 171 476 q 188 104 171 171 q 224 75 194 75 q 286 118 253 75 q 379 346 379 239 q 344 383 379 383 m 281 1178 q 281 1197 281 1178 q 302 1242 281 1215 q 363 1268 324 1268 q 427 1238 401 1268 q 453 1168 453 1208 q 431 1103 453 1128 q 369 1079 410 1079 q 305 1110 329 1079 q 281 1178 281 1140 z "},"":{"ha":482,"x_min":14,"x_max":458,"o":"m 186 -214 l 189 -199 q 197 -184 189 -187 q 211 -177 206 -181 q 225 -167 217 -174 q 258 -153 244 -153 q 280 -157 271 -153 q 292 -161 289 -161 q 307 -104 307 -161 q 333 214 314 31 q 228 78 293 150 q 124 7 163 7 q 60 42 85 7 q 14 192 14 107 q 146 464 14 317 q 215 535 192 514 q 286 602 238 557 q 374 647 335 647 q 433 619 413 647 q 454 556 454 592 q 438 460 454 521 q 449 440 449 453 q 446 413 449 426 q 376 -101 383 21 q 368 -294 368 -224 l 369 -368 q 360 -398 369 -386 q 335 -410 350 -410 q 284 -383 319 -410 q 217 -356 249 -356 l 185 -358 q 168 -343 168 -358 l 186 -214 m 351 446 q 358 478 358 463 q 347 493 358 493 q 338 490 343 493 q 193 383 256 450 q 100 235 131 317 q 94 206 94 218 q 115 178 94 178 q 140 186 126 178 q 261 300 204 229 q 351 446 318 371 m 286 826 q 286 845 286 826 q 308 890 286 864 q 368 917 329 917 q 433 887 407 917 q 458 817 458 857 q 437 752 458 776 q 375 728 415 728 q 310 758 335 728 q 286 826 286 789 z "},"":{"ha":615,"x_min":42,"x_max":632,"o":"m 344 383 l 321 382 q 256 403 281 382 q 231 439 231 425 q 249 462 231 453 q 367 517 267 471 q 508 582 468 563 q 566 601 547 601 q 608 581 585 601 q 632 542 632 561 q 625 512 632 524 q 603 490 618 500 q 578 473 589 479 q 548 458 568 467 q 524 446 528 449 q 493 415 493 432 l 497 403 q 533 268 533 335 q 463 61 533 168 q 294 -31 399 -31 q 167 -3 225 -31 q 85 81 108 24 q 42 311 42 189 q 54 454 42 400 q 73 538 67 508 q 97 615 79 567 q 122 683 115 663 q 153 759 129 704 q 183 826 178 814 q 249 967 222 914 q 302 999 263 999 q 386 984 342 999 q 451 947 431 969 q 490 866 490 906 q 440 747 490 826 q 425 681 425 725 q 404 661 422 661 q 385 668 393 661 q 374 683 376 675 q 369 704 372 690 q 364 722 365 718 q 350 850 350 761 q 339 868 350 868 q 281 749 328 868 q 171 278 171 476 q 188 104 171 171 q 224 75 194 75 q 286 118 253 75 q 379 346 379 239 q 344 383 379 383 m 203 -368 q 183 -359 190 -368 q 175 -337 175 -350 q 209 -271 175 -325 q 243 -183 243 -217 q 226 -149 226 -164 q 249 -123 226 -135 q 296 -111 272 -111 q 338 -131 319 -111 q 357 -178 357 -150 q 296 -297 357 -225 q 203 -368 235 -368 z "},"":{"ha":482,"x_min":14,"x_max":454,"o":"m 186 -214 l 189 -199 q 197 -184 189 -187 q 211 -177 206 -181 q 225 -167 217 -174 q 258 -153 244 -153 q 280 -157 271 -153 q 292 -161 289 -161 q 307 -104 307 -161 q 333 214 314 31 q 228 78 293 150 q 124 7 163 7 q 60 42 85 7 q 14 192 14 107 q 146 464 14 317 q 215 535 192 514 q 286 602 238 557 q 374 647 335 647 q 433 619 413 647 q 454 556 454 592 q 438 460 454 521 q 449 440 449 453 q 446 413 449 426 q 376 -101 383 21 q 368 -294 368 -224 l 369 -368 q 360 -398 369 -386 q 335 -410 350 -410 q 284 -383 319 -410 q 217 -356 249 -356 l 185 -358 q 168 -343 168 -358 l 186 -214 m 351 446 q 358 478 358 463 q 347 493 358 493 q 338 490 343 493 q 193 383 256 450 q 100 235 131 317 q 94 206 94 218 q 115 178 94 178 q 140 186 126 178 q 261 300 204 229 q 351 446 318 371 m 383 954 q 415 942 403 954 q 426 911 426 929 q 415 850 426 893 q 403 790 403 807 q 421 756 403 774 q 439 726 439 738 q 399 700 439 700 q 328 728 360 700 q 296 801 296 757 q 327 900 296 846 q 383 954 358 954 z "},"":{"ha":656,"x_min":-14,"x_max":676,"o":"m 86 413 l 133 400 q 240 424 158 400 q 289 625 256 494 q 342 849 342 826 q 328 871 342 871 q 278 863 311 871 q 246 840 246 854 q 267 807 246 831 q 289 774 289 783 q 288 763 289 765 q 94 561 179 625 q 67 550 81 550 q 24 592 36 550 q 10 625 21 601 q -14 705 -14 678 q 8 757 -14 732 q 250 958 106 854 q 296 972 267 972 q 361 960 325 972 q 426 888 397 949 q 454 792 454 826 q 443 702 454 758 q 390 463 432 646 l 458 478 q 550 936 485 706 q 553 952 553 944 q 546 972 553 960 q 539 991 539 985 q 547 997 539 997 q 564 990 554 997 q 621 918 621 953 q 617 885 621 901 q 558 499 579 713 q 582 500 567 500 q 637 485 597 500 q 676 449 676 471 q 667 432 676 440 q 621 392 657 424 q 572 357 585 361 q 546 349 560 353 q 538 223 538 257 q 549 128 538 189 q 560 49 560 68 q 551 6 560 31 q 525 -19 543 -19 q 496 -4 514 -19 q 433 124 433 54 q 444 317 433 194 q 350 288 401 306 q 314 94 314 131 l 328 0 q 314 -44 328 -22 q 283 -67 300 -67 q 254 -54 265 -67 q 230 -15 243 -42 q 217 13 217 11 q 190 101 190 61 q 206 249 190 142 q 143 276 161 254 q 101 342 125 299 q 76 399 76 386 q 86 413 76 413 m 647 1053 q 627 1036 647 1036 q 586 1044 607 1036 q 544 1077 565 1053 q 515 1110 522 1101 q 483 1159 507 1119 q 458 1200 460 1199 q 372 1101 429 1156 q 282 1046 314 1046 q 257 1078 257 1046 q 319 1176 257 1110 q 373 1246 350 1211 q 410 1296 396 1281 q 451 1311 424 1311 q 507 1284 479 1311 q 555 1214 535 1257 q 577 1167 575 1171 q 594 1144 579 1164 q 619 1110 610 1124 q 647 1053 647 1072 z "},"":{"ha":482,"x_min":14,"x_max":472,"o":"m 472 194 q 432 26 472 85 q 379 -12 401 -12 q 335 10 357 -12 q 257 226 257 100 q 267 313 257 268 q 283 411 283 389 q 281 433 283 433 q 171 51 272 433 q 144 13 158 13 q 56 142 107 13 q 28 289 28 203 q 40 453 28 386 q 54 535 51 519 q 65 587 57 551 q 75 633 72 622 q 97 732 92 703 q 63 753 63 732 q 71 774 63 763 q 179 988 147 894 q 201 1011 185 1011 q 235 968 224 1011 q 246 893 246 925 q 193 764 246 813 q 131 357 131 376 q 136 338 131 338 q 156 363 142 338 q 203 462 171 389 q 256 569 235 535 q 333 621 286 621 q 408 481 408 621 q 356 193 408 367 q 354 182 354 188 q 369 167 354 167 q 420 207 383 167 q 465 247 457 247 q 472 194 472 247 m 404 1072 q 384 1056 404 1056 q 343 1064 364 1056 q 301 1097 322 1072 q 272 1130 279 1121 q 240 1178 264 1139 q 215 1219 217 1218 q 128 1120 186 1175 q 39 1065 71 1065 q 14 1097 14 1065 q 75 1197 14 1129 q 130 1265 107 1231 q 167 1315 153 1300 q 208 1331 181 1331 q 264 1303 236 1331 q 312 1233 292 1276 q 334 1187 332 1190 q 351 1163 336 1183 q 376 1131 367 1143 q 404 1072 404 1092 z "},"":{"ha":656,"x_min":-14,"x_max":675,"o":"m 361 960 q 379 955 361 960 q 426 888 397 949 q 454 791 454 826 q 431 638 454 756 q 483 640 450 638 q 550 936 506 779 q 553 952 553 944 q 546 972 553 960 q 539 991 539 985 q 547 997 539 997 q 564 990 554 997 q 621 918 621 953 q 609 851 621 901 q 578 661 597 800 q 629 681 611 678 q 663 613 651 681 q 563 543 663 551 q 557 478 557 499 q 581 479 565 479 q 635 465 596 479 q 675 428 675 450 q 665 411 675 419 q 619 372 656 403 q 571 336 583 340 q 544 328 558 332 q 538 201 538 214 q 549 128 538 189 q 560 49 560 68 q 551 6 560 31 q 525 -19 543 -19 q 496 -4 514 -19 q 433 132 433 54 q 443 296 433 189 q 349 267 401 285 q 335 214 346 256 q 314 94 314 138 l 328 0 q 314 -44 328 -22 q 283 -67 300 -67 q 254 -54 265 -67 q 230 -15 243 -42 q 217 13 217 11 q 190 101 190 61 q 206 249 190 142 q 183 249 199 250 q 136 262 149 246 q 99 322 124 278 q 75 378 75 365 q 85 392 75 392 l 132 379 q 239 403 156 379 q 267 526 242 414 q 175 521 236 524 q 151 548 163 521 q 140 599 140 575 q 146 631 140 622 q 168 639 151 639 l 235 640 l 294 639 q 319 739 303 674 q 338 817 335 804 q 342 851 342 831 q 328 871 342 871 l 324 871 q 310 868 321 869 q 289 865 299 867 q 269 858 279 863 q 246 841 246 851 q 260 819 246 831 q 275 800 275 808 q 274 789 275 792 q 81 588 165 651 q 53 576 67 576 q 10 618 22 576 q 1 640 7 626 q -7 661 -4 653 q -14 706 -14 679 q 8 757 -14 732 q 250 958 106 854 q 296 972 267 972 q 361 960 325 972 m 456 540 q 410 538 424 540 q 389 442 400 488 l 457 457 q 467 540 463 513 l 456 540 z "},"":{"ha":482,"x_min":-15,"x_max":472,"o":"m 215 789 l 299 806 q 322 779 313 806 q 331 735 331 753 q 319 703 331 717 q 281 686 307 690 q 200 681 247 681 l 179 681 q 131 363 131 388 q 136 338 131 338 q 153 357 146 338 q 203 462 171 389 q 256 569 235 535 q 333 621 286 621 q 408 478 408 621 q 356 193 408 336 q 354 182 354 189 q 369 167 354 167 q 420 207 383 167 q 465 247 457 247 q 472 194 472 247 q 432 26 472 85 q 379 -12 401 -12 q 335 10 357 -12 q 258 226 258 99 q 271 338 258 279 q 283 415 283 396 q 281 433 283 433 q 275 425 279 433 q 171 51 264 400 q 144 13 158 13 q 56 142 107 13 q 28 289 28 203 q 83 675 28 432 q 17 674 64 674 q -15 743 0 674 l -15 754 q -8 785 -15 776 q 13 793 -1 793 q 94 789 28 793 q 179 988 132 850 q 201 1011 185 1011 q 235 968 224 1011 q 246 879 246 925 q 215 789 246 833 z "},"":{"ha":407,"x_min":28,"x_max":464,"o":"m 288 881 q 268 928 288 928 q 228 899 249 928 q 208 858 208 869 q 215 817 208 847 q 222 753 222 786 q 199 617 222 721 q 160 480 175 514 q 126 446 146 446 q 99 459 111 446 q 72 499 88 472 q 42 544 56 525 q 28 586 28 563 q 71 706 28 610 q 143 860 114 803 q 124 892 124 883 q 147 908 124 908 q 165 903 154 908 q 178 926 168 907 q 192 951 188 944 q 206 973 196 958 q 225 994 217 988 q 275 1011 251 1011 q 378 708 379 1011 q 378 696 378 700 q 303 -39 378 375 q 272 -69 296 -69 q 211 -36 246 -69 q 158 15 176 -3 q 93 86 110 64 q 72 131 72 110 q 88 183 72 151 q 122 214 104 214 q 158 185 140 214 q 186 156 175 156 q 201 177 197 156 q 208 238 204 199 q 253 528 219 319 q 288 838 288 736 l 288 881 m 190 1275 q 208 1275 190 1275 q 274 1235 225 1275 q 340 1196 324 1196 q 370 1213 357 1196 q 393 1247 383 1229 q 419 1264 403 1264 q 450 1238 436 1264 q 464 1190 464 1213 q 433 1115 464 1144 q 363 1086 401 1086 q 270 1127 324 1086 q 199 1168 217 1168 q 170 1147 182 1168 q 146 1106 158 1126 q 117 1085 133 1085 q 90 1103 100 1085 q 81 1143 81 1122 q 118 1235 81 1194 q 190 1275 156 1275 z "},"":{"ha":333,"x_min":-69,"x_max":333,"o":"m 299 339 q 319 363 311 363 q 330 328 326 363 q 333 235 333 293 q 306 112 333 178 q 228 6 279 46 q 174 -17 199 -17 q 134 -6 150 -17 q 106 28 118 4 q 65 114 85 61 q 44 228 44 167 q 54 351 44 289 q 64 435 64 414 q 42 491 64 457 q 19 532 19 525 q 24 547 19 539 q 37 562 29 554 q 52 575 44 569 q 69 589 60 581 q 129 615 101 615 q 177 594 157 615 q 192 543 197 574 q 169 351 189 476 q 146 181 146 200 q 158 161 146 161 q 299 339 186 161 m 40 879 q 58 879 40 879 q 124 840 75 879 q 190 800 174 800 q 220 817 207 800 q 243 851 233 833 q 269 868 253 868 q 300 842 286 868 q 314 794 314 817 q 283 719 314 749 q 213 690 251 690 q 120 731 174 690 q 49 772 67 772 q 20 751 32 772 q -4 710 8 731 q -33 689 -17 689 q -60 708 -50 689 q -69 747 -69 726 q -32 839 -69 799 q 40 879 6 879 z "},"":{"ha":407,"x_min":28,"x_max":451,"o":"m 288 881 q 268 928 288 928 q 228 899 249 928 q 208 858 208 869 q 215 817 208 847 q 222 753 222 786 q 199 617 222 721 q 160 480 175 514 q 126 446 146 446 q 99 459 111 446 q 72 499 88 472 q 42 544 56 525 q 28 586 28 563 q 71 706 28 610 q 143 860 114 803 q 124 892 124 883 q 147 908 124 908 q 165 903 154 908 q 178 926 168 907 q 192 951 188 944 q 206 973 196 958 q 225 994 217 988 q 275 1011 251 1011 q 378 708 379 1011 q 378 696 378 700 q 303 -39 378 375 q 272 -69 296 -69 q 211 -36 246 -69 q 158 15 176 -3 q 93 86 110 64 q 72 131 72 110 q 88 183 72 151 q 122 214 104 214 q 158 185 140 214 q 186 156 175 156 q 201 177 197 156 q 208 238 204 199 q 253 528 219 319 q 288 838 288 736 l 288 881 m 135 1239 l 281 1232 q 376 1242 340 1232 q 419 1251 411 1251 q 442 1225 433 1251 q 451 1181 451 1199 q 440 1149 451 1163 q 401 1132 428 1136 q 321 1126 368 1126 l 138 1119 q 106 1189 121 1119 l 106 1200 q 113 1231 106 1222 q 135 1239 119 1239 z "},"":{"ha":333,"x_min":-44,"x_max":333,"o":"m 299 339 q 319 363 311 363 q 330 328 326 363 q 333 235 333 293 q 306 112 333 178 q 228 6 279 46 q 174 -17 199 -17 q 134 -6 150 -17 q 106 28 118 4 q 65 114 85 61 q 44 228 44 167 q 54 351 44 289 q 64 435 64 414 q 42 491 64 457 q 19 532 19 525 q 24 547 19 539 q 37 562 29 554 q 52 575 44 569 q 69 589 60 581 q 129 615 101 615 q 177 594 157 615 q 192 543 197 574 q 169 351 189 476 q 146 181 146 200 q 158 161 146 161 q 299 339 186 161 m -15 843 l 131 836 q 226 846 190 836 q 269 856 261 856 q 292 829 283 856 q 301 785 301 803 q 290 753 301 767 q 253 736 278 740 q 171 731 218 731 l -12 724 q -44 793 -29 724 l -44 804 q -37 835 -44 826 q -15 843 -31 843 z "},"":{"ha":407,"x_min":28,"x_max":474,"o":"m 288 881 q 268 928 288 928 q 228 899 249 928 q 208 858 208 869 q 215 817 208 847 q 222 753 222 786 q 199 617 222 721 q 160 480 175 514 q 126 446 146 446 q 99 459 111 446 q 72 499 88 472 q 42 544 56 525 q 28 586 28 563 q 71 706 28 610 q 143 860 114 803 q 124 892 124 883 q 147 908 124 908 q 165 903 154 908 q 178 926 168 907 q 192 951 188 944 q 206 973 196 958 q 225 994 217 988 q 275 1011 251 1011 q 378 708 379 1011 q 378 696 378 700 q 303 -39 378 375 q 272 -69 296 -69 q 211 -36 246 -69 q 158 15 176 -3 q 93 86 110 64 q 72 131 72 110 q 88 183 72 151 q 122 214 104 214 q 158 185 140 214 q 186 156 175 156 q 201 177 197 156 q 208 238 204 199 q 253 528 219 319 q 288 838 288 736 l 288 881 m 74 1311 q 153 1249 111 1311 q 194 1207 168 1226 q 253 1188 219 1188 q 315 1208 288 1188 q 354 1251 342 1228 q 424 1315 388 1315 q 455 1295 436 1315 q 474 1265 474 1275 q 424 1149 474 1221 q 290 1078 374 1078 q 131 1157 206 1078 q 56 1286 56 1236 q 74 1311 56 1311 z "},"":{"ha":333,"x_min":-94,"x_max":333,"o":"m 299 339 q 319 363 311 363 q 330 328 326 363 q 333 235 333 293 q 306 112 333 178 q 228 6 279 46 q 174 -17 199 -17 q 134 -6 150 -17 q 106 28 118 4 q 65 114 85 61 q 44 228 44 167 q 54 351 44 289 q 64 435 64 414 q 42 491 64 457 q 19 532 19 525 q 24 547 19 539 q 37 562 29 554 q 52 575 44 569 q 69 589 60 581 q 129 615 101 615 q 177 594 157 615 q 192 543 197 574 q 169 351 189 476 q 146 181 146 200 q 158 161 146 161 q 299 339 186 161 m -76 915 q 3 853 -39 915 q 44 811 18 831 q 103 792 69 792 q 165 812 138 792 q 204 856 192 832 q 274 919 238 919 q 305 899 286 919 q 324 869 324 879 q 274 753 324 825 q 140 682 224 682 q -19 761 56 682 q -94 890 -94 840 q -76 915 -94 915 z "},"":{"ha":407,"x_min":28,"x_max":440,"o":"m 288 881 q 268 928 288 928 q 228 899 249 928 q 208 858 208 869 q 215 817 208 847 q 222 753 222 786 q 199 617 222 721 q 160 480 175 514 q 126 446 146 446 q 99 459 111 446 q 72 499 88 472 q 42 544 56 525 q 28 586 28 563 q 71 706 28 610 q 143 860 114 803 q 124 892 124 883 q 147 908 124 908 q 165 903 154 908 q 178 926 168 907 q 192 951 188 944 q 206 973 196 958 q 225 994 217 988 q 275 1011 251 1011 q 378 708 379 1011 q 378 696 378 700 q 303 -39 378 381 q 268 -69 294 -69 q 222 -104 242 -69 q 203 -174 203 -139 q 222 -219 203 -208 q 330 -190 267 -219 q 410 -160 393 -160 q 431 -187 421 -160 q 440 -232 440 -215 q 376 -317 428 -285 q 243 -350 325 -350 q 156 -302 206 -350 q 107 -203 107 -254 q 128 -91 107 -151 q 176 -3 149 -31 q 93 86 165 8 q 72 131 72 110 q 88 183 72 151 q 122 214 104 214 q 158 185 140 214 q 186 156 175 156 q 201 177 197 156 q 208 238 204 199 q 253 528 219 319 q 288 838 288 736 l 288 881 z "},"":{"ha":333,"x_min":19,"x_max":365,"o":"m 168 -336 q 81 -288 131 -336 q 32 -187 32 -240 q 56 -69 32 -133 q 110 18 79 -4 q 67 106 90 44 q 44 228 44 167 q 54 351 44 289 q 64 435 64 414 q 42 491 64 457 q 19 532 19 525 q 24 547 19 539 q 37 562 29 554 q 52 575 44 569 q 69 589 60 581 q 129 615 101 615 q 177 594 157 615 q 192 543 197 574 q 169 351 189 476 q 146 181 146 200 q 158 161 146 161 q 299 339 186 161 q 319 363 311 363 q 330 328 326 363 q 333 235 333 293 q 294 106 333 176 q 185 -15 254 36 q 144 -81 160 -33 q 128 -161 128 -128 q 147 -206 128 -194 q 255 -176 192 -206 q 335 -146 318 -146 q 356 -174 346 -146 q 365 -218 365 -201 q 301 -303 353 -271 q 168 -336 250 -336 m 285 956 q 246 828 285 910 q 172 711 207 747 q 156 703 167 703 q 121 758 121 703 q 169 914 121 814 q 182 957 179 935 q 185 983 185 979 q 187 988 186 986 q 188 994 188 990 q 190 999 189 997 q 192 1003 190 1001 q 194 1007 193 1006 q 217 1010 199 1010 q 260 994 235 1010 q 285 956 285 979 z "},"":{"ha":407,"x_min":28,"x_max":379,"o":"m 288 881 q 268 928 288 928 q 228 899 249 928 q 208 858 208 869 q 215 817 208 847 q 222 753 222 786 q 199 617 222 721 q 160 480 175 514 q 126 446 146 446 q 99 459 111 446 q 72 499 88 472 q 42 544 56 525 q 28 586 28 563 q 71 706 28 610 q 143 860 114 803 q 124 892 124 883 q 147 908 124 908 q 165 903 154 908 q 178 926 168 907 q 192 951 188 944 q 206 973 196 958 q 225 994 217 988 q 275 1011 251 1011 q 378 708 379 1011 q 378 696 378 700 q 303 -39 378 375 q 272 -69 296 -69 q 211 -36 246 -69 q 158 15 176 -3 q 93 86 110 64 q 72 131 72 110 q 88 183 72 151 q 122 214 104 214 q 158 185 140 214 q 186 156 175 156 q 201 177 197 156 q 208 238 204 199 q 253 528 219 319 q 288 838 288 736 l 288 881 m 189 1190 q 189 1209 189 1190 q 210 1254 189 1228 q 271 1281 232 1281 q 335 1251 310 1281 q 361 1181 361 1221 q 340 1116 361 1140 q 278 1092 318 1092 q 213 1122 238 1092 q 189 1190 189 1153 z "},"":{"ha":333,"x_min":19,"x_max":333,"o":"m 299 339 q 319 363 311 363 q 330 328 326 363 q 333 235 333 293 q 306 112 333 178 q 228 6 279 46 q 174 -17 199 -17 q 134 -6 150 -17 q 106 28 118 4 q 65 114 85 61 q 44 228 44 167 q 54 351 44 289 q 64 435 64 414 q 42 491 64 457 q 19 532 19 525 q 24 547 19 539 q 37 562 29 554 q 52 575 44 569 q 69 589 60 581 q 129 615 101 615 q 177 594 157 615 q 192 543 197 574 q 169 351 189 476 q 146 181 146 200 q 158 161 146 161 q 299 339 186 161 z "},"":{"ha":999,"x_min":28,"x_max":1207,"o":"m 288 881 q 268 928 288 928 q 228 899 249 928 q 208 858 208 869 q 215 817 208 847 q 222 753 222 786 q 199 617 222 721 q 160 480 175 514 q 126 446 146 446 q 99 459 111 446 q 72 499 88 472 q 42 544 56 525 q 28 586 28 563 q 71 706 28 610 q 143 860 114 803 q 124 892 124 883 q 147 908 124 908 q 165 903 154 908 q 178 926 168 907 q 192 951 188 944 q 206 973 196 958 q 225 994 217 988 q 275 1011 251 1011 q 378 708 379 1011 q 378 696 378 700 q 303 -39 378 375 q 272 -69 296 -69 q 211 -36 246 -69 q 158 15 176 -3 q 93 86 110 64 q 72 131 72 110 q 88 183 72 151 q 122 214 104 214 q 158 185 140 214 q 186 156 175 156 q 201 177 197 156 q 208 238 204 199 q 253 528 219 319 q 288 838 288 736 l 288 881 m 954 972 l 1117 974 q 1179 956 1151 974 q 1207 911 1207 939 q 1097 831 1207 856 q 993 819 1043 818 q 894 821 943 821 q 839 651 839 739 q 861 513 839 604 q 899 290 899 351 q 893 195 899 228 q 881 135 888 163 q 861 76 874 108 q 772 -6 833 11 q 650 -22 711 -22 q 435 36 536 -22 q 393 104 393 60 q 397 150 393 128 q 426 211 404 203 q 647 256 536 256 q 758 238 758 256 q 721 208 758 225 q 671 183 683 190 q 615 142 639 168 q 642 147 625 143 q 699 154 678 154 q 822 364 822 163 q 803 536 822 422 q 783 710 783 650 q 799 824 783 771 q 592 836 697 828 q 511 893 515 842 q 508 950 508 932 q 533 979 508 979 l 954 972 z "},"":{"ha":589,"x_min":0,"x_max":608,"o":"m 285 956 q 246 828 285 910 q 172 711 207 747 q 156 703 167 703 q 121 758 121 703 q 169 914 121 814 q 182 957 179 935 q 185 983 185 979 q 187 988 186 986 q 188 994 188 990 q 190 999 189 997 q 192 1003 190 1001 q 194 1007 193 1006 q 217 1010 199 1010 q 260 994 235 1010 q 285 956 285 979 m 299 339 q 320 363 314 363 q 330 328 326 363 q 333 235 333 293 q 306 112 333 178 q 228 6 279 46 q 174 -17 199 -17 q 134 -6 150 -17 q 106 28 118 4 q 65 114 85 61 q 44 228 44 167 q 54 351 44 289 q 64 435 64 414 q 42 491 64 457 q 19 532 19 525 q 24 547 19 539 q 37 562 29 554 q 52 575 44 569 q 69 589 60 581 q 128 615 101 615 q 174 597 154 615 q 194 535 194 579 q 172 367 193 490 q 146 185 146 208 q 158 161 146 161 q 299 339 186 161 m 538 978 q 552 978 538 978 q 587 952 565 978 q 608 894 608 926 q 587 803 608 863 q 540 743 565 743 q 508 790 521 743 q 496 867 496 836 q 507 956 496 897 q 538 978 511 978 m 546 106 q 560 90 560 106 q 554 53 560 75 q 540 6 549 32 q 529 -31 532 -21 q 461 -103 517 -82 q 328 -531 407 -361 q 232 -601 296 -601 q 150 -561 186 -601 q 11 -290 71 -478 q 0 -230 0 -254 q 17 -187 0 -206 q 389 49 136 -57 q 472 621 449 297 q 492 650 475 650 q 534 623 517 650 q 551 572 551 596 q 550 536 551 547 q 496 90 526 276 q 546 106 542 106 m 338 -142 q 192 -225 276 -165 q 107 -314 107 -285 q 144 -354 107 -333 q 204 -375 181 -375 q 247 -344 228 -375 q 338 -142 297 -269 z "}}}
